<?xml version="1.0" standalone="no"?>
<!DOCTYPE svg PUBLIC "-//W3C//DTD SVG 1.1//EN" "http://www.w3.org/Graphics/SVG/1.1/DTD/svg11.dtd" >
<svg xmlns="http://www.w3.org/2000/svg">
<metadata>
This is a custom SVG webfont generated by Font Squirrel.
Copyright   : Copyright c 2006 by Zakhar Yashchin All rights reserved
</metadata>
<defs>
<font id="EkibastuzHeavy" horiz-adv-x="1452" >
<font-face units-per-em="2048" ascent="1638" descent="-410" />
<missing-glyph horiz-adv-x="591" />
<glyph unicode=" "  horiz-adv-x="591" />
<glyph unicode="&#x09;" horiz-adv-x="591" />
<glyph unicode="&#xa0;" horiz-adv-x="591" />
<glyph unicode="!" horiz-adv-x="647" d="M111 0v371h426v-371h-426zM111 1491h426l-52 -995h-323z" />
<glyph unicode="&#x22;" horiz-adv-x="1040" d="M127 1491h352l-20 -490h-309zM563 1491h350l-20 -490h-309z" />
<glyph unicode="#" horiz-adv-x="1695" d="M131 311v299h182l52 271h-234v299h293l59 311h359l-62 -311h310l61 311h354l-61 -311h121v-299h-181l-51 -271h232v-299h-291l-60 -311h-354l60 311h-312l-59 -311h-354l59 311h-123zM670 610h309l51 271h-309z" />
<glyph unicode="$" horiz-adv-x="1370" d="M78 979q0 233 135 338.5t358 109.5v127h234v-127q225 -8 438 -61l-41 -281q-195 45 -397 50v-242q485 -41 485 -465q0 -227 -123 -332.5t-362 -115.5v-150h-234v150q-293 4 -481 71l41 297q154 -51 440 -57v254q-217 18 -355 120.5t-138 313.5zM420 1032q0 -86 106 -114 q29 -4 45 -5v222q-151 -7 -151 -103zM805 291q152 8 151 115q0 55 -29.5 87.5t-82.5 34.5q-27 0 -39 -2v-235z" />
<glyph unicode="&#x26;" horiz-adv-x="1769" d="M117 414q0 100 25.5 177t73.5 126t101.5 80.5t122.5 56.5q-109 150 -108 287q0 176 147.5 273t372.5 97q242 0 455 -106l-76 -303q-190 102 -285 102q-190 0 -190 -143q0 -70 63 -150l363 -419q51 72 63 200l361 -45q-6 -121 -76 -234.5t-137 -150.5l237 -262h-426 l-80 88q-143 -109 -413 -108q-82 0 -158 10t-158 38.5t-141 76t-98 126.5t-39 183zM539 438q0 -96 45 -149t127 -53q139 0 219 67l-291 336q-100 -60 -100 -201z" />
<glyph unicode="'" horiz-adv-x="614" d="M131 1491h352l-20 -490h-309z" />
<glyph unicode="(" horiz-adv-x="1021" d="M147 692q0 475 316 1020l379 -59q-131 -221 -206 -447.5t-75 -513.5q0 -158 23.5 -300t70.5 -265t89 -206t102 -185l-379 -60q-320 520 -320 1016z" />
<glyph unicode=")" horiz-adv-x="1021" d="M147 -264q59 102 100.5 185t88.5 206t71.5 265.5t24.5 299.5q0 287 -75.5 515.5t-204.5 445.5l378 59q315 -545 316 -1020q0 -492 -318 -1016z" />
<glyph unicode="*" horiz-adv-x="1550" d="M131 858l389 143l-389 142l141 291l361 -213l-19 356h324l-20 -356l360 213l141 -291l-366 -142l366 -143l-141 -289l-360 213l20 -356h-324l19 354l-361 -211z" />
<glyph unicode="+" horiz-adv-x="1327" d="M131 401v308h356v356h355v-356h354v-308h-354v-356h-355v356h-356z" />
<glyph unicode="," horiz-adv-x="659" d="M117 0v371h426v-226q0 -133 -77 -266t-177 -207l-133 74q100 115 100 254h-139z" />
<glyph unicode="-" horiz-adv-x="901" d="M131 526v310h639v-310h-639z" />
<glyph unicode="." horiz-adv-x="659" d="M117 0v371h426v-371h-426z" />
<glyph unicode="/" horiz-adv-x="1218" d="M57 -70l707 1575h399l-708 -1575h-398z" />
<glyph unicode="0" d="M61 618v240q0 322 178.5 487.5t487.5 165.5t486.5 -164.5t177.5 -488.5v-240q0 -319 -174.5 -478.5t-489.5 -159.5q-313 0 -489.5 158t-176.5 480zM489 606q0 -309 237 -309t237 309v277q0 137 -57.5 224t-179.5 87t-179.5 -87t-57.5 -222v-279z" />
<glyph unicode="1" d="M262 965l569 526h359v-1491h-412v993l-416 -342z" />
<glyph unicode="2" d="M131 0v98q0 217 45 349.5t121 200t221 136.5q20 10 87 38t103.5 47.5t86 48t73 59.5t23.5 65q0 125 -213 125q-137 0 -459 -69l-65 329q307 84 548 84q606 0 607 -417q0 -78 -18.5 -142.5t-60.5 -115t-79 -85t-105.5 -68.5t-105.5 -50.5t-111 -44.5q-18 -8 -59 -26.5 t-57.5 -27t-47 -27t-45 -34.5t-31 -41.5t-22.5 -60.5t-6 -74h760v-297h-1190z" />
<glyph unicode="3" d="M129 47l51 315q240 -47 434 -47q147 0 219 30t72 122q0 94 -68.5 124t-234.5 30h-166l-43 278h223q223 0 224 148q0 72 -54.5 100.5t-169.5 28.5q-268 0 -411 -41l-62 315q59 23 205 42t254 19q324 0 480.5 -77.5t156.5 -284.5q0 -248 -235 -328q154 -41 235.5 -129 t81.5 -268q0 -111 -38 -191.5t-98.5 -129t-158.5 -77t-200.5 -37.5t-241.5 -9q-111 0 -261.5 24.5t-193.5 42.5z" />
<glyph unicode="4" d="M82 281v299l641 911h469v-877h180l-49 -333h-131v-281h-412v281h-698zM444 616h336v494z" />
<glyph unicode="5" d="M117 53l51 285q272 -53 508 -53q119 0 174 44t55 158q0 49 -17.5 80t-53 45.5t-67.5 17.5t-85 3q-186 0 -473 -35l67 893h1006l-20 -330h-641l-23 -254q106 29 313 29q203 0 313.5 -99.5t110.5 -342.5q0 -127 -34.5 -221.5t-90 -149.5t-139.5 -88t-170 -44t-194 -11 q-170 0 -348.5 25t-241.5 48z" />
<glyph unicode="6" d="M106 610v262q0 311 185.5 474t466.5 163q266 0 551 -77l-70 -299q-162 59 -434 59q-135 0 -208 -69.5t-73 -196.5v-60q137 70 348 70q238 0 354.5 -114.5t116.5 -358.5q0 -236 -147 -359.5t-444 -123.5q-311 0 -478.5 143t-167.5 487zM524 504q0 -131 49.5 -184.5 t155.5 -53.5q88 0 143.5 51.5t55.5 143.5q0 186 -185 186q-113 0 -219 -45v-98z" />
<glyph unicode="7" d="M117 1126v365h1216v-260q-78 -61 -157.5 -169t-155.5 -260.5t-124 -363.5t-48 -438h-467q0 387 127 675t330 451h-721z" />
<glyph unicode="8" d="M61 403q0 299 351 410q-287 90 -287 348q0 176 159.5 263t441.5 87t441.5 -87t159.5 -263q0 -150 -82 -228.5t-219 -121.5q365 -106 365 -408q0 -424 -665 -424t-665 424zM492 438q0 -90 64.5 -140t171 -50t170 50t63.5 140q0 33 -18.5 61.5t-40 47t-65.5 38t-69 29 t-72 23.5q-96 -37 -150 -81t-54 -118zM512 1133q0 -119 244 -197q37 20 58.5 32.5t56 39t53 59.5t18.5 66q0 137 -215 137t-215 -137z" />
<glyph unicode="9" d="M106 1026q0 236 148.5 359.5t443.5 123.5q311 0 478 -143t167 -489v-261q0 -311 -185 -473.5t-466 -162.5q-266 0 -549 77l68 299q162 -59 434 -59q137 0 209 69.5t72 196.5v60q-137 -70 -348 -70q-238 0 -355 114.5t-117 358.5zM522 1028q0 -186 185 -186q113 0 219 45 v96q0 127 -49.5 183.5t-153.5 56.5q-90 0 -145.5 -51.5t-55.5 -143.5z" />
<glyph unicode=":" horiz-adv-x="659" d="M117 0v371h426v-371h-426zM117 707v370h426v-370h-426z" />
<glyph unicode=";" horiz-adv-x="659" d="M117 0v371h426v-226q0 -133 -77 -266t-177 -207l-133 74q100 115 100 254h-139zM117 707v370h426v-370h-426z" />
<glyph unicode="&#x3c;" horiz-adv-x="1394" d="M131 446v185q147 59 1116 440v-297q-373 -129 -672 -229v-15q98 -33 337 -113.5t335 -111.5v-301q-135 53 -520 207.5t-596 234.5z" />
<glyph unicode="=" horiz-adv-x="1327" d="M131 162v278h1065v-278h-1065zM131 645v279h1065v-279h-1065z" />
<glyph unicode="&#x3e;" horiz-adv-x="1394" d="M131 4v301q98 31 337 112t337 113v15q-301 100 -674 229v297q971 -381 1116 -440v-185q-211 -80 -595 -234.5t-521 -207.5z" />
<glyph unicode="?" horiz-adv-x="1230" d="M125 1473q213 39 342 38q117 0 200 -7t170 -34.5t140 -74.5t88 -129t35 -197q0 -74 -18.5 -131t-43 -93t-72.5 -68t-84 -48t-100 -41q-53 -18 -53 -121v-118h-354v176q0 106 37 163.5t129 96.5q76 31 110.5 69.5t34.5 114.5q0 82 -49 106.5t-170 24.5q-166 0 -301 -41z M338 0v371h426v-371h-426z" />
<glyph unicode="@" horiz-adv-x="2445" d="M129 512q0 999 1094 999q205 0 365.5 -22.5t301 -82.5t232.5 -154.5t144 -244t52 -348.5q0 -659 -696 -659h-236v84q-39 -39 -121.5 -71.5t-156.5 -32.5q-174 0 -282.5 126.5t-108.5 391.5q0 287 140 424t382 137q147 0 447 -49v-789q57 4 100 22.5t84 63.5t62.5 134 t21.5 218q0 186 -37 301t-128 181.5t-222 91t-344 24.5q-727 0 -727 -745q0 -217 52 -364.5t154.5 -225.5t226.5 -109.5t294 -31.5q236 0 486.5 41t436.5 104l54 -235q-438 -178 -977 -178q-262 0 -455 49t-340 160.5t-223 309t-76 480.5zM1026 516q0 -291 180 -291 q68 0 144 56v528q-74 18 -133 18q-86 0 -137.5 -65.5t-53.5 -245.5z" />
<glyph unicode="A" horiz-adv-x="1556" d="M53 0l473 1491h521l456 -1491h-432l-78 295h-424l-82 -295h-434zM627 567h311l-147 541z" />
<glyph unicode="B" horiz-adv-x="1343" d="M131 0v1491h676q190 0 297.5 -83t107.5 -290q0 -233 -178 -301q106 -33 170 -114.5t64 -262.5q0 -229 -101.5 -334.5t-339.5 -105.5h-696zM530 272h193q74 0 117 49.5t43 135.5q0 82 -47.5 130t-112.5 48h-193v-363zM530 907h172q51 0 88 45t37 121q0 66 -32.5 106 t-92.5 40h-172v-312z" />
<glyph unicode="C" horiz-adv-x="1216" d="M76 596v299q0 313 184 464.5t485 151.5q96 0 216 -25.5t180 -43.5l-70 -328q-39 14 -150.5 35.5t-175.5 21.5q-123 0 -188 -77.5t-65 -204.5v-289q0 -123 62 -202t191 -79q63 0 183.5 21.5t156.5 36.5l56 -328q-59 -18 -179 -43.5t-217 -25.5q-303 0 -486 150.5 t-183 465.5z" />
<glyph unicode="D" horiz-adv-x="1511" d="M131 0v1491h559q205 0 339 -34t228.5 -118t136.5 -229t42 -365q0 -428 -171 -586.5t-575 -158.5h-559zM545 295h145q172 0 251 95t79 355q0 184 -40 286t-106.5 133.5t-183.5 31.5h-145v-901z" />
<glyph unicode="E" horiz-adv-x="1224" d="M131 0v1491h1018v-315h-604v-265h487v-309h-487v-287h604v-315h-1018z" />
<glyph unicode="F" horiz-adv-x="1208" d="M131 0v1491h1018v-326h-604v-309h487v-317h-487v-539h-414z" />
<glyph unicode="G" horiz-adv-x="1386" d="M76 578v325q0 162 52 281t148.5 189.5t222.5 104t283 33.5q254 0 494 -67l-70 -316q-207 57 -372 58q-180 0 -261 -73t-81 -224v-311q0 -297 290 -297q66 0 176 28v258l-221 13v264h574v-772q-231 -92 -529 -92q-706 0 -706 598z" />
<glyph unicode="H" horiz-adv-x="1611" d="M131 0v1491h414v-549h522v549h414v-1491h-414v625h-522v-625h-414z" />
<glyph unicode="I" horiz-adv-x="919" d="M43 1174v317h819v-317h-205v-857h220v-317h-820v317h189v857h-203z" />
<glyph unicode="J" horiz-adv-x="1101" d="M37 41l49 326q111 -55 231 -56q240 0 240 211v969h414v-1008q0 -268 -136.5 -385.5t-426.5 -117.5q-207 0 -371 61z" />
<glyph unicode="K" horiz-adv-x="1458" d="M131 0v1491h414v-637h33l370 637h475l-456 -686l469 -805h-461l-395 713h-35v-713h-414z" />
<glyph unicode="L" horiz-adv-x="1251" d="M131 0v1491h414v-1147h645v-344h-1059z" />
<glyph unicode="M" horiz-adv-x="2056" d="M90 0l121 1491h496l311 -1026l6 -107h8l8 107l310 1026h497l121 -1491h-399l-39 969l2 116h-8l-13 -116l-297 -969h-368l-297 969l-8 116h-9l-4 -116l-47 -969h-391z" />
<glyph unicode="N" horiz-adv-x="1617" d="M131 0v1491h410l579 -848v848h367v-1491h-400l-591 860v-860h-365z" />
<glyph unicode="O" horiz-adv-x="1570" d="M76 567v342q0 305 189.5 453.5t521 148.5t520 -148.5t188.5 -453.5v-342q0 -305 -186.5 -446t-523 -141t-523 141t-186.5 446zM508 616q0 -319 278 -319q152 0 215.5 83t63.5 236v256q0 322 -278.5 322t-278.5 -322v-256z" />
<glyph unicode="P" horiz-adv-x="1402" d="M131 0v1491h561q342 0 488.5 -122t146.5 -420t-147.5 -423t-487.5 -125h-147v-401h-414zM545 717h147q106 0 161.5 49t55.5 186q0 125 -52 172t-165 47h-147v-454z" />
<glyph unicode="Q" horiz-adv-x="1570" d="M76 567v342q0 305 189.5 453.5t521 148.5t520 -148.5t188.5 -453.5v-342q0 -479 -477 -569l254 -311h-463l-162 299q-571 55 -571 581zM508 616q0 -319 278 -319q152 0 215.5 83t63.5 236v256q0 322 -278.5 322t-278.5 -322v-256z" />
<glyph unicode="R" horiz-adv-x="1447" d="M131 0v1491h590q344 0 488.5 -111.5t144.5 -390.5q0 -190 -83 -316t-204 -145l356 -528h-458l-263 489h-157v-489h-414zM545 797h190q106 0 154.5 44t48.5 148.5t-48 149.5t-155 45h-190v-387z" />
<glyph unicode="S" horiz-adv-x="1370" d="M78 1073q0 438 602 438q285 0 563 -63l-41 -311q-281 70 -497 69q-211 0 -211 -102q0 -90 131 -133q57 -16 137 -39t129 -36t111.5 -35.5t99.5 -44t79 -57.5t64.5 -80t35.5 -105.5t13 -141.5q0 -453 -614 -452q-344 0 -590 90l41 311q119 -31 283 -56.5t266 -25.5 q203 0 203 102q0 61 -34 93t-118 57q-53 16 -132 36.5t-125 33t-108.5 35t-99.5 44t-76.5 56.5t-61.5 76.5t-36 103t-14 137.5z" />
<glyph unicode="T" horiz-adv-x="1239" d="M35 1124v367h1171v-367h-379v-1124h-413v1124h-379z" />
<glyph unicode="U" horiz-adv-x="1482" d="M119 532v959h428v-979q0 -117 54 -166t175 -49q117 0 162 48t45 167v979h383v-959q0 -285 -161 -418.5t-445 -133.5q-319 0 -480 131.5t-161 420.5z" />
<glyph unicode="V" horiz-adv-x="1480" d="M20 1491h465l246 -1141h33l252 1141h444l-442 -1491h-561z" />
<glyph unicode="W" horiz-adv-x="2123" d="M20 1491h410l168 -1126l272 1126h404l252 -1122l168 1122h411l-387 -1491h-422l-235 1128l-238 -1128h-467z" />
<glyph unicode="X" horiz-adv-x="1525" d="M20 0l441 770l-441 721h498l268 -557l244 557h475l-391 -723l391 -768h-497l-222 618l-292 -618h-474z" />
<glyph unicode="Y" horiz-adv-x="1437" d="M20 1491h453l240 -676l252 676h452l-491 -1026v-465h-412v463z" />
<glyph unicode="Z" horiz-adv-x="1306" d="M61 0v297l676 864h-647v330h1127v-297l-664 -864h692v-330h-1184z" />
<glyph unicode="[" horiz-adv-x="983" d="M131 -406v2003h721v-321h-307v-1360h307v-322h-721z" />
<glyph unicode="\" horiz-adv-x="1218" d="M74 1538h399l731 -1774h-397z" />
<glyph unicode="]" horiz-adv-x="983" d="M131 -84h307v1360h-307v321h721v-2003h-721v322z" />
<glyph unicode="^" horiz-adv-x="1527" d="M131 578l483 913h301l482 -913h-371l-256 548l-268 -548h-371z" />
<glyph unicode="_" horiz-adv-x="1064" d="M0 -57h1065v-324h-1065v324z" />
<glyph unicode="`" horiz-adv-x="641" d="M111 1595h387l26 -385l-262 -36z" />
<glyph unicode="a" horiz-adv-x="1210" d="M72 309q0 162 99 230.5t302 68.5h256v78q0 76 -38 109.5t-138 33.5q-158 0 -391 -49l-41 240q281 66 452 65q266 0 400.5 -94t134.5 -307v-684h-383v70q-131 -90 -317 -90q-336 -1 -336 329zM459 315q0 -59 32.5 -85.5t106.5 -26.5q43 0 127 30v189h-143q-55 0 -89 -31 t-34 -76z" />
<glyph unicode="b" horiz-adv-x="1265" d="M104 0v1491h383v-496q154 88 299 88q217 0 320.5 -133t103.5 -418q0 -295 -100 -416.5t-324 -121.5q-141 0 -299 76v-70h-383zM487 266q70 -33 127 -33q209 0 209 299q0 283 -207 283q-45 0 -129 -31v-518z" />
<glyph unicode="c" horiz-adv-x="1013" d="M72 451v157q0 219 158.5 349t398.5 130q193 0 358 -65l-51 -266q-29 12 -105.5 32.5t-123.5 20.5q-119 0 -176.5 -51t-57.5 -178v-99q0 -127 56.5 -176t177.5 -49q23 0 42 2t33.5 4t37 7t32.5 8.5t40 13.5t44 14l51 -266q-156 -57 -358 -57q-248 0 -402.5 116.5 t-154.5 352.5z" />
<glyph unicode="d" horiz-adv-x="1284" d="M74 532q0 301 108.5 427t343.5 126q156 0 271 -90v496h383v-1491h-383v70q-4 -2 -36 -21.5t-57.5 -32t-75.5 -24.5t-106 -12q-199 0 -323.5 130.5t-124.5 421.5zM461 532q0 -160 51 -221t152 -61q47 0 133 31v503q-96 31 -133 31q-100 0 -151.5 -58.5t-51.5 -224.5z" />
<glyph unicode="e" horiz-adv-x="1212" d="M72 416v164q0 258 134 381.5t415 123.5q537 0 536 -423v-238h-698v-37q0 -158 174 -158q268 0 454 50l39 -248q-246 -51 -493 -51q-561 0 -561 436zM459 637h342v43q0 78 -49.5 126t-130.5 48q-162 0 -162 -184v-33z" />
<glyph unicode="f" horiz-adv-x="927" d="M43 793v272h168v55q0 477 412 477q240 0 378 -45l-49 -254q-106 27 -207 27q-94 0 -122.5 -62.5t-28.5 -197.5h293v-272h-293v-793h-383v793h-168z" />
<glyph unicode="g" horiz-adv-x="1265" d="M53 -66q0 207 162 297q-49 53 -49 123q0 80 59 135q-125 82 -125 263q0 102 42 171.5t122 103.5t167 46t204 12q115 0 203 -20q10 31 10 70q0 23 -2 36h381q0 -184 -133 -235q74 -63 73 -184q0 -102 -42 -171t-120.5 -103t-164.5 -46t-205 -12q-80 0 -131 6 q-12 -35 -12 -68q0 -25 16 -69q45 8 127 8q281 0 430 -79t149 -284q0 -203 -149.5 -282.5t-430 -79.5t-431 79.5t-150.5 282.5zM424 -66q0 -72 44 -103.5t167 -31.5t167 31t44 104q0 74 -43 104t-168 30q-117 0 -164 -29t-47 -105zM471 752q0 -72 33 -100.5t131 -30.5 q94 0 128 28.5t34 102.5q0 68 -37 102.5t-125 34.5q-96 0 -130 -33.5t-34 -103.5z" />
<glyph unicode="h" horiz-adv-x="1327" d="M104 0v1491h383v-500q158 94 357 94q72 0 121 -5t102 -25.5t85 -57t52.5 -102.5t20.5 -160v-735h-383v664q0 150 -166 149q-96 0 -189 -68v-745h-383z" />
<glyph unicode="i" horiz-adv-x="591" d="M104 0v1065h383v-1065h-383zM104 1241v250h383v-250h-383z" />
<glyph unicode="j" horiz-adv-x="591" d="M-174 -383l27 217q82 -16 127 -18q55 0 89.5 32.5t34.5 94.5v1122h383v-1120q0 -371 -401 -371q-154 0 -260 43zM104 1241v250h383v-250h-383z" />
<glyph unicode="k" horiz-adv-x="1220" d="M104 0v1491h383v-877h17l262 451h446l-372 -490l377 -575h-435l-280 512h-15v-512h-383z" />
<glyph unicode="l" horiz-adv-x="591" d="M104 0v1597h383v-1597h-383z" />
<glyph unicode="m" horiz-adv-x="1873" d="M104 0v1065h369v-119q74 53 184.5 96t192.5 43q111 0 167 -29.5t87 -101.5q78 53 190.5 92t194.5 39q174 0 227 -71.5t53 -251.5v-762h-368v694q0 115 -109 115q-76 0 -164 -64v-745h-368v694q0 115 -115 115q-37 0 -86 -22.5t-86 -53.5v-733h-369z" />
<glyph unicode="n" horiz-adv-x="1327" d="M104 0v1065h383v-74q80 35 202 64.5t226 29.5q166 0 238 -96t72 -307v-682h-383v645q0 94 -40 131t-126 37q-100 0 -189 -63v-750h-383z" />
<glyph unicode="o" horiz-adv-x="1251" d="M57 436v191q0 225 142.5 340.5t418.5 115.5t425 -116.5t149 -339.5v-191q0 -223 -148.5 -341t-425.5 -118q-274 0 -417.5 117t-143.5 342zM428 420q0 -104 43 -159.5t147.5 -55.5t146.5 56t42 159v221q0 217 -189 217q-94 0 -142 -59.5t-48 -157.5v-221z" />
<glyph unicode="p" horiz-adv-x="1282" d="M104 -426v1491h383v-70q156 100 318 101q199 0 302 -131t103 -433q0 -297 -102 -424.5t-303 -127.5q-39 0 -76 5t-60.5 9t-56 17.5t-45 18.5t-44 21.5t-36.5 18.5v-496h-383zM487 281q86 -29 150 -29q72 0 129 60.5t57 219.5q0 158 -57 220.5t-162 62.5q-47 0 -117 -31 v-503z" />
<glyph unicode="q" horiz-adv-x="1282" d="M72 532q0 291 114.5 422t386.5 131q293 0 605 -38v-1473h-383v496q-162 -90 -291 -90q-225 0 -328.5 132.5t-103.5 419.5zM459 532q0 -164 57 -223t162 -59q53 0 117 31v516q-49 18 -117 18q-219 0 -219 -283z" />
<glyph unicode="r" horiz-adv-x="921" d="M104 0v1065h383v-123q111 143 283 143h90l35 -309h-152q-98 0 -177 -88t-79 -188v-500h-383z" />
<glyph unicode="s" horiz-adv-x="1153" d="M61 768q0 317 541 317q219 0 451 -59l-39 -225q-217 53 -414 53q-156 0 -156 -86q0 -33 16.5 -45t65.5 -21q111 -16 173.5 -29.5t149.5 -44t132 -67.5t80 -102.5t35 -149.5q0 -193 -119 -261t-377 -68q-274 0 -537 55l31 227q319 -55 463 -55q96 2 125 16.5t29 47 t-18.5 46t-78.5 27.5q-37 10 -101 24.5t-101 24.5t-91.5 27.5t-85 35t-69.5 47t-57.5 65.5t-33 87.5t-14.5 112.5z" />
<glyph unicode="t" horiz-adv-x="868" d="M29 807v258h137v262l383 37v-299h278v-258h-278v-434q0 -135 106 -135q70 0 179 20l40 -238q-147 -41 -319 -40q-205 0 -297 71.5t-92 251.5v504h-137z" />
<glyph unicode="u" horiz-adv-x="1327" d="M104 291v774h383v-645q0 -168 154 -168q113 0 201 61v752h383v-1065h-383v74q-233 -94 -441 -94q-150 0 -223.5 85t-73.5 226z" />
<glyph unicode="v" horiz-adv-x="1247" d="M20 1065h418l183 -793h34l181 793h391l-336 -1065h-531z" />
<glyph unicode="w" horiz-adv-x="1869" d="M23 1065h364l154 -793h14l205 793h352l215 -795h12l148 795h358l-282 -1065h-449l-178 723l-182 -723h-449z" />
<glyph unicode="x" horiz-adv-x="1230" d="M20 0l316 537l-316 528h414l182 -387l207 387h387l-336 -528l336 -537h-413l-181 408l-206 -408h-390z" />
<glyph unicode="y" horiz-adv-x="1286" d="M16 1065h412l213 -844h23l204 844h398l-359 -1126q-88 -188 -153 -269q-135 -170 -353 -170q-154 0 -366 66l55 268q162 -51 260 -51q66 0 109 19.5t73 80.5l52 119q-70 0 -157 56.5t-118 146.5z" />
<glyph unicode="z" horiz-adv-x="1075" d="M57 0v184l482 602h-463v279h907v-184l-465 -600h496v-281h-957z" />
<glyph unicode="{" horiz-adv-x="1060" d="M131 459v342h107q29 0 47 20.5t18 55.5v352q0 197 119 282.5t342 85.5h166v-340h-139q-78 0 -78 -77v-359q0 -61 -53.5 -113.5t-106.5 -70.5q57 -31 109.5 -97.5t52.5 -146.5v-377q0 -76 78 -75h137v-347h-166q-461 0 -461 367v420q0 37 -18.5 57.5t-42.5 20.5h-111z" />
<glyph unicode="|" horiz-adv-x="675" d="M131 -535v2132h414v-2132h-414z" />
<glyph unicode="}" horiz-adv-x="1060" d="M131 -59h139q78 0 78 75v400q0 133 162 221q-53 18 -107.5 70.5t-54.5 113.5v359q0 78 -78 77h-139v340h168q223 0 342 -86t119 -282v-352q0 -35 18.5 -55.5t44.5 -20.5h107v-342h-109q-25 0 -43 -20.5t-18 -57.5v-420q0 -367 -461 -367h-168v347z" />
<glyph unicode="~" horiz-adv-x="1583" d="M162 936q4 4 35.5 28.5t49 37t53.5 35t63.5 34.5t66.5 22.5t74 10.5q119 0 279.5 -57.5t263.5 -57.5q25 0 54 7.5t53 15.5t55.5 25.5t47 25.5t41.5 27l29 18l156 -328q-4 -4 -30 -30.5t-44 -43t-53 -43t-65.5 -43t-75 -27.5t-89.5 -11q-133 0 -293.5 57t-246.5 57 q-135 0 -303 -94z" />
<glyph unicode="&#xa3;" horiz-adv-x="1884" d="M162 260q88 47 196 80v319h-122v246h122v119q0 244 175.5 365.5t457.5 121.5q111 0 236 -20.5t186.5 -37.5t83.5 -28l-74 -282q-2 4 -73.5 18.5t-179 29.5t-179.5 15q-98 0 -159.5 -54t-61.5 -165v-82h518v-246h-518v-282q39 0 117 -8q35 -6 144.5 -43t182.5 -37 q119 0 351 108l129 -256q-215 -162 -480 -161q-125 0 -284.5 52t-280.5 52q-80 0 -197.5 -24.5t-201.5 -63.5z" />
<glyph unicode="&#xa8;" horiz-adv-x="1026" d="M111 1212v324h338v-324h-338zM575 1212v324h340v-324h-340z" />
<glyph unicode="&#xa9;" horiz-adv-x="2201" d="M131 543.5q0 449.5 238.5 708.5t731 259t731.5 -259t239 -708.5t-239 -709.5t-731.5 -260t-731 260t-238.5 709.5zM451 545q0 -705 651 -705q334 0 491.5 157t157.5 548q0 373 -153.5 541.5t-495.5 168.5q-651 1 -651 -710zM678 457v170q0 233 130 341.5t353 108.5 q135 0 285 -47l-47 -242q-33 12 -111 26.5t-127 14.5q-102 0 -149 -50t-47 -154v-166q0 -100 45 -149.5t151 -49.5q47 0 131 13.5t115 25.5l39 -240q-131 -49 -285 -49q-483 1 -483 447z" />
<glyph unicode="&#xab;" horiz-adv-x="1304" d="M131 553l281 446h321l-239 -444l237 -444h-336zM602 553l281 446h321l-239 -444l237 -444h-336z" />
<glyph unicode="&#xad;" horiz-adv-x="901" d="M131 526v310h639v-310h-639z" />
<glyph unicode="&#xae;" horiz-adv-x="1320" d="M129 1051q0 217 116.5 338.5t349 121.5t348.5 -121.5t116 -338.5q0 -219 -115 -341t-349.5 -122t-350 122t-115.5 341zM299 1049q0 -324 295 -324q156 0 228.5 70.5t72.5 253.5q0 174 -71.5 251.5t-229.5 77.5q-295 1 -295 -329zM424 823v461h176q102 0 147.5 -33.5 t45.5 -117.5q0 -119 -93 -127l113 -183h-135l-92 178h-43v-178h-119zM543 1071h61q68 0 68 61.5t-68 61.5h-61v-123z" />
<glyph unicode="&#xb0;" horiz-adv-x="1226" d="M131 1045.5q0 197.5 142.5 340t340 142.5t340 -142.5t142.5 -340t-142.5 -339t-340 -141.5t-340 141.5t-142.5 339zM424 1045.5q0 -78.5 54 -134t135 -55.5t135.5 55.5t54.5 134t-54.5 134t-135.5 55.5t-135 -55.5t-54 -134z" />
<glyph unicode="&#xb4;" horiz-adv-x="641" d="M111 1206l26 391h387l-182 -428z" />
<glyph unicode="&#xbb;" horiz-adv-x="1304" d="M131 999h324l278 -446l-264 -442h-334l236 444zM602 999h322l280 -446l-264 -442h-336l238 444z" />
<glyph unicode="&#x2c6;" horiz-adv-x="1050" d="M162 1241l198 324h332l213 -324h-295l-78 195l-75 -195h-295z" />
<glyph unicode="&#x2da;" horiz-adv-x="591" d="M-483 609.5q0 197.5 142.5 340t340 142.5t340 -142.5t142.5 -340t-142.5 -339t-340 -141.5t-340 141.5t-142.5 339zM-190 609.5q0 -78.5 54 -134t135 -55.5t135.5 55.5t54.5 134t-54.5 134t-135.5 55.5t-135 -55.5t-54 -134z" />
<glyph unicode="&#x2dc;" horiz-adv-x="1150" d="M141 1475q154 123 293 122q78 0 166 -53t141 -53q33 0 64 9t47 19.5t47 32t43 27.5l90 -172q-137 -154 -291 -154q-84 0 -173 54.5t-134 54.5q-33 0 -68.5 -9.5t-57 -17.5t-54.5 -25.5t-45 -21.5z" />
<glyph unicode="&#x400;" horiz-adv-x="1224" d="M490 2062h387l26 -385l-262 -36zM131 0v1491h1018v-315h-604v-265h487v-309h-487v-287h604v-315h-1018z" />
<glyph unicode="&#x401;" horiz-adv-x="1253" d="M131 0v1491h1018v-315h-604v-265h487v-309h-487v-287h604v-315h-1018zM244 1638v324h338v-324h-338zM709 1638v324h340v-324h-340z" />
<glyph unicode="&#x403;" horiz-adv-x="1163" d="M396 1677l26 391h387l-182 -428zM131 0v1491h991v-365h-577v-1126h-414z" />
<glyph unicode="&#x405;" horiz-adv-x="1370" d="M78 1073q0 438 602 438q285 0 563 -63l-41 -311q-281 70 -497 69q-211 0 -211 -102q0 -90 131 -133q57 -16 137 -39t129 -36t111.5 -35.5t99.5 -44t79 -57.5t64.5 -80t35.5 -105.5t13 -141.5q0 -453 -614 -452q-344 0 -590 90l41 311q119 -31 283 -56.5t266 -25.5 q203 0 203 102q0 61 -34 93t-118 57q-53 16 -132 36.5t-125 33t-108.5 35t-99.5 44t-76.5 56.5t-61.5 76.5t-36 103t-14 137.5z" />
<glyph unicode="&#x406;" horiz-adv-x="919" d="M43 1174v317h819v-317h-205v-857h220v-317h-820v317h189v857h-203z" />
<glyph unicode="&#x407;" horiz-adv-x="919" d="M52 1640v324h338v-324h-338zM516 1640v324h340v-324h-340zM43 1174v317h819v-317h-205v-857h220v-317h-820v317h189v857h-203z" />
<glyph unicode="&#x408;" horiz-adv-x="1101" d="M37 41l49 326q111 -55 231 -56q240 0 240 211v969h414v-1008q0 -268 -136.5 -385.5t-426.5 -117.5q-207 0 -371 61z" />
<glyph unicode="&#x40c;" horiz-adv-x="1458" d="M545 1677l26 391h387l-182 -428zM131 0v1491h414v-637h33l370 637h475l-456 -686l469 -805h-461l-395 713h-35v-713h-414z" />
<glyph unicode="&#x40d;" horiz-adv-x="1607" d="M652 2062h387l26 -385l-262 -36zM131 0v1491h414v-877l598 877h334v-1491h-414v877l-598 -877h-334z" />
<glyph unicode="&#x410;" horiz-adv-x="1591" d="M70 0l473 1491h520l459 -1491h-435l-77 295h-424l-82 -295h-434zM643 567h311l-147 541z" />
<glyph unicode="&#x411;" horiz-adv-x="1388" d="M131 0v1491h1051v-317h-637v-252h315q233 0 334.5 -112t101.5 -347q0 -231 -99 -347t-341 -116h-725zM545 285h192q160 0 160 177t-160 177h-192v-354z" />
<glyph unicode="&#x412;" horiz-adv-x="1343" d="M131 0v1491h676q190 0 297.5 -83t107.5 -290q0 -233 -178 -301q106 -33 170 -114.5t64 -262.5q0 -229 -101.5 -334.5t-339.5 -105.5h-696zM530 272h193q74 0 117 49.5t43 135.5q0 82 -47.5 130t-112.5 48h-193v-363zM530 907h172q51 0 88 45t37 121q0 66 -32.5 106 t-92.5 40h-172v-312z" />
<glyph unicode="&#x413;" horiz-adv-x="1163" d="M131 0v1491h991v-365h-577v-1126h-414z" />
<glyph unicode="&#x414;" horiz-adv-x="1708" d="M43 317h145q166 266 166 1174h1106v-1174h172l-35 -743h-378v426h-762l-23 -426h-391v743zM586 317h463v826h-312q-8 -186 -16 -289.5t-42 -271t-93 -265.5z" />
<glyph unicode="&#x415;" horiz-adv-x="1224" d="M131 0v1491h1018v-315h-604v-265h487v-309h-487v-287h604v-315h-1018z" />
<glyph unicode="&#x416;" horiz-adv-x="2019" d="M37 1491h438l293 -635h37v635h414v-635h34l293 635h439l-375 -690l370 -801h-424l-307 741h-30v-741h-414v741h-37l-305 -741h-424l373 801z" />
<glyph unicode="&#x417;" horiz-adv-x="1296" d="M76 53l49 301q25 -4 103.5 -24.5t148 -32.5t139.5 -12q139 0 207 36.5t68 129.5q0 115 -84 152.5t-263 37.5h-161v258h235q205 0 205 156q0 78 -48 114.5t-157 36.5q-131 0 -366 -63l-56 301q182 68 441 67q313 0 449 -78.5t136 -291.5q0 -137 -54 -212t-157 -108 q147 -41 221 -128t74 -269q0 -111 -32.5 -191.5t-87 -129t-144.5 -77t-189.5 -37.5t-236.5 -9q-133 0 -261 25t-179 48z" />
<glyph unicode="&#x418;" horiz-adv-x="1607" d="M131 0v1491h414v-877l598 877h334v-1491h-414v877l-598 -877h-334z" />
<glyph unicode="&#x419;" horiz-adv-x="1607" d="M131 0v1491h414v-877l598 877h334v-1491h-414v877l-598 -877h-334zM319 1853v52h295q0 -127 195 -127q203 0 203 127h291v-52q0 -68 -31 -117.5t-76 -77.5t-115.5 -44.5t-131 -20.5t-140.5 -4q-76 0 -137.5 4t-130 20.5t-114.5 44.5t-77 77.5t-31 117.5z" />
<glyph unicode="&#x41a;" horiz-adv-x="1458" d="M131 0v1491h414v-637h33l370 637h475l-456 -686l469 -805h-461l-395 713h-35v-713h-414z" />
<glyph unicode="&#x41b;" horiz-adv-x="1613" d="M29 324h6q6 -2 12 -2q70 0 122 36.5t84 113.5t51.5 160t27.5 210t12 227t6 248q0 117 2 174h1131v-1491h-414v1128h-344q-8 -231 -23.5 -399t-49.5 -316.5t-88 -239.5t-140 -142t-201 -51q-76 0 -145 16z" />
<glyph unicode="&#x41c;" horiz-adv-x="2056" d="M90 0l121 1491h496l311 -1026l4 -107h8l10 107l310 1026h497l121 -1491h-399l-37 967v118h-8l-13 -116l-297 -969h-368l-299 969l-8 116h-9v-116l-43 -969h-397z" />
<glyph unicode="&#x41d;" horiz-adv-x="1611" d="M131 0v1491h414v-549h522v549h414v-1491h-414v625h-522v-625h-414z" />
<glyph unicode="&#x41e;" horiz-adv-x="1570" d="M76 567v342q0 305 189.5 453.5t521 148.5t520 -148.5t188.5 -453.5v-342q0 -305 -186.5 -446t-523 -141t-523 141t-186.5 446zM508 616q0 -319 278 -319q152 0 215.5 83t63.5 236v256q0 322 -278.5 322t-278.5 -322v-256z" />
<glyph unicode="&#x41f;" horiz-adv-x="1624" d="M131 0v1491h1362v-1491h-414v1143h-534v-1143h-414z" />
<glyph unicode="&#x420;" horiz-adv-x="1402" d="M131 0v1491h561q342 0 488.5 -122t146.5 -420t-147.5 -423t-487.5 -125h-147v-401h-414zM545 717h147q106 0 161.5 49t55.5 186q0 125 -52 172t-165 47h-147v-454z" />
<glyph unicode="&#x421;" horiz-adv-x="1216" d="M76 596v299q0 313 184 464.5t485 151.5q96 0 216 -25.5t180 -43.5l-70 -328q-39 14 -150.5 35.5t-175.5 21.5q-123 0 -188 -77.5t-65 -204.5v-289q0 -123 62 -202t191 -79q63 0 183.5 21.5t156.5 36.5l56 -328q-59 -18 -179 -43.5t-217 -25.5q-303 0 -486 150.5 t-183 465.5z" />
<glyph unicode="&#x422;" horiz-adv-x="1239" d="M35 1124v367h1171v-367h-379v-1124h-413v1124h-379z" />
<glyph unicode="&#x423;" horiz-adv-x="1443" d="M20 1491h480l262 -848h12l223 848h426l-381 -1155q-80 -190 -227 -273t-313 -83q-231 0 -428 55l71 295q143 -47 258 -47q190 0 236 120q-66 2 -155 49.5t-134 149.5z" />
<glyph unicode="&#x424;" horiz-adv-x="1992" d="M76 731v113q0 305 156.5 442t492.5 137h66v146h413v-146h66q334 0 490.5 -137t156.5 -442v-113q0 -301 -157.5 -439t-489.5 -138h-66v-154h-413v154h-66q-336 0 -492.5 138t-156.5 439zM492 725q0 -154 52 -218.5t181 -64.5h66v691h-66q-129 0 -181 -67t-52 -216v-125z M1204 442h66q125 0 178 65.5t53 217.5v125q0 150 -52 216.5t-179 66.5h-66v-691z" />
<glyph unicode="&#x425;" horiz-adv-x="1525" d="M20 0l441 770l-441 721h498l268 -557l244 557h475l-391 -723l391 -768h-497l-222 618l-292 -618h-474z" />
<glyph unicode="&#x426;" horiz-adv-x="1681" d="M131 0v1491h414v-1174h477v1174h414v-1174h172l-23 -636h-393v319h-1061z" />
<glyph unicode="&#x427;" horiz-adv-x="1443" d="M90 907v584h412v-553q0 -90 42 -127t128 -37q98 0 227 10v707h414v-1491h-414v451q-137 -12 -256 -13q-63 0 -121.5 6.5t-141.5 35t-143.5 74.5t-103.5 138t-43 215z" />
<glyph unicode="&#x428;" horiz-adv-x="2082" d="M131 0v1491h414v-1174h291v1174h411v-1174h291v1174h414v-1491h-1821z" />
<glyph unicode="&#x429;" horiz-adv-x="2197" d="M131 0v1491h414v-1174h291v1174h411v-1174h291v1174h414v-1174h170l-25 -636h-389v319h-1577z" />
<glyph unicode="&#x42a;" horiz-adv-x="1568" d="M29 1192l30 299h652v-539q184 18 260 19q274 0 398 -122t124 -366q0 -258 -145.5 -370.5t-489.5 -112.5h-559v1192h-270zM711 272h147q115 0 167 45t52 164t-54 165t-165 46q-78 0 -147 -8v-412z" />
<glyph unicode="&#x42b;" horiz-adv-x="2031" d="M131 0h561q342 0 488.5 112.5t146.5 370.5q0 244 -124 366t-398 122q-127 0 -260 -19v539h-414v-1491zM545 272v412q70 8 147 8q111 0 164 -46t53 -165q0 -121 -52 -165t-165 -44h-147zM1487 0v1491h414v-1491h-414z" />
<glyph unicode="&#x42c;" horiz-adv-x="1402" d="M131 0v1491h414v-539q145 18 260 19q274 0 398 -122t124 -366q0 -258 -146.5 -370.5t-488.5 -112.5h-561zM545 272h147q113 0 165 44t52 165q0 119 -53 165t-164 46q-78 0 -147 -8v-412z" />
<glyph unicode="&#x42d;" horiz-adv-x="1277" d="M49 49l68 320q76 -20 201.5 -39t213.5 -19q252 0 252 283v43h-534v258h534v33q0 266 -245 266q-76 0 -216.5 -22.5t-205.5 -49.5l-68 320q39 16 189.5 42.5t293.5 26.5q141 0 257 -32.5t211.5 -102t148.5 -192.5t53 -289v-299q0 -313 -187.5 -464.5t-482.5 -151.5 q-131 0 -284.5 26.5t-198.5 42.5z" />
<glyph unicode="&#x42e;" horiz-adv-x="2058" d="M131 0v1491h414v-600h192v110q0 252 169 381t454 129q289 0 455.5 -142t166.5 -443v-396q0 -299 -163.5 -424.5t-458.5 -125.5q-623 0 -623 491v147h-192v-618h-414zM1137 514q0 -111 59 -172t164 -61q106 0 164.5 61t58.5 172v467q0 109 -61.5 169t-161.5 60 t-161.5 -61.5t-61.5 -167.5v-467z" />
<glyph unicode="&#x42f;" horiz-adv-x="1531" d="M109 983q0 229 152.5 368.5t479.5 139.5h660v-1491h-412v459h-141l-260 -459h-453l320 502q-172 35 -259 161.5t-87 319.5zM524 952q0 -207 217 -207h248v412h-248q-217 0 -217 -205z" />
<glyph unicode="&#x430;" horiz-adv-x="1210" d="M72 309q0 162 99 230.5t302 68.5h256v78q0 76 -38 109.5t-138 33.5q-158 0 -391 -49l-41 240q281 66 452 65q266 0 400.5 -94t134.5 -307v-684h-383v70q-131 -90 -317 -90q-336 -1 -336 329zM459 315q0 -59 32.5 -85.5t106.5 -26.5q43 0 127 30v189h-143q-55 0 -89 -31 t-34 -76z" />
<glyph unicode="&#x431;" horiz-adv-x="1310" d="M84 535v358q0 487 500 592l313 63q123 27 246 80l98 -309q-117 -72 -287 -86l-286 -25q-119 -12 -178.5 -95t-59.5 -187v-123q33 80 132.5 140.5t254.5 60.5q195 0 305.5 -95.5t110.5 -337.5v-120q0 -473 -576 -474q-289 0 -431 128.5t-142 429.5zM469 461 q0 -219 189.5 -219t189.5 219v88q0 104 -48 149t-143 45q-188 0 -188 -213v-69z" />
<glyph unicode="&#x432;" horiz-adv-x="1210" d="M104 0v1065h654q180 0 252.5 -59.5t72.5 -202.5q0 -156 -180 -205q53 -6 90 -16.5t78 -37t62.5 -78.5t21.5 -132q0 -188 -103.5 -261t-363.5 -73h-584zM459 227h184q80 0 118 27t38 96q0 57 -39 83t-125 26h-176v-232zM459 645h166q104 0 104 103q0 92 -104 92h-166v-195 z" />
<glyph unicode="&#x433;" horiz-adv-x="958" d="M104 0v1065h826v-291h-443v-774h-383z" />
<glyph unicode="&#x434;" horiz-adv-x="1466" d="M43 258h104q152 160 152 807h967v-807h125l-21 -598h-334v340h-641l-18 -340h-334v598zM537 258h346v580h-238q1 -369 -108 -580z" />
<glyph unicode="&#x435;" horiz-adv-x="1212" d="M72 416v164q0 258 134 381.5t415 123.5q537 0 536 -423v-238h-698v-37q0 -158 174 -158q268 0 454 50l39 -248q-246 -51 -493 -51q-561 0 -561 436zM459 637h342v43q0 78 -49.5 126t-130.5 48q-162 0 -162 -184v-33z" />
<glyph unicode="&#x436;" horiz-adv-x="1753" d="M20 1065h394l254 -471h26v471h369v-471h27l243 471h402l-305 -514l299 -551h-394l-245 516h-27v-516h-369v512h-24l-260 -512h-387l319 551z" />
<glyph unicode="&#x437;" horiz-adv-x="1146" d="M72 43l45 229q141 -39 276 -39q162 0 228.5 21.5t66.5 89.5q0 59 -43 77.5t-133 18.5h-307v209h268q150 0 150 107q0 49 -53.5 65.5t-176.5 16.5q-117 0 -270 -41l-45 231q182 55 452 55q231 0 355.5 -55t124.5 -197q0 -158 -183 -206q55 -14 93 -28.5t81 -45.5t64.5 -84 t21.5 -129q0 -197 -160.5 -276.5t-467.5 -79.5q-229 0 -387 61z" />
<glyph unicode="&#x438;" horiz-adv-x="1363" d="M104 0v1065h383v-600l439 600h336v-1065h-385v598l-437 -598h-336z" />
<glyph unicode="&#x439;" horiz-adv-x="1363" d="M104 0v1065h383v-600l439 600h336v-1065h-385v598l-437 -598h-336zM180 1524v41h295q0 -27 6 -46.5t25.5 -41t64.5 -32.5t113 -11q209 0 209 131h293v-41q0 -88 -44 -150.5t-121 -95.5t-159 -45t-178 -12t-178 12t-159 45t-122 95.5t-45 150.5z" />
<glyph unicode="&#x43a;" horiz-adv-x="1236" d="M104 0v1065h383v-461h17l284 461h439l-381 -492l385 -573h-428l-301 504h-15v-504h-383z" />
<glyph unicode="&#x43b;" horiz-adv-x="1376" d="M29 264q18 0 45.5 -1t44.5 -1q96 0 141 194.5t45 608.5h969v-1065h-383v821h-256q0 -104 -2 -175t-10.5 -167t-25.5 -160.5t-47 -133t-73 -109.5t-107.5 -67.5t-146.5 -26.5q-84 0 -162 18z" />
<glyph unicode="&#x43c;" horiz-adv-x="1761" d="M90 0l86 1065h445l260 -741l258 741h446l86 -1065h-342l-18 725l-291 -725h-307l-264 725l-19 -725h-340z" />
<glyph unicode="&#x43d;" horiz-adv-x="1357" d="M104 0v1065h383v-393h383v393h385v-1065h-385v416h-383v-416h-383z" />
<glyph unicode="&#x43e;" horiz-adv-x="1251" d="M57 436v191q0 225 142.5 340.5t418.5 115.5t425 -116.5t149 -339.5v-191q0 -223 -148.5 -341t-425.5 -118q-274 0 -417.5 117t-143.5 342zM428 420q0 -104 43 -159.5t147.5 -55.5t146.5 56t42 159v221q0 217 -189 217q-94 0 -142 -59.5t-48 -157.5v-221z" />
<glyph unicode="&#x43f;" horiz-adv-x="1351" d="M104 0v1065h1143v-1065h-383v807h-377v-807h-383z" />
<glyph unicode="&#x440;" horiz-adv-x="1282" d="M104 -426v1491h383v-70q156 100 318 101q199 0 302 -131t103 -433q0 -297 -102 -424.5t-303 -127.5q-39 0 -76 5t-60.5 9t-56 17.5t-45 18.5t-44 21.5t-36.5 18.5v-496h-383zM487 281q86 -29 150 -29q72 0 129 60.5t57 219.5q0 158 -57 220.5t-162 62.5q-47 0 -117 -31 v-503z" />
<glyph unicode="&#x441;" horiz-adv-x="1013" d="M72 451v157q0 219 158.5 349t398.5 130q193 0 358 -65l-51 -266q-29 12 -105.5 32.5t-123.5 20.5q-119 0 -176.5 -51t-57.5 -178v-99q0 -127 56.5 -176t177.5 -49q23 0 42 2t33.5 4t37 7t32.5 8.5t40 13.5t44 14l51 -266q-156 -57 -358 -57q-248 0 -402.5 116.5 t-154.5 352.5z" />
<glyph unicode="&#x442;" horiz-adv-x="1144" d="M43 774v291h1061v-291h-338v-774h-383v774h-340z" />
<glyph unicode="&#x443;" horiz-adv-x="1286" d="M16 1065h412l213 -844h23l204 844h398l-359 -1126q-88 -188 -153 -269q-135 -170 -353 -170q-154 0 -366 66l55 268q162 -51 260 -51q66 0 109 19.5t73 80.5l52 119q-70 0 -157 56.5t-118 146.5z" />
<glyph unicode="&#x444;" horiz-adv-x="1871" d="M57 539q0 260 114 403t351 143q49 0 120 -14t101 -29v449h383v-449q33 14 105 28.5t117 14.5q465 0 464 -546q0 -559 -464 -559q-47 0 -119 14t-103 29v-449h-383v449q-31 -14 -101.5 -28.5t-119.5 -14.5q-465 0 -465 559zM442 539q0 -164 64.5 -241t167.5 -79 q18 0 69 17v591q-51 16 -69 17q-113 0 -172.5 -80t-59.5 -225zM1126 236q45 -16 68 -17q233 0 233 320q0 305 -233 305q-27 0 -68 -17v-591z" />
<glyph unicode="&#x445;" horiz-adv-x="1228" d="M20 0l316 537l-316 528h414l182 -387l207 387h387l-336 -528l336 -537h-413l-181 408l-206 -408h-390z" />
<glyph unicode="&#x446;" horiz-adv-x="1409" d="M104 0v1065h383v-807h342v807h383v-807h127l-24 -598h-359v340h-852z" />
<glyph unicode="&#x447;" horiz-adv-x="1271" d="M84 750v315h383v-385q0 -90 32.5 -127t116.5 -37q59 0 170 16v533h383v-1065h-383v305q-170 -27 -292 -26q-213 0 -311.5 108.5t-98.5 362.5z" />
<glyph unicode="&#x448;" horiz-adv-x="1843" d="M104 0v1065h369v-807h272v807h355v-807h272v807h369v-1065h-1637z" />
<glyph unicode="&#x449;" horiz-adv-x="1937" d="M104 0v1065h369v-807h272v807h355v-807h272v807h369v-807h127l-23 -598h-360v340h-1381z" />
<glyph unicode="&#x44a;" horiz-adv-x="1427" d="M29 829l28 236h629v-332q184 8 242 8q225 0 326.5 -77.5t101.5 -286.5q0 -219 -140.5 -298t-418.5 -79h-494v829h-274zM686 221h143q141 0 142 156q0 147 -154 147h-131v-303z" />
<glyph unicode="&#x44b;" horiz-adv-x="1779" d="M104 0v1065h383v-332q188 8 246 8q221 0 323.5 -77.5t102.5 -286.5q0 -219 -139 -298t-420 -79h-496zM487 221h144q143 0 143 156q0 147 -153 147h-134v-303zM1292 0v1065h383v-1065h-383z" />
<glyph unicode="&#x44c;" horiz-adv-x="1230" d="M104 0v1065h383v-332q188 8 246 8q221 0 323.5 -77.5t102.5 -286.5q0 -219 -139 -298t-420 -79h-496zM487 221h144q143 0 143 156q0 147 -153 147h-134v-303z" />
<glyph unicode="&#x44d;" horiz-adv-x="1081" d="M57 49l54 240q150 -51 258 -51q131 0 191.5 31.5t60.5 131.5v31h-406v205h406v39q0 90 -61.5 118.5t-190.5 28.5q-96 0 -244 -49l-53 238q186 74 391 73q248 0 396.5 -117.5t148.5 -359.5v-159q0 -238 -148.5 -353.5t-396.5 -115.5q-220 -1 -406 69z" />
<glyph unicode="&#x44e;" horiz-adv-x="1845" d="M104 0v1065h355v-428h186v51q0 188 164 291.5t399 103.5q260 0 413 -114.5t153 -358.5v-159q0 -242 -153 -358t-413 -116q-225 0 -393 106.5t-168 295.5v31h-188v-410h-355zM1022 422q0 -180 186 -180q182 0 183 180v196q0 104 -41 153.5t-142 49.5q-186 0 -186 -203 v-196z" />
<glyph unicode="&#x44f;" horiz-adv-x="1304" d="M66 690q0 195 115.5 285t361.5 90h659v-1065h-385v338h-117l-219 -338h-413l270 369q-123 12 -197.5 79.5t-74.5 241.5zM465 692q2 -76 39 -111.5t125 -35.5h188v299h-188q-164 0 -164 -152z" />
<glyph unicode="&#x450;" horiz-adv-x="1212" d="M469 1636h387l26 -385l-262 -36zM72 416v164q0 258 134 381.5t415 123.5q537 0 536 -423v-238h-698v-37q0 -158 174 -158q268 0 454 50l39 -248q-246 -51 -493 -51q-561 0 -561 436zM459 637h342v43q0 78 -49.5 126t-130.5 48q-162 0 -162 -184v-33z" />
<glyph unicode="&#x451;" horiz-adv-x="1212" d="M72 416v164q0 258 134 381.5t415 123.5q537 0 536 -423v-238h-698v-37q0 -158 174 -158q268 0 454 50l39 -248q-246 -51 -493 -51q-561 0 -561 436zM203 1212v324h338v-324h-338zM459 637h342v43q0 78 -49.5 126t-130.5 48q-162 0 -162 -184v-33zM670 1212v324h340v-324 h-340z" />
<glyph unicode="&#x453;" horiz-adv-x="958" d="M285 1249l26 391h387l-182 -428zM104 0v1065h826v-291h-443v-774h-383z" />
<glyph unicode="&#x455;" horiz-adv-x="1153" d="M61 768q0 317 541 317q219 0 451 -59l-39 -225q-217 53 -414 53q-156 0 -156 -86q0 -33 16.5 -45t65.5 -21q111 -16 173.5 -29.5t149.5 -44t132 -67.5t80 -102.5t35 -149.5q0 -193 -119 -261t-377 -68q-274 0 -537 55l31 227q319 -55 463 -55q96 2 125 16.5t29 47 t-18.5 46t-78.5 27.5q-37 10 -101 24.5t-101 24.5t-91.5 27.5t-85 35t-69.5 47t-57.5 65.5t-33 87.5t-14.5 112.5z" />
<glyph unicode="&#x456;" horiz-adv-x="591" d="M104 0v1065h383v-1065h-383zM104 1241v250h383v-250h-383z" />
<glyph unicode="&#x457;" horiz-adv-x="591" d="M-106 1620v324h338v-324h-338zM358 1620v324h340v-324h-340zM104 0v1065h383v-1065h-383zM104 1241v250h383v-250h-383z" />
<glyph unicode="&#x458;" horiz-adv-x="591" d="M-174 -383l27 217q82 -16 127 -18q55 0 89.5 32.5t34.5 94.5v1122h383v-1120q0 -371 -401 -371q-154 0 -260 43zM104 1241v250h383v-250h-383z" />
<glyph unicode="&#x45c;" horiz-adv-x="1236" d="M435 1249l26 391h387l-182 -428zM104 0v1065h383v-461h17l284 461h439l-381 -492l385 -573h-428l-301 504h-15v-504h-383z" />
<glyph unicode="&#x45d;" horiz-adv-x="1363" d="M533 1634h387l26 -385l-262 -36zM104 0v1065h383v-600l439 600h336v-1065h-385v598l-437 -598h-336z" />
<glyph unicode="&#x4ae;" horiz-adv-x="1437" d="M20 1491h453l240 -676l252 676h452l-491 -1026v-465h-412v463z" />
<glyph unicode="&#x4c0;" horiz-adv-x="919" d="M43 1174v317h819v-317h-205v-857h220v-317h-820v317h189v857h-203z" />
<glyph unicode="&#x4d2;" horiz-adv-x="1591" d="M400 1640v324h338v-324h-338zM864 1640v324h340v-324h-340zM70 0l473 1491h520l459 -1491h-435l-77 295h-424l-82 -295h-434zM643 567h311l-147 541z" />
<glyph unicode="&#x4d3;" horiz-adv-x="1210" d="M170 1214v324h338v-324h-338zM634 1214v324h340v-324h-340zM72 309q0 162 99 230.5t302 68.5h256v78q0 76 -38 109.5t-138 33.5q-158 0 -391 -49l-41 240q281 66 452 65q266 0 400.5 -94t134.5 -307v-684h-383v70q-131 -90 -317 -90q-336 -1 -336 329zM459 315 q0 -59 32.5 -85.5t106.5 -26.5q43 0 127 30v189h-143q-55 0 -89 -31t-34 -76z" />
<glyph unicode="&#x4dc;" horiz-adv-x="2019" d="M609 1640v324h338v-324h-338zM1073 1640v324h340v-324h-340zM37 1491h438l293 -635h37v635h414v-635h34l293 635h439l-375 -690l370 -801h-424l-307 741h-30v-741h-414v741h-37l-305 -741h-424l373 801z" />
<glyph unicode="&#x4dd;" horiz-adv-x="1753" d="M476 1212v324h338v-324h-338zM940 1212v324h340v-324h-340zM20 1065h394l254 -471h26v471h369v-471h27l243 471h402l-305 -514l299 -551h-394l-245 516h-27v-516h-369v512h-24l-260 -512h-387l319 551z" />
<glyph unicode="&#x4de;" horiz-adv-x="1296" d="M134 1640v324h338v-324h-338zM598 1640v324h340v-324h-340zM76 53l49 301q25 -4 103.5 -24.5t148 -32.5t139.5 -12q139 0 207 36.5t68 129.5q0 115 -84 152.5t-263 37.5h-161v258h235q205 0 205 156q0 78 -48 114.5t-157 36.5q-131 0 -366 -63l-56 301q182 68 441 67 q313 0 449 -78.5t136 -291.5q0 -137 -54 -212t-157 -108q147 -41 221 -128t74 -269q0 -111 -32.5 -191.5t-87 -129t-144.5 -77t-189.5 -37.5t-236.5 -9q-133 0 -261 25t-179 48z" />
<glyph unicode="&#x4df;" horiz-adv-x="1146" d="M127 1212v324h338v-324h-338zM591 1212v324h340v-324h-340zM72 43l45 229q141 -39 276 -39q162 0 228.5 21.5t66.5 89.5q0 59 -43 77.5t-133 18.5h-307v209h268q150 0 150 107q0 49 -53.5 65.5t-176.5 16.5q-117 0 -270 -41l-45 231q182 55 452 55q231 0 355.5 -55 t124.5 -197q0 -158 -183 -206q55 -14 93 -28.5t81 -45.5t64.5 -84t21.5 -129q0 -197 -160.5 -276.5t-467.5 -79.5q-229 0 -387 61z" />
<glyph unicode="&#x4e4;" horiz-adv-x="1607" d="M400 1640v324h338v-324h-338zM864 1640v324h340v-324h-340zM131 0v1491h414v-877l598 877h334v-1491h-414v877l-598 -877h-334z" />
<glyph unicode="&#x4e5;" horiz-adv-x="1363" d="M281 1212v324h338v-324h-338zM745 1212v324h340v-324h-340zM104 0v1065h383v-600l439 600h336v-1065h-385v598l-437 -598h-336z" />
<glyph unicode="&#x4e6;" horiz-adv-x="1570" d="M383 1640v324h338v-324h-338zM847 1640v324h340v-324h-340zM76 567v342q0 305 189.5 453.5t521 148.5t520 -148.5t188.5 -453.5v-342q0 -305 -186.5 -446t-523 -141t-523 141t-186.5 446zM508 616q0 -319 278 -319q152 0 215.5 83t63.5 236v256q0 322 -278.5 322 t-278.5 -322v-256z" />
<glyph unicode="&#x4e7;" horiz-adv-x="1251" d="M215 1212v324h338v-324h-338zM679 1212v324h340v-324h-340zM57 436v191q0 225 142.5 340.5t418.5 115.5t425 -116.5t149 -339.5v-191q0 -223 -148.5 -341t-425.5 -118q-274 0 -417.5 117t-143.5 342zM428 420q0 -104 43 -159.5t147.5 -55.5t146.5 56t42 159v221 q0 217 -189 217q-94 0 -142 -59.5t-48 -157.5v-221z" />
<glyph unicode="&#x4ec;" horiz-adv-x="1277" d="M129 1640v324h338v-324h-338zM593 1640v324h340v-324h-340zM49 49l68 320q76 -20 201.5 -39t213.5 -19q252 0 252 283v43h-534v258h534v33q0 266 -245 266q-76 0 -216.5 -22.5t-205.5 -49.5l-68 320q39 16 189.5 42.5t293.5 26.5q141 0 257 -32.5t211.5 -102 t148.5 -192.5t53 -289v-299q0 -313 -187.5 -464.5t-482.5 -151.5q-131 0 -284.5 26.5t-198.5 42.5z" />
<glyph unicode="&#x4ed;" horiz-adv-x="1081" d="M60 1214v324h338v-324h-338zM524 1214v324h340v-324h-340zM57 49l54 240q150 -51 258 -51q131 0 191.5 31.5t60.5 131.5v31h-406v205h406v39q0 90 -61.5 118.5t-190.5 28.5q-96 0 -244 -49l-53 238q186 74 391 73q248 0 396.5 -117.5t148.5 -359.5v-159 q0 -238 -148.5 -353.5t-396.5 -115.5q-220 -1 -406 69z" />
<glyph unicode="&#x4f0;" horiz-adv-x="1443" d="M320 1640v324h338v-324h-338zM784 1640v324h340v-324h-340zM20 1491h480l262 -848h12l223 848h426l-381 -1155q-80 -190 -227 -273t-313 -83q-231 0 -428 55l71 295q143 -47 258 -47q190 0 236 120q-66 2 -155 49.5t-134 149.5z" />
<glyph unicode="&#x4f1;" horiz-adv-x="1286" d="M238 1212v324h338v-324h-338zM702 1212v324h340v-324h-340zM16 1065h412l213 -844h23l204 844h398l-359 -1126q-88 -188 -153 -269q-135 -170 -353 -170q-154 0 -366 66l55 268q162 -51 260 -51q66 0 109 19.5t73 80.5l52 119q-70 0 -157 56.5t-118 146.5z" />
<glyph unicode="&#x4f4;" horiz-adv-x="1443" d="M299 1640v324h338v-324h-338zM763 1640v324h340v-324h-340zM90 907v584h412v-553q0 -90 42 -127t128 -37q98 0 227 10v707h414v-1491h-414v451q-137 -12 -256 -13q-63 0 -121.5 6.5t-141.5 35t-143.5 74.5t-103.5 138t-43 215z" />
<glyph unicode="&#x4f5;" horiz-adv-x="1271" d="M224 1212v324h338v-324h-338zM688 1212v324h340v-324h-340zM84 750v315h383v-385q0 -90 32.5 -127t116.5 -37q59 0 170 16v533h383v-1065h-383v305q-170 -27 -292 -26q-213 0 -311.5 108.5t-98.5 362.5z" />
<glyph unicode="&#x4f8;" horiz-adv-x="2031" d="M613 1640v324h338v-324h-338zM1077 1640v324h340v-324h-340zM131 0h561q342 0 488.5 112.5t146.5 370.5q0 244 -124 366t-398 122q-127 0 -260 -19v539h-414v-1491zM545 272v412q70 8 147 8q111 0 164 -46t53 -165q0 -121 -52 -165t-165 -44h-147zM1487 0v1491h414v-1491 h-414z" />
<glyph unicode="&#x4f9;" horiz-adv-x="1779" d="M488 1212v324h338v-324h-338zM952 1212v324h340v-324h-340zM104 0v1065h383v-332q188 8 246 8q221 0 323.5 -77.5t102.5 -286.5q0 -219 -139 -298t-420 -79h-496zM487 221h144q143 0 143 156q0 147 -153 147h-134v-303zM1292 0v1065h383v-1065h-383z" />
<glyph unicode="&#x2000;" horiz-adv-x="1034" />
<glyph unicode="&#x2001;" horiz-adv-x="2068" />
<glyph unicode="&#x2002;" horiz-adv-x="1034" />
<glyph unicode="&#x2003;" horiz-adv-x="2068" />
<glyph unicode="&#x2004;" horiz-adv-x="688" />
<glyph unicode="&#x2005;" horiz-adv-x="516" />
<glyph unicode="&#x2006;" horiz-adv-x="344" />
<glyph unicode="&#x2007;" horiz-adv-x="344" />
<glyph unicode="&#x2008;" horiz-adv-x="258" />
<glyph unicode="&#x2009;" horiz-adv-x="413" />
<glyph unicode="&#x200a;" horiz-adv-x="114" />
<glyph unicode="&#x2010;" horiz-adv-x="901" d="M131 526v310h639v-310h-639z" />
<glyph unicode="&#x2011;" horiz-adv-x="901" d="M131 526v310h639v-310h-639z" />
<glyph unicode="&#x2012;" horiz-adv-x="901" d="M131 526v310h639v-310h-639z" />
<glyph unicode="&#x2013;" horiz-adv-x="1327" d="M131 569v324h1065v-324h-1065z" />
<glyph unicode="&#x2014;" horiz-adv-x="1902" d="M131 569v324h1641v-324h-1641z" />
<glyph unicode="&#x2018;" horiz-adv-x="659" d="M113 899v225q0 133 76.5 266.5t177.5 206.5l133 -73q-96 -115 -97 -254h136v-371h-426z" />
<glyph unicode="&#x2019;" horiz-adv-x="659" d="M117 1120v371h426v-225q0 -133 -77 -266.5t-177 -206.5l-133 73q100 115 100 254h-139z" />
<glyph unicode="&#x201a;" horiz-adv-x="659" d="M117 0v371h426v-226q0 -133 -77 -266t-177 -207l-133 74q100 115 100 254h-139z" />
<glyph unicode="&#x201c;" horiz-adv-x="1183" d="M113 899v225q0 133 76.5 266.5t177.5 206.5l133 -73q-96 -115 -97 -254h136v-371h-426zM659 899v225q0 133 77 266.5t177 206.5l136 -73q-98 -115 -99 -254h135v-371h-426z" />
<glyph unicode="&#x201d;" horiz-adv-x="1183" d="M117 1120v371h426v-225q0 -133 -77 -266.5t-177 -206.5l-133 73q100 115 100 254h-139zM664 1120v371h426v-225q0 -133 -76 -266.5t-176 -206.5l-136 73q100 115 101 254h-139z" />
<glyph unicode="&#x201e;" horiz-adv-x="1183" d="M117 0v371h426v-226q0 -133 -77 -266t-177 -207l-133 74q100 115 100 254h-139zM664 0v371h426v-226q0 -133 -76 -266t-176 -207l-136 74q100 115 101 254h-139z" />
<glyph unicode="&#x2026;" horiz-adv-x="1744" d="M117 0v371h426v-371h-426zM659 0v371h426v-371h-426zM1204 0v371h426v-371h-426z" />
<glyph unicode="&#x202f;" horiz-adv-x="413" />
<glyph unicode="&#x2039;" horiz-adv-x="1394" d="M131 446v185q147 59 1116 440v-297q-373 -129 -672 -229v-15q98 -33 337 -113.5t335 -111.5v-301q-135 53 -520 207.5t-596 234.5z" />
<glyph unicode="&#x203a;" horiz-adv-x="1394" d="M131 4v301q98 31 337 112t337 113v15q-301 100 -674 229v297q971 -381 1116 -440v-185q-211 -80 -595 -234.5t-521 -207.5z" />
<glyph unicode="&#x205f;" horiz-adv-x="516" />
<glyph unicode="&#x20ac;" horiz-adv-x="1492" d="M131 702h123v97h-86l-37 192h129v19q0 139 48 238.5t135 155.5t192.5 81.5t234.5 25.5q143 0 293 -26.5t199 -44.5l-72 -287q-29 12 -144.5 25.5t-203.5 13.5q-115 0 -194.5 -42t-79.5 -140v-19h594l-33 -192h-561v-97h546l-32 -192h-514v-29q0 -94 77.5 -138t194.5 -44 q92 0 212 13.5t155 25.5l55 -289q-51 -18 -198.5 -43.5t-293.5 -25.5q-272 0 -441 119.5t-169 381.5v29h-92z" />
<glyph unicode="&#x2122;" horiz-adv-x="1873" d="M92 1280v211h629v-211h-186v-532h-256v532h-187zM762 748l61 743h293l150 -467l151 467h291l59 -743h-225l-31 462l-135 -462h-219l-137 462l-29 -462h-229z" />
<glyph unicode="&#xe000;" horiz-adv-x="1065" d="M0 1065h1065v-1065h-1065v1065z" />
</font>
</defs>
</svg>
