<?xml version="1.0" standalone="no"?>
<!DOCTYPE svg PUBLIC "-//W3C//DTD SVG 1.1//EN" "http://www.w3.org/Graphics/SVG/1.1/DTD/svg11.dtd" >
<svg xmlns="http://www.w3.org/2000/svg">
<metadata>
This is a custom SVG webfont generated by Font Squirrel.
Copyright   : Copyright c 2006 by Zakhar Yashchin All rights reserved
</metadata>
<defs>
<font id="EkibastuzLight" horiz-adv-x="1361" >
<font-face units-per-em="2048" ascent="1638" descent="-410" />
<missing-glyph horiz-adv-x="552" />
<glyph unicode=" "  horiz-adv-x="552" />
<glyph unicode="&#x09;" horiz-adv-x="552" />
<glyph unicode="&#xa0;" horiz-adv-x="552" />
<glyph unicode="!" horiz-adv-x="466" d="M168 0v221h131v-221h-131zM170 1491h129l-23 -1129h-83z" />
<glyph unicode="&#x22;" horiz-adv-x="772" d="M193 1491h126l-20 -490h-86zM455 1491h127l-21 -490h-86z" />
<glyph unicode="#" horiz-adv-x="1234" d="M193 383v86h118l107 553h-225v86h241l76 383h86l-74 -383h338l76 383h86l-74 -383h96v-86h-114l-109 -553h223v-86h-239l-74 -383h-86l76 383h-342l-74 -383h-86l76 383h-102zM395 469h342l107 553h-340z" />
<glyph unicode="$" horiz-adv-x="1245" d="M106 72l21 69q186 -92 459 -102v639q-104 29 -175 57.5t-143.5 76.5t-111.5 116.5t-39 156.5q0 156 133 245t336 97v127h86v-127q195 -4 436 -94l-25 -65q-221 96 -411 102v-629q82 -25 120.5 -35t103.5 -34.5t98.5 -48t69.5 -60.5t52 -82q23 -59 23 -141 q0 -160 -134.5 -254t-332.5 -104v-152h-86v150q-320 10 -480 92zM209 1085q0 -160 229 -262q82 -35 148 -55v600q-197 -8 -287 -91t-90 -192zM672 39q104 4 180 33.5t112.5 64.5t57 82t24 71.5t3.5 49.5q0 121 -52.5 175t-199.5 101q-20 6 -64.5 17.5t-60.5 17.5v-612z" />
<glyph unicode="%" horiz-adv-x="1763" d="M193 1051v178q0 121 73.5 201.5t221 80.5t222 -80.5t74.5 -201.5v-178q0 -123 -74.5 -204t-222 -81t-221 81t-73.5 204zM276 1051q0 -94 58.5 -157t152.5 -63q96 0 153.5 62.5t57.5 157.5v178q0 92 -57 155.5t-154 63.5q-94 0 -152.5 -63.5t-58.5 -155.5v-178zM367 0 q178 285 501.5 807t427.5 688h101q-102 -166 -428 -688t-500 -807h-102zM979 262v178q0 123 74.5 204t222 81t222.5 -81t75 -204v-178q0 -121 -75 -201.5t-222.5 -80.5t-222 80.5t-74.5 201.5zM1065 262q0 -94 58.5 -156.5t152.5 -62.5q98 0 154.5 63.5t56.5 155.5v178 q0 92 -56.5 155.5t-154.5 63.5q-96 0 -153.5 -65.5t-57.5 -167.5v-164z" />
<glyph unicode="&#x26;" horiz-adv-x="1587" d="M193 385q0 180 73.5 286.5t208.5 182.5q-156 188 -156 317q0 170 114 255t312 85q176 0 361 -88l-27 -77q-197 102 -334 102q-340 0 -339 -277q0 -102 110 -233l555 -684q100 133 148 342l77 -12q-37 -201 -184 -383q12 -18 160 -201h-111l-108 135q-78 -78 -166 -116.5 t-228 -38.5q-211 0 -338.5 106t-127.5 299zM276 385q0 -158 111 -250t272 -92q92 0 191.5 39t159.5 102q-55 70 -228.5 284t-267.5 331q-27 -10 -61.5 -38t-76.5 -76t-71 -127t-29 -173z" />
<glyph unicode="'" horiz-adv-x="509" d="M193 1491h126l-20 -490h-86z" />
<glyph unicode="(" horiz-adv-x="800" d="M193 692q0 197 58 399.5t117.5 320.5t151.5 271h76q-35 -49 -78 -126.5t-102.5 -211t-99.5 -308.5t-40 -345q0 -156 34 -314.5t81 -271t99.5 -210t82 -140.5t35.5 -51h-80q-70 113 -115.5 196t-103 214t-87 276t-29.5 301z" />
<glyph unicode=")" horiz-adv-x="800" d="M193 -295q6 8 35.5 51t81.5 140.5t99.5 210t81 271.5t33.5 314q0 170 -40 345t-99 308.5t-101 211t-79 126.5h76q92 -154 151.5 -271.5t117.5 -320t58 -399.5q0 -156 -29.5 -301t-87 -276t-103.5 -214t-116 -196h-79z" />
<glyph unicode="*" horiz-adv-x="1421" d="M193 750l464 251l-464 252l40 72l451 -276l-14 528h84l-13 -528l447 276l43 -72l-463 -252l463 -251l-43 -72l-447 276l13 -528h-84l14 526l-451 -274z" />
<glyph unicode="+" horiz-adv-x="1447" d="M193 702v86h489v490h84v-490h491v-86h-491v-489h-84v489h-489z" />
<glyph unicode="," horiz-adv-x="546" d="M213 -315q74 178 74 315h-62v221h131v-135q0 -184 -98 -414z" />
<glyph unicode="-" horiz-adv-x="1021" d="M193 659v86h638v-86h-638z" />
<glyph unicode="." horiz-adv-x="512" d="M193 0v221h129v-221h-129z" />
<glyph unicode="/" horiz-adv-x="1247" d="M193 -236l770 1774h94l-774 -1774h-90z" />
<glyph unicode="0" d="M106 586v319q0 264 153 435t423 171t422.5 -170t152.5 -434v-321q0 -264 -152.5 -435t-422.5 -171t-423 170t-153 436zM193 586q0 -244 131 -393.5t358 -149.5t358 149.5t131 393.5v319q0 238 -132 390.5t-357 152.5t-357 -152.5t-132 -388.5v-321z" />
<glyph unicode="1" d="M375 944l534 547h80v-1491h-86v1389l-481 -500z" />
<glyph unicode="2" d="M164 0v59q0 59 5 110.5t20.5 97.5t25.5 82t40 75t47 62.5t61.5 57.5t63.5 50t77.5 52t80 49.5t91.5 52.5q16 10 81.5 46.5t99.5 56t89 60.5t84 74t52.5 81t23.5 97q0 125 -116 205t-314 80q-100 0 -245.5 -37t-209.5 -78l-24 62q59 37 206.5 76.5t272.5 39.5 q242 0 378 -87t136 -261q0 -74 -34 -138t-97.5 -116.5t-120.5 -88.5t-142 -83t-120 -69q-23 -14 -80 -50t-79.5 -51.5t-69 -51.5t-67 -60.5t-51 -69.5t-45 -88t-24.5 -102.5t-10 -131.5h946v-63h-1032z" />
<glyph unicode="3" d="M139 45l17 76q59 -20 196 -48t266 -28q104 0 190.5 16.5t162.5 53.5t117.5 105.5t41.5 162.5q0 88 -28.5 156.5t-78.5 109.5t-104.5 68.5t-120 39t-109.5 16.5t-89 5h-151l-15 64h205q147 0 275 89t128 236q0 141 -110.5 211t-292.5 70q-100 0 -239.5 -17.5t-196.5 -48.5 l-27 66q68 27 211 45t252 18q106 0 187 -14t155 -51t113 -106.5t39 -172.5q0 -113 -94.5 -212t-233.5 -136q199 -53 308.5 -148.5t109.5 -287.5q0 -113 -49.5 -195t-137.5 -126t-190.5 -63t-227.5 -19q-129 0 -288.5 26.5t-190.5 38.5z" />
<glyph unicode="4" d="M121 457v71l887 963h86v-973h147l-14 -61h-133v-457h-86v457h-887zM211 518h795v877z" />
<glyph unicode="5" d="M145 66l17 77q70 -27 231.5 -62.5t294.5 -35.5q213 0 325.5 98.5t112.5 327.5q0 348 -370 348q-123 0 -276.5 -25.5t-243.5 -52.5l75 750h858l-8 -64h-776l-61 -587q188 53 432 53q94 0 167.5 -16.5t144.5 -58.5t111 -131t40 -216q0 -492 -531 -491q-98 0 -229 19 t-213.5 39t-100.5 28z" />
<glyph unicode="6" d="M109 565v340q0 135 35.5 241.5t95 173t138.5 112t157.5 62.5t162.5 17q281 0 473 -65l-24 -66q-63 25 -198.5 46.5t-250.5 21.5q-207 0 -352 -136t-145 -358v-170q72 49 226.5 89t277.5 40q94 0 178 -12q371 -61 370 -430q0 -211 -161.5 -350t-411.5 -139 q-115 0 -211 27.5t-180 90t-132 180t-48 285.5zM201 549q29 -504 479 -504q209 0 345 112.5t136 313.5q0 199 -127 289t-327 90q-111 0 -269.5 -36t-236.5 -83v-182z" />
<glyph unicode="7" d="M135 1423v68h1092v-43q-254 -190 -446.5 -591.5t-192.5 -856.5h-92q0 266 64.5 513t163.5 424t193.5 295t182.5 191h-965z" />
<glyph unicode="8" d="M106 412q0 96 41 169.5t114 121t139.5 75t150.5 49.5q-47 14 -89 29.5t-98.5 48.5t-97.5 69t-68.5 89t-27.5 113q0 160 132 247.5t379 87.5t379 -88t132 -247q0 -242 -428 -353q131 -29 233.5 -75t181 -134t78.5 -202q0 -229 -144 -330.5t-432 -101.5t-431.5 101.5 t-143.5 330.5zM199 412q0 -369 483 -369t483 369q0 43 -11 78.5t-40 66.5t-50.5 53.5t-73.5 48t-76.5 38t-95 35t-90 28.5t-95.5 28q-197 -45 -315.5 -139t-118.5 -237zM262 1176q0 -51 33 -99.5t74 -79t108.5 -61.5t106.5 -45t100 -33q66 16 126 40t132 62.5t116 94 t44 121.5q0 143 -103.5 207.5t-316.5 64.5q-211 0 -315.5 -65.5t-104.5 -206.5z" />
<glyph unicode="9" d="M109 1022q0 211 160.5 350t412.5 139q115 0 211 -27.5t180 -90t132 -180t48 -285.5v-340q0 -133 -36.5 -239.5t-95 -174.5t-137.5 -113t-157.5 -62t-164.5 -17q-281 0 -472 65l25 66q61 -25 196.5 -46.5t250.5 -21.5q205 0 352 135t147 359v170q-74 -49 -227.5 -89 t-278.5 -40q-546 0 -546 442zM201 1022q0 -199 127 -289t325 -90q111 0 269.5 36t238.5 83v182q-37 504 -479 504q-209 0 -345 -112.5t-136 -313.5z" />
<glyph unicode=":" horiz-adv-x="512" d="M193 0v221h129v-221h-129zM193 844v221h129v-221h-129z" />
<glyph unicode=";" horiz-adv-x="512" d="M178 -315q76 178 76 315h-61v221h129v-135q0 -184 -99 -414zM193 844v221h129v-221h-129z" />
<glyph unicode="&#x3c;" horiz-adv-x="1298" d="M193 485v95q573 315 862 475v-101l-768 -422l768 -421v-101q-96 53 -397 219t-465 256z" />
<glyph unicode="=" horiz-adv-x="1447" d="M193 489v86h1064v-86h-1064zM193 915v86h1064v-86h-1064z" />
<glyph unicode="&#x3e;" horiz-adv-x="1298" d="M193 10v101l765 421l-765 422v101q287 -160 862 -475v-95q-162 -88 -455.5 -251t-406.5 -224z" />
<glyph unicode="?" horiz-adv-x="1112" d="M170 1470q150 41 285 41q92 0 162.5 -13t146.5 -54t117 -131t41 -228q0 -45 -6.5 -83.5t-26 -71.5t-30.5 -53.5t-45 -47t-46 -35t-54 -35t-52 -30.5q-59 -39 -88 -59.5t-53.5 -57.5t-24.5 -80v-170h-84v150q0 51 15 92t50 74t63.5 53.5t80.5 50.5q66 37 91 54.5t62 54.5 t50.5 83t13.5 111q0 203 -97.5 283t-285.5 80q-143 0 -273 -43zM387 0v221h131v-221h-131z" />
<glyph unicode="@" horiz-adv-x="2320" d="M184 543q0 969 977 968q512 0 743.5 -216t231.5 -656q0 -291 -137 -465t-422 -174h-86v115q-229 -135 -383 -135q-434 0 -434 532q0 596 477 596q70 0 146.5 -9t120.5 -18.5t99.5 -23t59.5 -13.5v-981q467 8 467 576q0 418 -211 613.5t-672 195.5q-451 0 -668 -224.5 t-217 -680.5q0 -469 211 -687t674 -218q453 0 864 208l39 -55q-90 -45 -199.5 -87t-311 -86t-392.5 -44q-485 0 -731 232.5t-246 736.5zM766 512q0 -143 27.5 -239.5t78 -143.5t106.5 -66.5t130 -19.5q150 0 383 152v802q-188 47 -340 47q-385 0 -385 -532z" />
<glyph unicode="A" horiz-adv-x="1325" d="M86 0l528 1491h101l526 -1491h-90l-168 485h-641l-166 -485h-90zM367 549h596l-299 872z" />
<glyph unicode="B" horiz-adv-x="1198" d="M193 0v1491h462q162 0 257.5 -89t95.5 -255q0 -260 -177 -328q262 -102 263 -393q0 -94 -20.5 -163.5t-71 -133t-147.5 -96.5t-237 -33h-425zM276 63h342q188 0 285.5 80t97.5 283q0 100 -33.5 173t-93 109.5t-122 53t-134.5 16.5h-342v-715zM276 842h379q260 0 260 305 q0 131 -65.5 205.5t-194.5 74.5h-379v-585z" />
<glyph unicode="C" horiz-adv-x="1167" d="M106 565v361q0 283 131.5 434t430.5 151q137 0 395 -86l-27 -65q-10 4 -67.5 22.5t-68.5 22.5t-54 16.5t-63.5 15.5t-53.5 7t-61 4q-250 0 -359.5 -129t-109.5 -393v-361q0 -522 469 -522q29 0 61.5 4t53 7t63.5 15.5t54 16.5t68.5 22.5t67.5 22.5l27 -65 q-258 -86 -395 -86q-299 0 -430.5 151t-131.5 434z" />
<glyph unicode="D" horiz-adv-x="1411" d="M193 0v1491h466q152 0 260.5 -30.5t200.5 -108.5t139.5 -230.5t47.5 -376t-47.5 -376t-139.5 -230.5t-200.5 -108.5t-260.5 -30.5h-466zM276 63h383q92 0 163 12.5t149 53.5t128 112.5t82.5 199.5t32.5 304.5t-32.5 304.5t-82.5 199.5t-128 112.5t-148.5 53t-163.5 12 h-383v-1364z" />
<glyph unicode="E" horiz-adv-x="1148" d="M193 0v1491h851v-64h-768v-575h682v-64h-682v-725h768v-63h-851z" />
<glyph unicode="F" horiz-adv-x="1148" d="M193 0v1491h851v-64h-768v-618h682v-64h-682v-745h-83z" />
<glyph unicode="G" horiz-adv-x="1241" d="M106 565v361q0 283 131.5 434t430.5 151q242 0 438 -65l-27 -66q-203 68 -411 68q-250 0 -359.5 -129t-109.5 -393v-361q0 -522 469 -522q184 0 383 59v580l-383 12v72h467v-711q-227 -76 -467 -75q-299 0 -430.5 151t-131.5 434z" />
<glyph unicode="H" horiz-adv-x="1447" d="M193 0v1491h83v-639h895v639h86v-1491h-86v788h-895v-788h-83z" />
<glyph unicode="I" horiz-adv-x="722" d="M63 0v63h256v1364h-256v64h596v-64h-253v-1364h253v-63h-596z" />
<glyph unicode="J" horiz-adv-x="983" d="M20 39l29 74q94 -70 254 -70q106 0 184 27.5t119 67.5t64.5 105.5t30 120t6.5 125.5v1002h86v-1002q0 -80 -7.5 -142t-36 -135t-80 -121t-145.5 -79.5t-221 -31.5q-166 0 -283 59z" />
<glyph unicode="K" horiz-adv-x="1277" d="M193 0v1491h83v-670h27l805 670h125l-840 -682l842 -809h-117l-815 786h-27v-786h-83z" />
<glyph unicode="L" horiz-adv-x="1148" d="M193 0v1491h83v-1417h809v-74h-892z" />
<glyph unicode="M" horiz-adv-x="1873" d="M150 0l126 1491h89l573 -1403l569 1403h90l127 -1491h-84l-112 1356l-547 -1356h-90l-543 1356l-115 -1356h-83z" />
<glyph unicode="N" horiz-adv-x="1617" d="M193 0v1491h108l1051 -1389v1389h75v-1491h-110l-1051 1389v-1389h-73z" />
<glyph unicode="O" horiz-adv-x="1460" d="M106 565v361q0 238 163 411.5t461 173.5t461 -174t163 -411v-361q0 -111 -38 -213t-113 -188t-196.5 -135t-275 -49t-276.5 49t-198 135t-113 188t-38 213zM199 565q0 -236 147.5 -379t384.5 -143q248 0 390.5 141.5t142.5 380.5v361q0 223 -145.5 372.5t-387.5 149.5 q-227 0 -379.5 -146.5t-152.5 -375.5v-361z" />
<glyph unicode="P" horiz-adv-x="1198" d="M193 0v1491h425q250 0 363 -90t113 -336q0 -252 -117 -360.5t-359 -108.5h-342v-596h-83zM276 659h342q82 0 142.5 15.5t120 54.5t90 124t30.5 212q0 203 -97 282.5t-286 79.5h-342v-768z" />
<glyph unicode="Q" horiz-adv-x="1460" d="M106 565v361q0 238 163 411.5t461 173.5t461 -174t163 -411v-361q0 -182 -99.5 -335.5t-285.5 -215.5l205 -422h-97l-190 402q-86 -14 -156 -14q-154 0 -276.5 49t-197.5 135t-113 188t-38 213zM199 565q0 -240 141 -381t391 -141q78 0 125 10l-270 568h94l262 -547 q154 51 238 179t84 312v361q0 223 -145.5 372.5t-387.5 149.5q-246 0 -389 -148.5t-143 -373.5v-361z" />
<glyph unicode="R" horiz-adv-x="1288" d="M193 0v1491h466q246 0 361 -102.5t115 -323.5q0 -195 -100.5 -300.5t-254.5 -105.5l488 -659h-107l-469 659h-416v-659h-83zM276 725h383q197 0 291 69.5t94 270.5q0 203 -97 282.5t-288 79.5h-383v-702z" />
<glyph unicode="S" horiz-adv-x="1245" d="M106 78l21 72q217 -106 502 -107q117 0 201.5 28.5t124.5 65.5t63.5 89.5t27 79t3.5 56.5q0 125 -52.5 181.5t-199.5 107.5q-39 12 -141.5 44t-159 50.5t-139.5 59.5t-128 83t-78.5 110.5t-33.5 152.5q0 174 148.5 267t363.5 93q217 0 479 -98l-25 -72q-119 53 -218 80 t-236 27q-217 0 -318.5 -89t-101.5 -208q0 -172 229 -279q84 -37 204 -75.5t195.5 -65t151.5 -70t113 -117t37 -182.5q0 -180 -147.5 -281t-362.5 -101q-345 0 -523 98z" />
<glyph unicode="T" horiz-adv-x="1148" d="M63 1417v74h1022v-74h-467v-1417h-86v1417h-469z" />
<glyph unicode="U" d="M170 532v959h86v-979q0 -236 118 -352.5t331 -116.5q209 0 309 114.5t100 354.5v979h78v-959q0 -266 -109.5 -409t-377.5 -143q-272 0 -403.5 147t-131.5 405z" />
<glyph unicode="V" horiz-adv-x="1239" d="M43 1491h100l471 -1428h13l481 1428h88l-510 -1491h-133z" />
<glyph unicode="W" horiz-adv-x="2174" d="M86 1491h94l408 -1366l448 1366h103l463 -1366l401 1366h88l-444 -1491h-99l-467 1376l-452 -1376h-99z" />
<glyph unicode="X" horiz-adv-x="1253" d="M43 0l532 745l-532 746h115l477 -684l473 684h104l-532 -746l532 -745h-114l-477 682l-474 -682h-104z" />
<glyph unicode="Y" horiz-adv-x="1206" d="M20 1491h109l481 -793l475 793h101l-539 -866v-625h-84v627z" />
<glyph unicode="Z" horiz-adv-x="1277" d="M106 0v57l959 1370h-915v64h1021v-57l-958 -1371h958v-63h-1065z" />
<glyph unicode="[" horiz-adv-x="745" d="M193 -299v2003h360v-78h-277v-1845h277v-80h-360z" />
<glyph unicode="\" horiz-adv-x="1247" d="M193 1538h92l772 -1774h-92z" />
<glyph unicode="]" horiz-adv-x="745" d="M193 -219h276v1845h-276v78h360v-2003h-360v80z" />
<glyph unicode="^" horiz-adv-x="1425" d="M193 631l475 862h92l475 -862h-100l-422 766l-422 -766h-98z" />
<glyph unicode="_" horiz-adv-x="1064" d="M0 -90h1065v-84h-1065v84z" />
<glyph unicode="`" horiz-adv-x="552" d="M170 1595h109l83 -407l-65 -17z" />
<glyph unicode="a" horiz-adv-x="1058" d="M96 297q0 137 107.5 207.5t281.5 70.5h342v203q0 131 -62.5 186.5t-193.5 55.5q-45 0 -91 -5t-92 -13.5t-76.5 -16.5t-72.5 -20.5t-57 -14.5l-14 72q4 0 58.5 14.5t96.5 23.5t113.5 17t134.5 8q98 0 165 -20.5t100.5 -49t51 -87t20.5 -97t3 -116.5v-715h-84v86 q-152 -109 -342 -109q-389 1 -389 320zM188 297q0 -254 297 -254q129 0 342 107v362h-342q-145 0 -221 -68.5t-76 -146.5z" />
<glyph unicode="b" horiz-adv-x="1144" d="M150 0v1491h83v-512q164 102 342 102q475 0 476 -549q0 -553 -476 -552q-168 0 -342 106v-86h-83zM233 150q172 -106 342 -107q383 0 383 489.5t-383 489.5q-152 0 -342 -107v-765z" />
<glyph unicode="c" horiz-adv-x="966" d="M96 446v172q0 221 123 344t352 123q182 0 353 -86l-21 -71q-8 6 -42 19.5t-48 18.5t-45 17t-50.5 16.5t-47 11.5t-52 9t-47.5 2q-190 0 -286.5 -107.5t-96.5 -296.5v-172q0 -190 96.5 -296.5t286.5 -106.5q117 0 334 94l19 -71q-217 -86 -353 -86q-227 0 -351 121.5 t-124 344.5z" />
<glyph unicode="d" horiz-adv-x="1144" d="M96 532q0 553 475 553q168 0 340 -106v512h86v-1491h-86v86q-172 -106 -340 -106q-240 0 -357.5 143t-117.5 409zM188 532.5q0 -489.5 383 -489.5q170 0 340 107v765q-188 106 -340 107q-383 0 -383 -489.5z" />
<glyph unicode="e" horiz-adv-x="1058" d="M96 383v235q0 217 104.5 342t327.5 125q436 0 437 -426v-159h-777v-117q0 -178 95.5 -259t287.5 -81q111 0 359 94l16 -71q-242 -86 -375 -86q-233 0 -354 92t-121 311zM188 553h684v129q0 166 -87 253t-257 87q-340 0 -340 -383v-86z" />
<glyph unicode="f" horiz-adv-x="808" d="M43 1001v64h213v106q0 426 344 426q170 0 299 -43l-16 -63q-143 43 -283 43q-68 0 -115 -21.5t-74.5 -58.5t-43 -99.5t-21.5 -128t-6 -161.5h426v-64h-426v-1001h-84v1001h-213z" />
<glyph unicode="g" horiz-adv-x="1245" d="M127 -102q0 197 217 286q-70 61 -70 142q0 90 66 147q-158 80 -158 272q0 178 121 259t320 81q190 0 325 -90q59 49 60 176h92q-2 -82 -25.5 -133t-91.5 -75q78 -82 78 -218q0 -176 -117 -245.5t-321 -69.5q-158 0 -226 19q-12 -12 -24.5 -51.5t-12.5 -71.5 q0 -63 48 -119q61 14 215 14q111 0 193.5 -13t155 -48t109.5 -100.5t37 -161.5q0 -127 -70.5 -202t-172 -98.5t-253 -23.5t-253 23.5t-172 98.5t-70.5 202zM219 -102q0 -119 87 -189.5t317 -70.5q403 0 403 260q0 137 -84 197.5t-319 60.5q-404 0 -404 -258zM274 745 q0 -137 75 -198.5t274 -61.5q186 0 266 64.5t80 195.5q0 125 -87 203t-259 78q-349 0 -349 -281z" />
<glyph unicode="h" horiz-adv-x="1148" d="M150 0v1491h83v-565q61 57 163 108t227 51q195 0 286.5 -74.5t91.5 -285.5v-725h-86v725q0 160 -62 228.5t-230 68.5q-102 0 -213 -50t-177 -110v-862h-83z" />
<glyph unicode="i" horiz-adv-x="382" d="M150 0v1065h83v-1065h-83zM150 1241v250h83v-250h-83z" />
<glyph unicode="j" horiz-adv-x="382" d="M-287 -381l11 66q150 -47 213 -47q213 0 213 276v1151h83v-1151q0 -340 -296 -340q-81 0 -224 45zM150 1241v250h83v-250h-83z" />
<glyph unicode="k" horiz-adv-x="995" d="M150 0v1491h83v-918h11l592 492h139l-647 -504l645 -561h-127l-602 537h-11v-537h-83z" />
<glyph unicode="l" horiz-adv-x="382" d="M150 0v1597h83v-1597h-83z" />
<glyph unicode="m" horiz-adv-x="1574" d="M150 0v1065h83v-131q49 47 150.5 99t169.5 52q127 0 180 -45t80 -129q63 70 173 122t185 52q141 0 198.5 -79.5t57.5 -239.5v-766h-86v766q0 127 -32.5 181t-137.5 54q-66 0 -172 -44t-168 -97v-860h-86v766q0 123 -43 179t-149 56q-68 0 -167 -44t-153 -97v-860h-83z " />
<glyph unicode="n" horiz-adv-x="1148" d="M150 0v1065h83v-139q207 160 394 159q209 0 291.5 -88t82.5 -272v-725h-86v725q0 164 -61 230.5t-231 66.5q-102 0 -213 -50t-177 -110v-862h-83z" />
<glyph unicode="o" horiz-adv-x="1140" d="M96 410v245q0 195 127 312.5t348.5 117.5t348.5 -117.5t127 -312.5v-245q0 -195 -127 -312.5t-348.5 -117.5t-348.5 117.5t-127 312.5zM188 410q0 -164 103.5 -265.5t278.5 -101.5t279.5 101.5t104.5 265.5v245q0 164 -104.5 265.5t-279.5 101.5t-278.5 -101.5 t-103.5 -265.5v-245z" />
<glyph unicode="p" horiz-adv-x="1144" d="M150 -426v1491h83v-86q174 106 342 106q238 0 357 -143t119 -410q0 -553 -476 -552q-168 0 -342 106v-512h-83zM233 150q182 -106 342 -107q383 0 383 489.5t-383 489.5q-170 0 -342 -107v-765z" />
<glyph unicode="q" horiz-adv-x="1144" d="M96 532.5q0 552.5 475 552.5q199 0 426 -84v-1427h-86v512q-172 -106 -340 -106q-475 0 -475 552.5zM188 532.5q0 -489.5 383 -489.5q154 0 340 107v808q-143 63 -340 64q-383 0 -383 -489.5z" />
<glyph unicode="r" horiz-adv-x="722" d="M150 0v1065h83v-205q47 92 144.5 158.5t197.5 66.5h89l18 -84h-72q-139 0 -258 -100t-119 -174v-727h-83z" />
<glyph unicode="s" horiz-adv-x="1011" d="M96 57l15 66q248 -80 401 -80q111 0 181.5 20.5t97 57.5t33.5 61.5t7 61.5q0 115 -126 176q-51 25 -138.5 46t-161 39.5t-144.5 49.5t-113 90.5t-42 149.5q0 150 115 220t295 70q168 0 365 -71l-23 -64q-6 2 -39 13.5t-44 15.5t-40.5 13t-48.5 13l-49 8q-31 5 -61.5 7 t-63.5 2q-170 0 -244.5 -72.5t-74.5 -154.5q0 -55 32.5 -98.5t86 -65t147.5 -43t164.5 -42t142.5 -54t110.5 -96t38.5 -152.5q0 -84 -31.5 -139.5t-93 -81t-126 -34.5t-152.5 -9q-197 -1 -416 77z" />
<glyph unicode="t" horiz-adv-x="808" d="M43 1001v64h213v276l84 23v-299h426v-64h-426v-682q0 -276 213 -276q119 0 199 41l24 -59q-86 -45 -223 -45q-297 0 -297 339v682h-213z" />
<glyph unicode="u" horiz-adv-x="1148" d="M150 340v725h83v-725q0 -297 254 -297q127 0 246 50t182 110v862h86v-1065h-86v139q-68 -61 -193.5 -110t-238.5 -49q-168 0 -250.5 95t-82.5 265z" />
<glyph unicode="v" horiz-adv-x="985" d="M20 1065h103l371 -1002h8l370 1002h93l-412 -1065h-119z" />
<glyph unicode="w" horiz-adv-x="1622" d="M43 1065h100l275 -975h8l332 975h114l334 -975h8l277 975h90l-328 -1065h-90l-352 977l-350 -977h-90z" />
<glyph unicode="x" horiz-adv-x="1001" d="M20 0l426 532l-426 533h121l375 -485l356 485h109l-426 -533l426 -532h-119l-370 485l-363 -485h-109z" />
<glyph unicode="y" horiz-adv-x="1050" d="M20 1065h109l455 -1016l356 1016h90l-362 -999q-90 -248 -138 -357q-39 -92 -98 -145t-164 -53q-113 0 -207 49l29 65q84 -43 168 -43q72 0 119 33t84 123l104 262q-25 4 -49 24.5t-35 43.5z" />
<glyph unicode="z" horiz-adv-x="1050" d="M96 0v55l752 946h-709v64h817v-55l-751 -947h743v-63h-852z" />
<glyph unicode="{" horiz-adv-x="808" d="M193 696v86h43q27 0 55 27t28 80v602q0 213 193 213h106v-86h-106q-47 0 -76.5 -28.5t-29.5 -78.5v-622q0 -55 -16.5 -84t-55.5 -62q47 -39 59.5 -82t12.5 -169v-598q0 -49 29.5 -78t76.5 -29h106v-86h-106q-193 0 -193 233v656q0 53 -27.5 79.5t-53.5 26.5h-45z" />
<glyph unicode="|" horiz-adv-x="466" d="M193 -532v2129h83v-2129h-83z" />
<glyph unicode="}" horiz-adv-x="808" d="M193 -213h106q45 0 76 28.5t31 78.5v598q0 127 11 170t58 81q-39 33 -54 62t-15 84v622q0 49 -31 78t-76 29h-106v86h106q190 0 190 -213v-602q0 -53 29 -80t55 -27h45v-86h-47q-27 0 -54.5 -26.5t-27.5 -79.5v-656q0 -233 -190 -233h-106v86z" />
<glyph unicode="~" horiz-adv-x="1392" d="M193 897q8 14 39.5 54t105.5 87t145.5 47t196.5 -73.5t225 -73.5q59 0 118.5 42t91.5 81t32 45l55 -39q-8 -10 -16 -26.5t-37 -52.5t-60.5 -63.5t-81 -50t-102.5 -22.5q-92 0 -216 74.5t-206 74.5q-63 0 -139 -54t-106 -97z" />
<glyph unicode="&#xa3;" horiz-adv-x="1593" d="M193 35q90 68 174 106v647h-129v64h129v192q0 211 130 339t339 128q168 0 440 -86l-31 -59q-4 4 -59.5 21.5t-158.5 39t-191 21.5q-152 0 -268.5 -101.5t-116.5 -302.5v-192h682v-64h-682v-618q76 23 149 23q78 0 218 -65t231 -65q74 0 149.5 44.5t114.5 83t39 45.5 l51 -46q-16 -23 -53 -61.5t-128.5 -93.5t-172.5 -55q-59 0 -206 63t-243 63q-203 0 -373 -126z" />
<glyph unicode="&#xa8;" horiz-adv-x="768" d="M170 1241v250h131v-250h-131zM469 1241v250h129v-250h-129z" />
<glyph unicode="&#xa9;" horiz-adv-x="2320" d="M193 543q0 473 242.5 720.5t726 247.5t726 -247.5t242.5 -720.5t-242.5 -721t-726 -248t-726 248t-242.5 721zM276 542.5q0 -440.5 218.5 -672.5t666 -232t665.5 232t218 672.5t-219 673t-664 232.5q-449 0 -667 -232.5t-218 -673zM725 459v149q0 256 104.5 378 t370.5 122q164 0 328 -57l-23 -62q-176 61 -305 62q-223 0 -309 -100.5t-86 -342.5v-149q0 -223 86 -322.5t309 -99.5q129 0 305 61l23 -59q-172 -59 -328 -59q-270 0 -372.5 112.5t-102.5 366.5z" />
<glyph unicode="&#xab;" horiz-adv-x="1087" d="M193 530l335 469h93l-322 -464l322 -424h-99zM469 530l336 469h92l-322 -464l322 -424h-98z" />
<glyph unicode="&#xad;" horiz-adv-x="1021" d="M193 659v86h638v-86h-638z" />
<glyph unicode="&#xae;" horiz-adv-x="1425" d="M184 990q0 521 528.5 521t528.5 -521t-528.5 -521t-528.5 521zM276 990.5q0 -230.5 106.5 -344.5t331 -114t331 114t106.5 344.5t-106.5 344t-331 113.5t-331 -113.5t-106.5 -344zM520 678v633h197q213 0 213 -183q0 -80 -47 -125t-115 -45l207 -280h-82l-195 280h-120 v-280h-58zM578 1006h139q37 0 58.5 3t46 13t34.5 36.5t10 69.5q0 84 -37.5 109t-111.5 25h-139v-256z" />
<glyph unicode="&#xb0;" horiz-adv-x="1105" d="M193 1149.5q0 148.5 106.5 255t254.5 106.5t254.5 -106.5t106.5 -255t-106.5 -255t-254.5 -106.5t-254.5 106.5t-106.5 255zM276 1150q0 -116 81 -197t197 -81t196.5 81t80.5 197t-80.5 196.5t-196.5 80.5t-197 -80.5t-81 -196.5z" />
<glyph unicode="&#xb4;" horiz-adv-x="552" d="M170 1184l84 413h108l-126 -423z" />
<glyph unicode="&#xbb;" horiz-adv-x="1087" d="M193 111l321 424l-321 464h88l340 -469l-334 -419h-94zM469 111l322 424l-322 464h88l340 -469l-332 -419h-96z" />
<glyph unicode="&#x2c6;" horiz-adv-x="829" d="M193 1241l176 324h94l176 -324h-100l-123 264l-127 -264h-96z" />
<glyph unicode="&#x2da;" horiz-adv-x="552" d="M-360 490.5q0 148.5 106.5 255t254.5 106.5t254.5 -106.5t106.5 -255t-106.5 -255t-254.5 -106.5t-254.5 106.5t-106.5 255zM-277 491q0 -116 81 -197t197 -81t196.5 81t80.5 197t-80.5 196.5t-196.5 80.5t-197 -80.5t-81 -196.5z" />
<glyph unicode="&#x2dc;" horiz-adv-x="923" d="M170 1397q90 84 184 84q51 0 121 -38t111 -38q76 0 162 80l28 -53q-20 -31 -78.5 -65t-111.5 -34q-41 0 -112 37t-120 37q-92 0 -164 -68z" />
<glyph unicode="&#x400;" horiz-adv-x="1148" d="M459 2064h109l83 -407l-65 -17zM193 0v1491h851v-64h-768v-575h682v-64h-682v-725h768v-63h-851z" />
<glyph unicode="&#x401;" horiz-adv-x="1148" d="M193 0v1491h851v-64h-768v-575h682v-64h-682v-725h768v-63h-851zM424 1667v250h129v-250h-129zM723 1667v250h129v-250h-129z" />
<glyph unicode="&#x403;" horiz-adv-x="999" d="M541 1651l84 413h108l-126 -423zM193 0v1491h765v-70h-682v-1421h-83z" />
<glyph unicode="&#x405;" horiz-adv-x="1245" d="M106 78l21 72q217 -106 502 -107q117 0 201.5 28.5t124.5 65.5t63.5 89.5t27 79t3.5 56.5q0 125 -52.5 181.5t-199.5 107.5q-39 12 -141.5 44t-159 50.5t-139.5 59.5t-128 83t-78.5 110.5t-33.5 152.5q0 174 148.5 267t363.5 93q217 0 479 -98l-25 -72q-119 53 -218 80 t-236 27q-217 0 -318.5 -89t-101.5 -208q0 -172 229 -279q84 -37 204 -75.5t195.5 -65t151.5 -70t113 -117t37 -182.5q0 -180 -147.5 -281t-362.5 -101q-345 0 -523 98z" />
<glyph unicode="&#x406;" horiz-adv-x="722" d="M63 0v63h256v1364h-256v64h596v-64h-253v-1364h253v-63h-596z" />
<glyph unicode="&#x407;" horiz-adv-x="722" d="M150 1638v250h131v-250h-131zM449 1638v250h129v-250h-129zM63 0v63h256v1364h-256v64h596v-64h-253v-1364h253v-63h-596z" />
<glyph unicode="&#x408;" horiz-adv-x="983" d="M20 39l29 74q94 -70 254 -70q106 0 184 27.5t119 67.5t64.5 105.5t30 120t6.5 125.5v1002h86v-1002q0 -80 -7.5 -142t-36 -135t-80 -121t-145.5 -79.5t-221 -31.5q-166 0 -283 59z" />
<glyph unicode="&#x40c;" horiz-adv-x="1257" d="M680 1651l84 413h108l-126 -423zM193 0v1491h83v-670h27l805 670h125l-840 -682l842 -809h-117l-815 786h-27v-786h-83z" />
<glyph unicode="&#x40d;" horiz-adv-x="1531" d="M608 2064h109l83 -407l-65 -17zM193 0v1491h83v-1387l969 1387h96v-1491h-84v1386l-970 -1386h-94z" />
<glyph unicode="&#x410;" horiz-adv-x="1325" d="M86 0l528 1491h101l526 -1491h-90l-168 485h-641l-166 -485h-90zM367 549h596l-299 872z" />
<glyph unicode="&#x411;" horiz-adv-x="1198" d="M193 0v1491h765v-64h-682v-532h342q262 0 369 -112.5t107 -336.5q0 -92 -17.5 -163.5t-65.5 -140t-147.5 -105.5t-245.5 -37h-425zM276 63h342q190 0 286.5 84t96.5 299.5t-96 300t-287 84.5h-342v-768z" />
<glyph unicode="&#x412;" horiz-adv-x="1198" d="M193 0v1491h462q162 0 257.5 -89t95.5 -255q0 -260 -177 -328q262 -102 263 -393q0 -94 -20.5 -163.5t-71 -133t-147.5 -96.5t-237 -33h-425zM276 63h342q188 0 285.5 80t97.5 283q0 100 -33.5 173t-93 109.5t-122 53t-134.5 16.5h-342v-715zM276 842h379q260 0 260 305 q0 131 -65.5 205.5t-194.5 74.5h-379v-585z" />
<glyph unicode="&#x413;" horiz-adv-x="999" d="M193 0v1491h765v-70h-682v-1421h-83z" />
<glyph unicode="&#x414;" horiz-adv-x="1468" d="M43 63h107q66 84 113.5 227.5t70 276.5t35 332t13.5 306.5t1 285.5h809v-1428h172l-18 -489h-68v426h-1151l-18 -426h-66v489zM231 63h877v1364h-645v-106q-1 -943 -232 -1258z" />
<glyph unicode="&#x415;" horiz-adv-x="1148" d="M193 0v1491h851v-64h-768v-575h682v-64h-682v-725h768v-63h-851z" />
<glyph unicode="&#x416;" horiz-adv-x="1611" d="M20 0l637 809l-634 682h108l602 -670h31v670h86v-670h33l598 670h110l-637 -682l637 -809h-102l-608 795h-31v-795h-86v795h-31l-610 -795h-103z" />
<glyph unicode="&#x417;" horiz-adv-x="1189" d="M106 66l17 77q4 -2 32.5 -13t53 -20.5t66.5 -22.5t81 -21.5t89.5 -14.5t97.5 -6q217 0 333.5 77t116.5 261q0 104 -36.5 182t-87 118t-120 61.5t-118.5 27.5t-105 6h-145v64h184q141 0 239.5 77.5t98.5 227.5q0 299 -338 299q-205 0 -395 -86l-25 63q186 88 420 88 q209 0 319.5 -82.5t110.5 -281.5q0 -264 -250 -330q178 -47 258 -140t80 -294q0 -221 -142 -312t-398 -91q-88 0 -194.5 20t-162 38t-80.5 28z" />
<glyph unicode="&#x418;" horiz-adv-x="1531" d="M193 0v1491h83v-1387l969 1387h96v-1491h-84v1386l-970 -1386h-94z" />
<glyph unicode="&#x419;" horiz-adv-x="1531" d="M193 0v1491h83v-1387l969 1387h96v-1491h-84v1386l-970 -1386h-94zM362 1831v43h84q0 -25 4.5 -44.5t21.5 -49t51 -49t102.5 -34t163 -14.5t162 14.5t101 34t52 49t21.5 49t3 44.5h86v-43q0 -78 -74.5 -129t-163.5 -67.5t-188 -16.5q-66 0 -134 10t-138 32.5t-112 67 t-42 103.5z" />
<glyph unicode="&#x41a;" horiz-adv-x="1257" d="M193 0v1491h83v-670h27l805 670h125l-840 -682l842 -809h-117l-815 786h-27v-786h-83z" />
<glyph unicode="&#x41b;" horiz-adv-x="1384" d="M43 70q31 -6 61 -7q152 0 222.5 353.5t70.5 1074.5h795v-1491h-84v1427h-639q0 -1448 -342 -1447q-31 0 -64 6z" />
<glyph unicode="&#x41c;" horiz-adv-x="1873" d="M150 0l126 1491h89l573 -1403l569 1403h90l127 -1491h-84l-112 1356l-547 -1356h-90l-543 1356l-115 -1356h-83z" />
<glyph unicode="&#x41d;" horiz-adv-x="1447" d="M193 0v1491h83v-639h895v639h86v-1491h-86v788h-895v-788h-83z" />
<glyph unicode="&#x41e;" horiz-adv-x="1460" d="M106 565v361q0 238 163 411.5t461 173.5t461 -174t163 -411v-361q0 -111 -38 -213t-113 -188t-196.5 -135t-275 -49t-276.5 49t-198 135t-113 188t-38 213zM199 565q0 -236 147.5 -379t384.5 -143q248 0 390.5 141.5t142.5 380.5v361q0 223 -145.5 372.5t-387.5 149.5 q-227 0 -379.5 -146.5t-152.5 -375.5v-361z" />
<glyph unicode="&#x41f;" horiz-adv-x="1490" d="M193 0v1491h1105v-1491h-84v1427h-938v-1427h-83z" />
<glyph unicode="&#x420;" horiz-adv-x="1198" d="M193 0v1491h425q250 0 363 -90t113 -336q0 -252 -117 -360.5t-359 -108.5h-342v-596h-83zM276 659h342q82 0 142.5 15.5t120 54.5t90 124t30.5 212q0 203 -97 282.5t-286 79.5h-342v-768z" />
<glyph unicode="&#x421;" horiz-adv-x="1167" d="M106 565v361q0 283 131.5 434t430.5 151q137 0 395 -86l-27 -65q-10 4 -67.5 22.5t-68.5 22.5t-54 16.5t-63.5 15.5t-53.5 7t-61 4q-250 0 -359.5 -129t-109.5 -393v-361q0 -522 469 -522q29 0 61.5 4t53 7t63.5 15.5t54 16.5t68.5 22.5t67.5 22.5l27 -65 q-258 -86 -395 -86q-299 0 -430.5 151t-131.5 434z" />
<glyph unicode="&#x422;" horiz-adv-x="1105" d="M43 1417v74h1022v-74h-469v-1417h-84v1417h-469z" />
<glyph unicode="&#x423;" horiz-adv-x="1191" d="M20 1491h101l506 -1153h6l454 1153h84l-458 -1157q-76 -195 -139.5 -274.5t-186.5 -79.5q-172 0 -299 57l25 67q133 -61 282 -61q68 0 108 47t93 166q-29 16 -51 72z" />
<glyph unicode="&#x424;" horiz-adv-x="1673" d="M106 725v127q0 250 133.5 381t385.5 131h170v190h86v-190h170q250 0 383 -131t133 -381v-127q0 -246 -134.5 -379t-381.5 -133h-170v-213h-86v213h-170q-250 0 -384.5 133t-134.5 379zM199 702q0 -426 426 -426h170v1022h-170q-426 0 -426 -426v-170zM881 276h170 q426 0 426 426v170q0 426 -426 426h-170v-1022z" />
<glyph unicode="&#x425;" horiz-adv-x="1210" d="M20 0l533 745l-533 746h117l477 -684l471 684h105l-533 -746l533 -745h-115l-477 682l-473 -682h-105z" />
<glyph unicode="&#x426;" horiz-adv-x="1531" d="M193 0v1491h83v-1428h895v1428h86v-1428h177l-17 -489h-76v426h-1148z" />
<glyph unicode="&#x427;" horiz-adv-x="1234" d="M150 938v553h83v-553q0 -180 80 -239.5t262 -59.5q240 0 383 12v840h86v-1491h-86v584q-178 -14 -383 -15q-207 0 -316 80t-109 289z" />
<glyph unicode="&#x428;" horiz-adv-x="1873" d="M193 0v1491h83v-1428h619v1428h84v-1428h618v1428h86v-1491h-1490z" />
<glyph unicode="&#x429;" horiz-adv-x="1957" d="M193 0v1491h83v-1428h619v1428h84v-1428h618v1428h86v-1428h170l-18 -489h-68v426h-1574z" />
<glyph unicode="&#x42a;" horiz-adv-x="1347" d="M43 1427l8 64h375v-623q219 33 340 33q248 0 361.5 -110.5t113.5 -344.5q0 -229 -112.5 -337.5t-362.5 -108.5h-426v1427h-297zM426 63h340q193 0 289 84t96 299.5t-96.5 300t-288.5 84.5q-168 0 -340 -28v-740z" />
<glyph unicode="&#x42b;" horiz-adv-x="1601" d="M193 0h425q248 0 362 108.5t114 337.5q0 233 -115 344t-361 111q-123 0 -342 -33v623h-83v-1491zM276 63v740q172 29 342 28q190 0 286.5 -84.5t96.5 -300t-96 -299.5t-287 -84h-342zM1325 0v1491h84v-1491h-84z" />
<glyph unicode="&#x42c;" horiz-adv-x="1198" d="M193 0v1491h83v-623q219 33 342 33q246 0 361 -110.5t115 -344.5q0 -229 -114 -337.5t-362 -108.5h-425zM276 63h342q190 0 286.5 84t96.5 299.5t-96 300t-287 84.5q-170 0 -342 -28v-740z" />
<glyph unicode="&#x42d;" horiz-adv-x="1126" d="M63 66l27 65q209 -88 371 -88q119 0 206 39t137 100.5t78.5 154.5t37 179t8.5 199v51h-596v65h596v25q0 287 -111.5 439.5t-333.5 152.5q-186 0 -393 -88l-27 65q201 86 398 86q281 0 420 -142t139 -443v-361q0 -274 -141.5 -429.5t-417.5 -155.5q-199 0 -398 86z" />
<glyph unicode="&#x42e;" horiz-adv-x="1794" d="M193 0v1491h83v-660h293v127q0 244 140.5 398.5t419 154.5t420 -154.5t141.5 -398.5v-426q0 -244 -141.5 -398t-420 -154t-419 154.5t-140.5 397.5v234h-293v-766h-83zM659 512q0 -203 124 -336t345.5 -133t345 133t123.5 336v467q0 203 -123.5 336t-345.5 133 q-217 0 -343 -134t-126 -335v-467z" />
<glyph unicode="&#x42f;" horiz-adv-x="1337" d="M150 1065q0 426 485 426h512v-1491h-86v639h-383l-418 -639h-108l432 639q-217 0 -325.5 113.5t-108.5 312.5zM252 1065q0 -203 96 -283t287 -80h426v725h-426q-190 0 -286.5 -79.5t-96.5 -282.5z" />
<glyph unicode="&#x430;" horiz-adv-x="1058" d="M96 297q0 137 107.5 207.5t281.5 70.5h342v203q0 131 -62.5 186.5t-193.5 55.5q-45 0 -91 -5t-92 -13.5t-76.5 -16.5t-72.5 -20.5t-57 -14.5l-14 72q4 0 58.5 14.5t96.5 23.5t113.5 17t134.5 8q98 0 165 -20.5t100.5 -49t51 -87t20.5 -97t3 -116.5v-715h-84v86 q-152 -109 -342 -109q-389 1 -389 320zM188 297q0 -254 297 -254q129 0 342 107v362h-342q-145 0 -221 -68.5t-76 -146.5z" />
<glyph unicode="&#x431;" horiz-adv-x="1173" d="M127 410v639q0 170 74.5 283.5t218.5 140.5l389 69q31 4 60.5 15.5t48.5 20.5l49 25q31 15 41 23l32 -86q-25 -14 -83 -38.5t-97 -33.5l-416 -77q-106 -20 -171.5 -118.5t-65.5 -223.5v-344q23 131 135.5 224t259.5 93q219 0 347 -108.5t128 -317.5v-186 q0 -182 -117.5 -306t-356 -124t-357.5 124t-119 306zM219 410q0 -162 104.5 -264.5t279.5 -102.5t279.5 104.5t104.5 262.5v186q0 158 -104.5 260t-280.5 102q-170 0 -276.5 -130t-106.5 -298v-120z" />
<glyph unicode="&#x432;" horiz-adv-x="1058" d="M150 0v1065h407q150 0 228.5 -56.5t78.5 -203.5q0 -158 -116 -223q217 -47 217 -279q0 -182 -101.5 -242.5t-308.5 -60.5h-405zM233 63h322q172 0 244.5 52.5t72.5 187.5q0 115 -72.5 167t-242.5 52h-324v-459zM233 586h324q217 0 217 219q0 197 -217 196h-324v-415z" />
<glyph unicode="&#x433;" horiz-adv-x="808" d="M150 0v1065h616v-74h-533v-991h-83z" />
<glyph unicode="&#x434;" horiz-adv-x="1212" d="M43 63h100q70 76 114 194t59.5 278.5t19.5 262t4 267.5h639v-1002h129l-14 -403h-72v340h-895l-14 -340h-70v403zM227 63h668v938h-469q0 -145 -4 -237t-21.5 -227.5t-60.5 -253.5t-113 -220z" />
<glyph unicode="&#x435;" horiz-adv-x="1058" d="M96 383v235q0 217 104.5 342t327.5 125q436 0 437 -426v-159h-777v-117q0 -178 95.5 -259t287.5 -81q111 0 359 94l16 -71q-242 -86 -375 -86q-233 0 -354 92t-121 311zM188 553h684v129q0 166 -87 253t-257 87q-340 0 -340 -383v-86z" />
<glyph unicode="&#x436;" horiz-adv-x="1355" d="M20 0l515 553l-512 512h120l475 -500h19v500h86v-500h18l476 500h118l-512 -512l510 -553h-116l-476 543h-18v-543h-86v543h-19l-479 -543h-119z" />
<glyph unicode="&#x437;" horiz-adv-x="1026" d="M96 68l27 67q16 -10 61 -29.5t125 -41t148 -21.5q186 0 284.5 69.5t98.5 196.5q0 129 -99.5 192.5t-265.5 63.5h-211v64h211q279 0 279 202q0 86 -77 138.5t-220 52.5q-135 0 -316 -86l-28 65q176 84 344 84q197 0 293 -55t96 -199q0 -156 -182 -215q63 -23 99 -38 t81 -49.5t65.5 -89t20.5 -130.5q0 -330 -473 -329q-183 0 -361 88z" />
<glyph unicode="&#x438;" horiz-adv-x="1171" d="M150 0v1065h83v-944l705 944h84v-1065h-84v942l-705 -942h-83z" />
<glyph unicode="&#x439;" horiz-adv-x="1171" d="M150 0v1065h83v-944l705 944h84v-1065h-84v942l-705 -942h-83zM205 1448v43h84v-23q0 -45 9 -70.5t36.5 -51t90 -37t163.5 -11.5q174 0 236.5 53.5t62.5 139.5h84v-43q0 -213 -383 -213t-383 213z" />
<glyph unicode="&#x43a;" horiz-adv-x="995" d="M150 0v1065h83v-492h11l592 492h139l-647 -504l645 -561h-127l-602 537h-11v-537h-83z" />
<glyph unicode="&#x43b;" horiz-adv-x="1140" d="M43 88q43 -10 55 -10q78 0 134.5 98t83 260t38 313.5t11.5 315.5h628v-1065h-86v1001h-469q0 -127 -3 -218t-12 -221t-32.5 -220t-58.5 -177t-95.5 -131t-138.5 -44q-23 0 -43 10z" />
<glyph unicode="&#x43c;" horiz-adv-x="1574" d="M150 0l106 1065h88l444 -993l443 993h90l106 -1065h-86l-88 928l-417 -928h-95l-417 928l-91 -928h-83z" />
<glyph unicode="&#x43d;" horiz-adv-x="1148" d="M150 0v1065h83v-469h682v469h86v-1065h-86v541h-682v-541h-83z" />
<glyph unicode="&#x43e;" horiz-adv-x="1140" d="M96 410v245q0 195 127 312.5t348.5 117.5t348.5 -117.5t127 -312.5v-245q0 -195 -127 -312.5t-348.5 -117.5t-348.5 117.5t-127 312.5zM188 410q0 -164 103.5 -265.5t278.5 -101.5t279.5 101.5t104.5 265.5v245q0 164 -104.5 265.5t-279.5 101.5t-278.5 -101.5 t-103.5 -265.5v-245z" />
<glyph unicode="&#x43f;" horiz-adv-x="1128" d="M150 0v1065h829v-1065h-84v1001h-662v-1001h-83z" />
<glyph unicode="&#x440;" horiz-adv-x="1144" d="M150 -426v1491h83v-86q174 106 342 106q238 0 357 -143t119 -410q0 -553 -476 -552q-168 0 -342 106v-512h-83zM233 150q182 -106 342 -107q383 0 383 489.5t-383 489.5q-170 0 -342 -107v-765z" />
<glyph unicode="&#x441;" horiz-adv-x="966" d="M96 446v172q0 221 123 344t352 123q182 0 353 -86l-21 -71q-8 6 -42 19.5t-48 18.5t-45 17t-50.5 16.5t-47 11.5t-52 9t-47.5 2q-190 0 -286.5 -107.5t-96.5 -296.5v-172q0 -190 96.5 -296.5t286.5 -106.5q117 0 334 94l19 -71q-217 -86 -353 -86q-227 0 -351 121.5 t-124 344.5z" />
<glyph unicode="&#x442;" horiz-adv-x="935" d="M43 991v74h852v-74h-383v-991h-86v991h-383z" />
<glyph unicode="&#x443;" horiz-adv-x="1050" d="M20 1065h109l455 -1016l356 1016h90l-362 -999q-90 -248 -138 -357q-39 -92 -98 -145t-164 -53q-113 0 -207 49l29 65q84 -43 168 -43q72 0 119 33t84 123l104 262q-25 4 -49 24.5t-35 43.5z" />
<glyph unicode="&#x444;" horiz-adv-x="1566" d="M96 553q0 532 453 532q37 0 69.5 -6t51 -12t42 -16.5t29.5 -14.5v455h86v-455q113 49 191 49q455 0 455 -532q0 -268 -110 -420.5t-345 -152.5q-100 0 -191 49v-455h-86v455q-88 -49 -192 -49q-233 0 -343 152.5t-110 420.5zM188 553q0 -510 361 -510q96 0 192 53v873 q-96 53 -192 53q-180 0 -270.5 -127t-90.5 -342zM827 96q88 -53 191 -53q362 0 362 510q0 215 -90 342t-272 127q-106 0 -191 -53v-873z" />
<glyph unicode="&#x445;" horiz-adv-x="1001" d="M20 0l426 532l-426 533h121l375 -485l356 485h109l-426 -533l426 -532h-119l-370 485l-363 -485h-109z" />
<glyph unicode="&#x446;" horiz-adv-x="1171" d="M150 0v1065h83v-1002h639v1002h86v-1002h127l-18 -403h-66v340h-851z" />
<glyph unicode="&#x447;" horiz-adv-x="1064" d="M127 766v299h86v-320q0 -162 61.5 -230.5t237.5 -68.5q141 0 319 35v584h84v-1065h-84v418q-199 -35 -319 -35q-199 0 -292 90t-93 293z" />
<glyph unicode="&#x448;" horiz-adv-x="1574" d="M150 0v1065h83v-1002h512v1002h86v-1002h510v1002h86v-1065h-1277z" />
<glyph unicode="&#x449;" horiz-adv-x="1681" d="M150 0v1065h83v-1002h555v1002h84v-1002h512v1002h86v-1002h127l-14 -403h-72v340h-1361z" />
<glyph unicode="&#x44a;" horiz-adv-x="1136" d="M43 1001v64h352v-426h281q178 0 272 -71.5t94 -243.5q0 -182 -94 -253t-272 -71h-365v1001h-268zM395 63h281q160 0 217 58.5t57 202.5q0 125 -57 188t-217 63h-281v-512z" />
<glyph unicode="&#x44b;" horiz-adv-x="1331" d="M150 0v1065h83v-426h281q178 0 272.5 -71.5t94.5 -243.5q0 -182 -94.5 -253t-272.5 -71h-364zM233 63h281q160 0 217 58.5t57 202.5q0 125 -57 188t-217 63h-281v-512zM1094 0v1065h88v-1065h-88z" />
<glyph unicode="&#x44c;" horiz-adv-x="974" d="M150 0v1065h83v-426h281q178 0 272.5 -71.5t94.5 -243.5q0 -182 -94.5 -253t-272.5 -71h-364zM233 63h281q160 0 217 58.5t57 202.5q0 125 -57 188t-217 63h-281v-512z" />
<glyph unicode="&#x44d;" horiz-adv-x="1019" d="M96 66l19 71q213 -94 334 -94q190 0 287.5 106.5t97.5 296.5v80h-566v64h566v28q0 188 -97.5 296t-287.5 108q-147 0 -332 -94l-21 71q170 86 353 86q229 0 352 -122.5t123 -344.5v-172q0 -223 -124 -344.5t-351 -121.5q-165 0 -353 86z" />
<glyph unicode="&#x44e;" horiz-adv-x="1570" d="M150 0v1065h83v-479h293v90q0 188 127 298.5t348.5 110.5t348.5 -117.5t127 -312.5v-245q0 -195 -127 -312.5t-349 -117.5q-223 0 -349 124.5t-126 350.5v67h-293v-522h-83zM618 410q0 -164 104.5 -265.5t279 -101.5t278.5 101.5t104 265.5v245q0 164 -104 265.5 t-278.5 101.5t-279 -101.5t-104.5 -265.5v-245z" />
<glyph unicode="&#x44f;" horiz-adv-x="1124" d="M106 0l383 406q-180 0 -276 69.5t-96 249.5q0 340 391 340h467v-1065h-84v406h-303l-363 -406h-119zM209 725q0 -137 70.5 -196.5t228.5 -59.5h383v532h-383q-156 0 -227.5 -69.5t-71.5 -206.5z" />
<glyph unicode="&#x450;" horiz-adv-x="1058" d="M371 1638h109l83 -407l-65 -17zM96 383v235q0 217 104.5 342t327.5 125q436 0 437 -426v-159h-777v-117q0 -178 95.5 -259t287.5 -81q111 0 359 94l16 -71q-242 -86 -375 -86q-233 0 -354 92t-121 311zM188 553h684v129q0 166 -87 253t-257 87q-340 0 -340 -383v-86z" />
<glyph unicode="&#x451;" horiz-adv-x="1058" d="M96 383v235q0 217 104.5 342t327.5 125q436 0 437 -426v-159h-777v-117q0 -178 95.5 -259t287.5 -81q111 0 359 94l16 -71q-242 -86 -375 -86q-233 0 -354 92t-121 311zM188 553h684v129q0 166 -87 253t-257 87q-340 0 -340 -383v-86zM315 1241v250h129v-250h-129z M614 1241v250h129v-250h-129z" />
<glyph unicode="&#x453;" horiz-adv-x="808" d="M426 1225l84 413h108l-126 -423zM150 0v1065h616v-74h-533v-991h-83z" />
<glyph unicode="&#x455;" horiz-adv-x="1011" d="M96 57l15 66q248 -80 401 -80q111 0 181.5 20.5t97 57.5t33.5 61.5t7 61.5q0 115 -126 176q-51 25 -138.5 46t-161 39.5t-144.5 49.5t-113 90.5t-42 149.5q0 150 115 220t295 70q168 0 365 -71l-23 -64q-6 2 -39 13.5t-44 15.5t-40.5 13t-48.5 13l-49 8q-31 5 -61.5 7 t-63.5 2q-170 0 -244.5 -72.5t-74.5 -154.5q0 -55 32.5 -98.5t86 -65t147.5 -43t164.5 -42t142.5 -54t110.5 -96t38.5 -152.5q0 -84 -31.5 -139.5t-93 -81t-126 -34.5t-152.5 -9q-197 -1 -416 77z" />
<glyph unicode="&#x456;" horiz-adv-x="382" d="M150 0v1065h83v-1065h-83zM150 1241v250h83v-250h-83z" />
<glyph unicode="&#x457;" horiz-adv-x="382" d="M-23 1618v250h131v-250h-131zM276 1618v250h129v-250h-129zM150 0v1065h83v-1065h-83zM150 1241v250h83v-250h-83z" />
<glyph unicode="&#x458;" horiz-adv-x="382" d="M-287 -381l11 66q150 -47 213 -47q213 0 213 276v1151h83v-1151q0 -340 -296 -340q-81 0 -224 45zM150 1241v250h83v-250h-83z" />
<glyph unicode="&#x45c;" horiz-adv-x="995" d="M528 1225l84 413h108l-126 -423zM150 0v1065h83v-492h11l592 492h139l-647 -504l645 -561h-127l-602 537h-11v-537h-83z" />
<glyph unicode="&#x45d;" horiz-adv-x="1171" d="M426 1638h109l83 -407l-65 -17zM150 0v1065h83v-944l705 944h84v-1065h-84v942l-705 -942h-83z" />
<glyph unicode="&#x4ae;" horiz-adv-x="1206" d="M20 1491h109l481 -793l475 793h101l-539 -866v-625h-84v627z" />
<glyph unicode="&#x4c0;" horiz-adv-x="722" d="M63 0v63h256v1364h-256v64h596v-64h-253v-1364h253v-63h-596z" />
<glyph unicode="&#x4d2;" horiz-adv-x="1325" d="M451 1638v250h131v-250h-131zM750 1638v250h129v-250h-129zM86 0l528 1491h101l526 -1491h-90l-168 485h-641l-166 -485h-90zM367 549h596l-299 872z" />
<glyph unicode="&#x4d3;" horiz-adv-x="1058" d="M358 1212v250h131v-250h-131zM657 1212v250h129v-250h-129zM96 297q0 137 107.5 207.5t281.5 70.5h342v203q0 131 -62.5 186.5t-193.5 55.5q-45 0 -91 -5t-92 -13.5t-76.5 -16.5t-72.5 -20.5t-57 -14.5l-14 72q4 0 58.5 14.5t96.5 23.5t113.5 17t134.5 8q98 0 165 -20.5 t100.5 -49t51 -87t20.5 -97t3 -116.5v-715h-84v86q-152 -109 -342 -109q-389 1 -389 320zM188 297q0 -254 297 -254q129 0 342 107v362h-342q-145 0 -221 -68.5t-76 -146.5z" />
<glyph unicode="&#x4dc;" horiz-adv-x="1611" d="M592 1638v250h131v-250h-131zM891 1638v250h129v-250h-129zM20 0l637 809l-634 682h108l602 -670h31v670h86v-670h33l598 670h110l-637 -682l637 -809h-102l-608 795h-31v-795h-86v795h-31l-610 -795h-103z" />
<glyph unicode="&#x4dd;" horiz-adv-x="1355" d="M465 1212v250h131v-250h-131zM764 1212v250h129v-250h-129zM20 0l515 553l-512 512h120l475 -500h19v500h86v-500h18l476 500h118l-512 -512l510 -553h-116l-476 543h-18v-543h-86v543h-19l-479 -543h-119z" />
<glyph unicode="&#x4de;" horiz-adv-x="1189" d="M348 1638v250h131v-250h-131zM647 1638v250h129v-250h-129zM106 66l17 77q4 -2 32.5 -13t53 -20.5t66.5 -22.5t81 -21.5t89.5 -14.5t97.5 -6q217 0 333.5 77t116.5 261q0 104 -36.5 182t-87 118t-120 61.5t-118.5 27.5t-105 6h-145v64h184q141 0 239.5 77.5t98.5 227.5 q0 299 -338 299q-205 0 -395 -86l-25 63q186 88 420 88q209 0 319.5 -82.5t110.5 -281.5q0 -264 -250 -330q178 -47 258 -140t80 -294q0 -221 -142 -312t-398 -91q-88 0 -194.5 20t-162 38t-80.5 28z" />
<glyph unicode="&#x4df;" horiz-adv-x="1026" d="M242 1212v250h131v-250h-131zM541 1212v250h129v-250h-129zM96 68l27 67q16 -10 61 -29.5t125 -41t148 -21.5q186 0 284.5 69.5t98.5 196.5q0 129 -99.5 192.5t-265.5 63.5h-211v64h211q279 0 279 202q0 86 -77 138.5t-220 52.5q-135 0 -316 -86l-28 65q176 84 344 84 q197 0 293 -55t96 -199q0 -156 -182 -215q63 -23 99 -38t81 -49.5t65.5 -89t20.5 -130.5q0 -330 -473 -329q-183 0 -361 88z" />
<glyph unicode="&#x4e4;" horiz-adv-x="1531" d="M553 1638v250h131v-250h-131zM852 1638v250h129v-250h-129zM193 0v1491h83v-1387l969 1387h96v-1491h-84v1386l-970 -1386h-94z" />
<glyph unicode="&#x4e5;" horiz-adv-x="1171" d="M371 1212v250h131v-250h-131zM670 1212v250h129v-250h-129zM150 0v1065h83v-944l705 944h84v-1065h-84v942l-705 -942h-83z" />
<glyph unicode="&#x4e6;" horiz-adv-x="1460" d="M514 1638v250h131v-250h-131zM813 1638v250h129v-250h-129zM106 565v361q0 238 163 411.5t461 173.5t461 -174t163 -411v-361q0 -111 -38 -213t-113 -188t-196.5 -135t-275 -49t-276.5 49t-198 135t-113 188t-38 213zM199 565q0 -236 147.5 -379t384.5 -143 q248 0 390.5 141.5t142.5 380.5v361q0 223 -145.5 372.5t-387.5 149.5q-227 0 -379.5 -146.5t-152.5 -375.5v-361z" />
<glyph unicode="&#x4e7;" horiz-adv-x="1140" d="M358 1212v250h131v-250h-131zM657 1212v250h129v-250h-129zM96 410v245q0 195 127 312.5t348.5 117.5t348.5 -117.5t127 -312.5v-245q0 -195 -127 -312.5t-348.5 -117.5t-348.5 117.5t-127 312.5zM188 410q0 -164 103.5 -265.5t278.5 -101.5t279.5 101.5t104.5 265.5v245 q0 164 -104.5 265.5t-279.5 101.5t-278.5 -101.5t-103.5 -265.5v-245z" />
<glyph unicode="&#x4ec;" horiz-adv-x="1126" d="M246 1638v250h131v-250h-131zM545 1638v250h129v-250h-129zM63 66l27 65q209 -88 371 -88q119 0 206 39t137 100.5t78.5 154.5t37 179t8.5 199v51h-596v65h596v25q0 287 -111.5 439.5t-333.5 152.5q-186 0 -393 -88l-27 65q201 86 398 86q281 0 420 -142t139 -443v-361 q0 -274 -141.5 -429.5t-417.5 -155.5q-199 0 -398 86z" />
<glyph unicode="&#x4ed;" horiz-adv-x="1019" d="M233 1212v250h131v-250h-131zM532 1212v250h129v-250h-129zM96 66l19 71q213 -94 334 -94q190 0 287.5 106.5t97.5 296.5v80h-566v64h566v28q0 188 -97.5 296t-287.5 108q-147 0 -332 -94l-21 71q170 86 353 86q229 0 352 -122.5t123 -344.5v-172q0 -223 -124 -344.5 t-351 -121.5q-165 0 -353 86z" />
<glyph unicode="&#x4f0;" horiz-adv-x="1191" d="M383 1638v250h131v-250h-131zM682 1638v250h129v-250h-129zM20 1491h101l506 -1153h6l454 1153h84l-458 -1157q-76 -195 -139.5 -274.5t-186.5 -79.5q-172 0 -299 57l25 67q133 -61 282 -61q68 0 108 47t93 166q-29 16 -51 72z" />
<glyph unicode="&#x4f1;" horiz-adv-x="1050" d="M311 1212v250h131v-250h-131zM610 1212v250h129v-250h-129zM20 1065h109l455 -1016l356 1016h90l-362 -999q-90 -248 -138 -357q-39 -92 -98 -145t-164 -53q-113 0 -207 49l29 65q84 -43 168 -43q72 0 119 33t84 123l104 262q-25 4 -49 24.5t-35 43.5z" />
<glyph unicode="&#x4f4;" horiz-adv-x="1234" d="M383 1638v250h131v-250h-131zM682 1638v250h129v-250h-129zM150 938v553h83v-553q0 -180 80 -239.5t262 -59.5q240 0 383 12v840h86v-1491h-86v584q-178 -14 -383 -15q-207 0 -316 80t-109 289z" />
<glyph unicode="&#x4f5;" horiz-adv-x="1064" d="M307 1212v250h131v-250h-131zM606 1212v250h129v-250h-129zM127 766v299h86v-320q0 -162 61.5 -230.5t237.5 -68.5q141 0 319 35v584h84v-1065h-84v418q-199 -35 -319 -35q-199 0 -292 90t-93 293z" />
<glyph unicode="&#x4f8;" horiz-adv-x="1601" d="M588 1638v250h131v-250h-131zM887 1638v250h129v-250h-129zM193 0h425q248 0 362 108.5t114 337.5q0 233 -115 344t-361 111q-123 0 -342 -33v623h-83v-1491zM276 63v740q172 29 342 28q190 0 286.5 -84.5t96.5 -300t-96 -299.5t-287 -84h-342zM1325 0v1491h84v-1491h-84 z" />
<glyph unicode="&#x4f9;" horiz-adv-x="1331" d="M451 1212v250h131v-250h-131zM750 1212v250h129v-250h-129zM150 0v1065h83v-426h281q178 0 272.5 -71.5t94.5 -243.5q0 -182 -94.5 -253t-272.5 -71h-364zM233 63h281q160 0 217 58.5t57 202.5q0 125 -57 188t-217 63h-281v-512zM1094 0v1065h88v-1065h-88z" />
<glyph unicode="&#x2000;" horiz-adv-x="1032" />
<glyph unicode="&#x2001;" horiz-adv-x="2064" />
<glyph unicode="&#x2002;" horiz-adv-x="1032" />
<glyph unicode="&#x2003;" horiz-adv-x="2064" />
<glyph unicode="&#x2004;" horiz-adv-x="688" />
<glyph unicode="&#x2005;" horiz-adv-x="516" />
<glyph unicode="&#x2006;" horiz-adv-x="344" />
<glyph unicode="&#x2007;" horiz-adv-x="344" />
<glyph unicode="&#x2008;" horiz-adv-x="258" />
<glyph unicode="&#x2009;" horiz-adv-x="411" />
<glyph unicode="&#x200a;" horiz-adv-x="114" />
<glyph unicode="&#x2010;" horiz-adv-x="1021" d="M193 659v86h638v-86h-638z" />
<glyph unicode="&#x2011;" horiz-adv-x="1021" d="M193 659v86h638v-86h-638z" />
<glyph unicode="&#x2012;" horiz-adv-x="1021" d="M193 659v86h638v-86h-638z" />
<glyph unicode="&#x2013;" horiz-adv-x="1447" d="M193 702v86h1064v-86h-1064z" />
<glyph unicode="&#x2014;" horiz-adv-x="2023" d="M193 702v86h1638v-86h-1638z" />
<glyph unicode="&#x2018;" horiz-adv-x="512" d="M178 1049v135q0 184 98 413l46 -12q-74 -180 -74 -315h61v-221h-131z" />
<glyph unicode="&#x2019;" horiz-adv-x="512" d="M178 954q76 178 76 316h-61v221h129v-137q0 -182 -99 -412z" />
<glyph unicode="&#x201a;" horiz-adv-x="512" d="M178 -315q76 178 76 315h-61v221h129v-135q0 -184 -99 -414z" />
<glyph unicode="&#x201c;" horiz-adv-x="768" d="M178 1049v135q0 184 98 413l46 -12q-74 -180 -74 -315h61v-221h-131zM414 1049v135q0 184 98 413l43 -12q-74 -180 -74 -315h62v-221h-129z" />
<glyph unicode="&#x201d;" horiz-adv-x="768" d="M178 954q76 178 76 316h-61v221h129v-137q0 -182 -99 -412zM414 954q74 178 73 316h-61v221h129v-137q0 -182 -96 -412z" />
<glyph unicode="&#x201e;" horiz-adv-x="768" d="M178 -315q76 178 76 315h-61v221h129v-135q0 -184 -99 -414zM414 -315q74 178 73 315h-61v221h129v-135q0 -184 -96 -414z" />
<glyph unicode="&#x2026;" horiz-adv-x="1155" d="M193 0v221h129v-221h-129zM514 0v221h129v-221h-129zM836 0v221h129v-221h-129z" />
<glyph unicode="&#x202f;" horiz-adv-x="411" />
<glyph unicode="&#x2039;" horiz-adv-x="1298" d="M193 485v95q573 315 862 475v-101l-768 -422l768 -421v-101q-96 53 -397 219t-465 256z" />
<glyph unicode="&#x203a;" horiz-adv-x="1298" d="M193 10v101l765 421l-765 422v101q287 -160 862 -475v-95q-162 -88 -455.5 -251t-406.5 -224z" />
<glyph unicode="&#x205f;" horiz-adv-x="516" />
<glyph unicode="&#x20ac;" horiz-adv-x="1439" d="M193 659h106v193h-86l-20 63h106v33q0 293 138 428t415 135q178 0 391 -90l-22 -67q-219 94 -369 94q-242 0 -355.5 -124t-113.5 -376v-33h756l-13 -63h-743v-193h711l-15 -63h-696v-53q0 -229 119 -364.5t350 -135.5q59 0 121.5 13.5t107.5 28.5t142 52l24 -71 q-229 -86 -395 -86q-272 0 -412.5 147t-140.5 416v53h-86z" />
<glyph unicode="&#x2122;" horiz-adv-x="1812" d="M131 1432v59h512v-59h-223v-684h-64v684h-225zM748 748l65 743h86l285 -678l286 678h86l64 -743h-64l-57 655l-270 -655h-90l-271 655l-55 -655h-65z" />
<glyph unicode="&#xe000;" horiz-adv-x="1065" d="M0 1065h1065v-1065h-1065v1065z" />
</font>
</defs>
</svg>
