<?xml version="1.0" standalone="no"?>
<!DOCTYPE svg PUBLIC "-//W3C//DTD SVG 1.1//EN" "http://www.w3.org/Graphics/SVG/1.1/DTD/svg11.dtd" >
<svg xmlns="http://www.w3.org/2000/svg">
<metadata>
This is a custom SVG webfont generated by Font Squirrel.
Copyright   : Copyright 1998 DoubleAlex Font Studio  Tornado is a trademark of DoubleAlex Font Studio
Foundry     : DoubleAlex Font Studio Tornado is a trademark of DoubleAlex Font Studio
</metadata>
<defs>
<font id="TornadoCyrRegular" horiz-adv-x="1290" >
<font-face units-per-em="2048" ascent="1638" descent="-410" />
<missing-glyph horiz-adv-x="647" />
<glyph unicode=" "  horiz-adv-x="647" />
<glyph unicode="&#x09;" horiz-adv-x="647" />
<glyph unicode="&#xa0;" horiz-adv-x="647" />
<glyph unicode="!" horiz-adv-x="909" d="M207 0l47 330h344l-47 -330h-344zM311 504l21 540l57 414h387l-57 -414l-131 -540h-277z" />
<glyph unicode="&#x22;" horiz-adv-x="1251" d="M362 897l58 561h266l-98 -561h-226zM766 897l57 561h267l-99 -561h-225z" />
<glyph unicode="#" d="M111 393l30 217h205l68 242h-176l30 217h203l111 389h209l-107 -389h193l108 389h207l-107 -389h146l-31 -217h-172l-67 -242h145l-31 -217h-176l-108 -393h-209l108 393h-194l-109 -393h-209l107 393h-174zM557 610h195l67 242h-194z" />
<glyph unicode="$" d="M86 29l39 280q178 -72 399 -71l54 370q-174 29 -296 135.5t-122 266.5q0 229 161.5 344.5t405.5 128.5l27 178h108l-26 -178q242 0 366 -64l-37 -266q-160 80 -364 80l-45 -334q430 -100 430 -407q0 -242 -166 -377t-420 -140l-27 -180h-110l26 180q-68 0 -208 15.5 t-195 38.5zM487 1059q0 -115 162 -137l43 311q-82 -4 -143.5 -50t-61.5 -124zM635 238q100 10 162.5 62t62.5 149q0 111 -174 145z" />
<glyph unicode="%" horiz-adv-x="2048" d="M150 938q0 106 23.5 199.5t71.5 173.5t134 126t201 46q311 0 311 -320q0 -231 -105.5 -383.5t-326.5 -152.5q-309 0 -309 311zM397 926q0 -123 86 -123q39 0 67 22.5t43 67.5t21.5 75.5t14.5 86.5q12 74 12 121q0 129 -88 129q-37 0 -64.5 -22.5t-41 -61.5t-20.5 -74 t-13 -74q-2 -12 -2 -18q-15 -115 -15 -129zM428 -47l1022 1552h215l-1020 -1552h-217zM1208 289q0 145 39 262t139.5 198.5t249.5 81.5q313 0 314 -319q0 -109 -23.5 -202t-73 -170t-136.5 -121t-201 -44q-308 1 -308 314zM1456 274q0 -121 86 -120q39 0 66.5 22.5t43 66.5 t21.5 75.5t15 84.5q10 92 10 121q0 131 -86 131q-37 0 -64.5 -22.5t-41 -61.5t-20.5 -73.5t-13 -75.5q-2 -12 -3 -19q-14 -115 -14 -129z" />
<glyph unicode="&#x26;" horiz-adv-x="1662" d="M74 369q0 166 90 265t264 177q-143 123 -143 291q0 106 49 184t131 119t172 59.5t192 18.5q195 0 329 -80t134 -238q0 -37 -6 -69.5t-23.5 -62t-28.5 -51t-44 -48.5t-46.5 -39t-57.5 -38t-55 -32t-62 -32.5t-58 -28.5l226 -240q104 96 141 260h340q-57 -279 -301 -491 l229 -293h-422q-45 78 -73 113q-182 -137 -482 -138q-205 0 -350 106t-145 288zM430 393q0 -80 63.5 -128t149.5 -48q119 0 242 86q-121 152 -287 326q-168 -86 -168 -236zM616 1102q0 -84 121 -187q53 29 72.5 41.5t62.5 44t60.5 65.5t17.5 75q0 55 -42 84.5t-107 29.5 q-72 0 -128.5 -41.5t-56.5 -111.5z" />
<glyph unicode="'" horiz-adv-x="681" d="M279 897l57 561h266l-98 -561h-225z" />
<glyph unicode="(" horiz-adv-x="792" d="M137 432q0 551 461 1116h299q-428 -561 -428 -1126q0 -348 160 -709h-291q-201 344 -201 719z" />
<glyph unicode=")" horiz-adv-x="792" d="M-80 -287q428 559 428 1123q0 362 -172 712h301q203 -334 203 -721q0 -557 -461 -1114h-299z" />
<glyph unicode="*" horiz-adv-x="1251" d="M252 1055l76 235l276 -137l-45 305h248l-45 -303l272 135l72 -237l-295 -54l211 -217l-205 -147l-139 272l-150 -270l-196 145l215 215z" />
<glyph unicode="+" horiz-adv-x="1228" d="M102 385v266h385v385h267v-385h385v-266h-385v-385h-267v385h-385z" />
<glyph unicode="," horiz-adv-x="638" d="M-49 -223l211 561h344l-281 -561h-274z" />
<glyph unicode="-" horiz-adv-x="690" d="M53 412l37 278h549l-37 -278h-549z" />
<glyph unicode="." horiz-adv-x="638" d="M72 0l47 338h346l-47 -338h-346z" />
<glyph unicode="/" horiz-adv-x="587" d="M-29 -25l422 1508h269l-422 -1508h-269z" />
<glyph unicode="0" d="M78 500q0 143 19.5 275t69.5 264t126 227.5t200.5 156t282.5 60.5q487 0 488 -529q0 -143 -19.5 -274t-70 -263t-127 -227.5t-201.5 -155t-283 -59.5q-485 1 -485 525zM451 477q0 -244 149 -244q84 0 145.5 86.5t90 217.5t41 241.5t12.5 202.5q0 244 -150 244 q-84 0 -145.5 -86t-90 -217t-40.5 -242t-12 -203z" />
<glyph unicode="1" d="M223 1133l541 325h340l-205 -1458h-387l152 1077l-316 -209z" />
<glyph unicode="2" d="M45 0l41 283q362 272 477 372q262 229 262 385q0 80 -54 120t-142 40t-202 -26.5t-191 -65.5l40 295q242 80 439 80q229 0 368.5 -99.5t139.5 -281.5q0 -106 -51.5 -213t-144.5 -205t-170 -164.5t-183 -146.5l-137 -103h593l-38 -270h-1047z" />
<glyph unicode="3" d="M47 23l41 296q111 -66 358 -65q76 0 144.5 18.5t124 70.5t55.5 130q0 150 -248 150h-155l32 239h154q104 0 190 49.5t86 145.5q0 147 -233 147q-215 0 -352 -55l37 274q213 59 428 59.5t367.5 -86.5t152.5 -268q0 -276 -320 -358v-4q117 -27 182.5 -102.5t65.5 -186.5 q0 -109 -43 -196.5t-112.5 -143t-163 -93.5t-187.5 -53.5t-192 -15.5q-277 1 -412 48z" />
<glyph unicode="4" d="M2 281l45 321l707 856h426l-129 -917h213l-37 -260h-213l-39 -281h-361l39 281h-651zM305 539h410l86 620h-4z" />
<glyph unicode="5" d="M76 27l43 301q145 -72 338 -72q139 0 237.5 66.5t98.5 201.5q0 100 -88.5 145.5t-215.5 45.5q-166 0 -305 -33l109 776h950l-37 -258h-610l-37 -260q106 10 131 10q209 0 345 -103.5t136 -291.5q0 -152 -58 -265.5t-159.5 -181t-226.5 -100.5t-270 -33q-172 1 -381 52z " />
<glyph unicode="6" d="M92 504q0 182 46 352t136.5 312.5t244 228.5t347.5 86q203 0 361 -62l-39 -276q-117 72 -309 72q-182 0 -279.5 -113t-128.5 -324h4q123 143 346 144q172 0 274.5 -104.5t102.5 -272.5q0 -246 -188.5 -409t-438.5 -163q-246 0 -362.5 144.5t-116.5 384.5zM434 406 q0 -82 44 -134.5t126 -52.5q106 0 166.5 80t60.5 190q0 82 -39.5 133.5t-123.5 51.5q-106 0 -170 -79.5t-64 -188.5z" />
<glyph unicode="7" d="M162 0l712 1182h-655l39 276h1047l-45 -317l-678 -1141h-420z" />
<glyph unicode="8" d="M45 344q0 303 342 401v5q-92 35 -150.5 114.5t-58.5 173.5q0 119 52.5 209t140.5 139.5t188 73t211 23.5q209 0 344 -88t135 -246q0 -268 -293 -369v-4q113 -37 180.5 -121t67.5 -204q0 -129 -55 -225.5t-149.5 -148.5t-203 -77t-233.5 -25q-229 0 -373.5 94.5 t-144.5 274.5zM426 393q0 -72 48 -118t122 -46q98 0 165.5 64.5t67.5 161.5q0 135 -192 192q-211 -84 -211 -254zM528 1036q0 -45 27 -80.5t55.5 -54t77.5 -41.5q96 47 151.5 102.5t55.5 139.5q0 68 -47 104.5t-115 36.5q-84 0 -144.5 -61.5t-60.5 -145.5z" />
<glyph unicode="9" d="M113 37l39 276q117 -72 309 -71q184 0 280.5 111.5t128.5 324.5h-4q-123 -143 -344 -143q-172 0 -274.5 113.5t-102.5 283.5q0 246 182.5 398.5t434.5 152.5q248 0 368.5 -145.5t120.5 -385.5q0 -145 -28.5 -283.5t-90 -264t-150.5 -221t-220 -152t-289 -56.5 q-202 1 -360 62zM508 971q0 -82 40 -134.5t126 -52.5q104 0 167.5 81t63.5 188q0 82 -43 134t-125 52q-109 0 -169 -79.5t-60 -188.5z" />
<glyph unicode=":" horiz-adv-x="638" d="M72 0l47 332h346l-47 -332h-346zM174 735l47 332h346l-47 -332h-346z" />
<glyph unicode=";" horiz-adv-x="638" d="M-90 -223l211 557h344l-281 -557h-274zM174 735l47 332h346l-47 -332h-346z" />
<glyph unicode="&#x3c;" horiz-adv-x="1228" d="M94 406v225l1036 424v-254l-692 -283l692 -282v-254z" />
<glyph unicode="=" horiz-adv-x="1228" d="M102 147v267h1037v-267h-1037zM102 623v264h1037v-264h-1037z" />
<glyph unicode="&#x3e;" horiz-adv-x="1228" d="M141 -18v254l693 282l-693 283v254l1037 -424v-225z" />
<glyph unicode="?" horiz-adv-x="1165" d="M223 1139l39 282q213 61 440 62q115 0 215.5 -32t172 -106.5t71.5 -181.5q0 -84 -39 -156.5t-87 -115.5t-117.5 -104.5t-108.5 -108.5q-68 -86 -86 -174h-299q25 145 176 305l35 35q33 33 41 43t33.5 40.5t35 49t19.5 46.5t10 52q0 68 -67.5 102.5t-149.5 34.5 q-176 1 -334 -73zM330 0l47 330h344l-47 -330h-344z" />
<glyph unicode="@" horiz-adv-x="1638" d="M100 731q0 326 224.5 539t568.5 213q301 0 510 -170t209 -439q0 -129 -44 -234t-107.5 -167.5t-140.5 -104.5t-137.5 -57.5t-101.5 -15.5q-45 0 -73.5 25.5t-30.5 76.5h-10q-88 -102 -209 -102q-131 0 -225.5 113.5t-94.5 285.5q0 170 113 296t285 126q162 0 251 -127 l21 103h188l-71 -437q-2 -10 -12.5 -53t-10.5 -57q0 -45 35 -45q68 0 111 58t56 125t13 138q0 225 -135 346t-405 121q-244 0 -395.5 -158.5t-151.5 -406.5q0 -260 155.5 -406.5t413.5 -146.5q242 0 401 111l105 -117q-205 -188 -502 -189q-344 0 -573.5 214t-229.5 542z M659 694q0 -88 47.5 -144t131.5 -56q90 0 143 64.5t53 162.5q0 86 -48 140t-128 54q-88 0 -143.5 -66.5t-55.5 -154.5z" />
<glyph unicode="A" horiz-adv-x="1570" d="M-82 0l741 1458h496l346 -1458h-414l-55 315h-551l-147 -315h-416zM606 586h379l-102 581h-4z" />
<glyph unicode="B" horiz-adv-x="1349" d="M45 0l205 1458h643q188 0 303 -89t115 -241q0 -147 -79 -236t-231 -136v-4q123 -27 187.5 -108t64.5 -191q0 -121 -50 -212t-136 -141.5t-188.5 -75t-221.5 -24.5h-612zM469 266h121q131 0 202.5 46t71.5 169q0 86 -58 115t-163 29h-123zM555 877h113q246 0 245 198 q0 74 -49 97.5t-147 23.5h-117z" />
<glyph unicode="C" horiz-adv-x="1366" d="M82 637q0 403 266 624.5t684 221.5q176 0 412 -72l-45 -315q-182 102 -377 102q-229 0 -379.5 -162t-150.5 -391q0 -178 115.5 -280.5t307.5 -102.5q168 0 379 78l-43 -307q-219 -57 -430 -58q-139 0 -269 41t-236.5 120t-170 209t-63.5 292z" />
<glyph unicode="D" horiz-adv-x="1593" d="M41 0l205 1458h540q358 0 566.5 -147.5t208.5 -460.5q0 -438 -248 -644t-703 -206h-569zM471 289h160q246 0 382 144.5t136 389.5q0 174 -101.5 262.5t-291.5 88.5h-162z" />
<glyph unicode="E" horiz-adv-x="1187" d="M43 0l205 1458h985l-39 -274h-596l-43 -305h539l-37 -273h-539l-47 -332h619l-39 -274h-1008z" />
<glyph unicode="F" horiz-adv-x="1075" d="M43 0l205 1458h934l-39 -274h-545l-45 -326h498l-39 -272h-498l-82 -586h-389z" />
<glyph unicode="G" horiz-adv-x="1583" d="M88 637q0 180 52.5 323.5t144.5 239.5t223 160.5t281.5 93.5t324.5 29q274 0 434 -62l-43 -311q-143 88 -366 88q-281 0 -461 -142.5t-180 -414.5q0 -178 112.5 -279.5t302.5 -101.5q88 0 148 25l41 290l-205 13l35 246h575l-110 -791q-268 -68 -570 -68q-139 0 -269 41 t-236.5 120t-170 209t-63.5 292z" />
<glyph unicode="H" horiz-adv-x="1638" d="M41 0l205 1458h389l-78 -559h625l78 559h389l-205 -1458h-389l88 623h-625l-88 -623h-389z" />
<glyph unicode="I" horiz-adv-x="645" d="M51 0l205 1458h391l-205 -1458h-391z" />
<glyph unicode="J" horiz-adv-x="905" d="M-55 16l45 314q72 -31 160 -31q207 0 251 319l117 840h389l-135 -960q-72 -522 -590 -523q-81 0 -237 41z" />
<glyph unicode="K" horiz-adv-x="1517" d="M47 0l205 1458h389l-96 -684h6l573 684h482l-629 -698l469 -760h-471l-426 758h-6l-107 -758h-389z" />
<glyph unicode="L" horiz-adv-x="1138" d="M43 0l205 1458h389l-164 -1165h606l-41 -293h-995z" />
<glyph unicode="M" horiz-adv-x="1804" d="M43 0l205 1458h436l285 -368l387 368h459l-205 -1458h-387l151 1079h-4l-450 -422l-334 422h-4l-152 -1079h-387z" />
<glyph unicode="N" horiz-adv-x="1683" d="M43 0l205 1458h514l444 -1001h4l131 1001h353l-205 -1458h-500l-459 1010h-4l-129 -1010h-354z" />
<glyph unicode="O" horiz-adv-x="1761" d="M92 645q0 379 256 608.5t643 229.5q326 0 528.5 -187.5t202.5 -476.5q0 -381 -257 -612.5t-646 -231.5q-311 0 -519 189.5t-208 480.5zM498 649q0 -166 92 -277.5t250 -111.5q207 0 342 171t135 382q0 168 -92 276.5t-254 108.5q-211 0 -342 -167t-131 -382z" />
<glyph unicode="P" horiz-adv-x="1277" d="M43 0l205 1458h530q250 0 384 -112.5t134 -311.5q0 -268 -176 -398t-465 -130h-151l-72 -506h-389zM539 778h92q123 0 197.5 61.5t74.5 182.5q0 164 -219 164h-88z" />
<glyph unicode="Q" horiz-adv-x="1761" d="M92 645q0 379 256 608.5t643 229.5q326 0 528.5 -187.5t202.5 -476.5q0 -283 -147.5 -488.5t-396.5 -295.5l272 -314h-432l-207 254q-309 4 -514 192.5t-205 477.5zM498 649q0 -166 92 -277.5t250 -111.5q207 0 342 171t135 382q0 168 -92 276.5t-254 108.5 q-211 0 -342 -167t-131 -382z" />
<glyph unicode="R" horiz-adv-x="1388" d="M66 0l204 1458h664q201 0 307.5 -111.5t106.5 -281.5q0 -147 -96.5 -267t-243.5 -165l254 -633h-428l-187 565h-112l-80 -565h-389zM571 842h148q102 0 167.5 52t65.5 153q0 68 -52 106.5t-134 38.5h-145z" />
<glyph unicode="S" horiz-adv-x="1148" d="M12 37l43 311q172 -90 381 -90q104 0 166 36t62 132q0 41 -19.5 73.5t-58.5 58.5t-66.5 39t-70.5 30q-317 121 -318 395q0 127 53.5 219t147.5 143.5t203.5 75t240.5 23.5q190 0 350 -53l-41 -297q-143 68 -299 67q-246 0 -245 -156q0 -18 7 -35.5t14 -30.5t25.5 -27.5 t29 -21.5t36 -19.5t32.5 -15.5t36 -14.5t31 -11.5q324 -125 323 -385q0 -508 -631 -508q-242 1 -432 62z" />
<glyph unicode="T" horiz-adv-x="1388" d="M100 1165l41 293h1362l-41 -293h-485l-164 -1165h-389l164 1165h-488z" />
<glyph unicode="U" horiz-adv-x="1638" d="M119 496q0 31 8 96l121 866h389l-113 -803q-6 -45 -6 -90q0 -141 68.5 -223t195.5 -82q147 0 244.5 107.5t122.5 287.5l113 803h389l-121 -862q-41 -291 -265.5 -456t-525.5 -165q-270 0 -445 137.5t-175 383.5z" />
<glyph unicode="V" horiz-adv-x="1478" d="M133 1458h404l161 -1130h4l484 1130h411l-700 -1458h-479z" />
<glyph unicode="W" horiz-adv-x="2123" d="M141 1458h391l43 -1114h5l358 1114h496l51 -1114h4l356 1114h398l-543 -1458h-502l-55 1116h-10l-353 -1116h-508z" />
<glyph unicode="X" horiz-adv-x="1490" d="M-63 0l577 776l-319 682h426l176 -491l323 491h445l-525 -706l357 -752h-432l-209 549l-361 -549h-458z" />
<glyph unicode="Y" horiz-adv-x="1456" d="M129 1458h436l197 -598h4l367 598h450l-659 -919l-76 -539h-389l76 539z" />
<glyph unicode="Z" horiz-adv-x="1228" d="M-14 0l45 313l780 861h-641l41 284h1077l-45 -313l-792 -858h679l-40 -287h-1104z" />
<glyph unicode="[" horiz-adv-x="796" d="M59 -287l256 1835h543l-33 -233h-235l-193 -1368h236l-31 -234h-543z" />
<glyph unicode="\" horiz-adv-x="587" d="M-29 1483h269l422 -1508h-269z" />
<glyph unicode="]" horiz-adv-x="796" d="M-37 -287l33 234h237l191 1368h-238l33 233h545l-256 -1835h-545z" />
<glyph unicode="^" horiz-adv-x="1228" d="M176 711l356 747h238l356 -747h-256l-219 458l-219 -458h-256z" />
<glyph unicode="_" horiz-adv-x="1024" d="M-76 -154h1024v-102h-1024v102z" />
<glyph unicode="`" horiz-adv-x="671" d="M111 1497h381l102 -297h-256z" />
<glyph unicode="a" d="M41 332q0 307 255 527t595 220q219 0 369 -49l-148 -1030h-342l14 135h-4q-61 -68 -167.5 -111.5t-217.5 -43.5q-164 0 -259 100t-95 252zM428 393q0 -82 36 -112.5t97 -30.5q127 0 234 145l61 432q-129 0 -278.5 -134t-149.5 -300z" />
<glyph unicode="b" d="M27 27l204 1431h371l-72 -530h5q59 66 153 107.5t203 41.5q164 0 259 -100t95 -252q0 -307 -255 -527.5t-595 -220.5q-218 1 -368 50zM426 229q131 0 280.5 129t149.5 295q0 80 -36 111t-97 31q-135 0 -238 -146z" />
<glyph unicode="c" horiz-adv-x="1024" d="M57 467q0 289 203 457t502 168q162 0 260 -45l-39 -269q-111 51 -219 51q-145 0 -231.5 -103t-86.5 -251q0 -115 69 -176t173 -61q96 0 238 51l-39 -275q-129 -39 -283 -39q-240 0 -393.5 135.5t-153.5 356.5z" />
<glyph unicode="d" d="M41 332q0 203 117.5 372.5t312.5 265t418 95.5l55 393h375l-207 -1458h-342l21 135h-5q-61 -68 -170.5 -111.5t-220.5 -43.5q-164 0 -259 100t-95 252zM428 393q0 -82 36 -112.5t97 -30.5q127 0 234 145l59 418q-80 0 -177 -53t-173 -154.5t-76 -212.5z" />
<glyph unicode="e" horiz-adv-x="1228" d="M53 469q0 270 194.5 446.5t459.5 176.5q205 0 343 -129t138 -392l-760 -204q49 -150 260 -150q182 0 334 72l-37 -252q-166 -61 -383 -62q-244 0 -396.5 137.5t-152.5 356.5zM424 580l424 116q-4 68 -53.5 116t-120.5 48q-78 0 -151.5 -73.5t-98.5 -206.5z" />
<glyph unicode="f" horiz-adv-x="858" d="M41 795l37 270h192q31 211 162 314.5t346 103.5q96 0 205 -23l-35 -248q-55 18 -141 19q-59 0 -103.5 -50.5t-54.5 -115.5h279l-37 -270h-279l-112 -795h-379l112 795h-192z" />
<glyph unicode="g" d="M41 332q0 307 255 527t595 220q219 0 369 -49l-125 -880q-82 -578 -680 -578q-223 0 -373 53l41 283q47 -27 149.5 -48.5t178.5 -21.5q127 0 207.5 78t105.5 231l6 39h-4q-152 -180 -371 -180q-166 0 -260 88t-94 238zM434 440q0 -80 36 -110.5t97 -30.5q131 0 234 145 l55 392q-123 0 -272.5 -129.5t-149.5 -266.5z" />
<glyph unicode="h" horiz-adv-x="1304" d="M31 0l205 1458h374l-73 -526h10q141 158 354 158q172 0 250 -89.5t78 -236.5q0 -43 -6 -90l-95 -674h-374l73 520q6 49 7 88q0 174 -138 174q-63 0 -108 -33.5t-90 -91.5l-92 -657h-375z" />
<glyph unicode="i" horiz-adv-x="606" d="M39 0l149 1067h377l-149 -1067h-377zM207 1196l37 262h377l-37 -262h-377z" />
<glyph unicode="j" horiz-adv-x="606" d="M-219 -410l33 238q27 -6 82 -6q78 0 108.5 55t44.5 150l146 1040h374l-147 -1057q-29 -213 -130.5 -325.5t-299.5 -112.5q-129 0 -211 18zM213 1196l37 262h375l-37 -262h-375z" />
<glyph unicode="k" horiz-adv-x="1251" d="M35 0l205 1458h374l-122 -870h6l370 479h430l-434 -508l316 -559h-410l-274 569h-7l-79 -569h-375z" />
<glyph unicode="l" horiz-adv-x="606" d="M39 0l205 1458h377l-205 -1458h-377z" />
<glyph unicode="m" horiz-adv-x="1990" d="M31 0l149 1067h342l-26 -195h10q143 219 397 220q115 0 196 -51.5t105 -151.5h8h-2l-2 -2l4 -4q154 209 381 209q176 0 249 -81t73 -225q0 -63 -8 -114l-95 -672h-374l80 573q4 41 4 60q0 152 -121 151q-111 0 -201 -127l-92 -657h-375l80 573q4 41 4 60q0 152 -121 151 q-111 0 -198 -127l-92 -657h-375z" />
<glyph unicode="n" horiz-adv-x="1304" d="M31 0l149 1067h375l-20 -135h4q139 160 362 160q172 0 250 -89.5t78 -236.5q0 -45 -6 -90l-95 -676h-374l73 522q6 49 7 88q0 174 -138 174q-102 0 -198 -127l-92 -657h-375z" />
<glyph unicode="o" horiz-adv-x="1349" d="M53 469q0 199 103.5 344t258 212t337.5 67q229 0 386.5 -134.5t157.5 -355.5q0 -195 -103 -341t-260 -216t-339 -70q-233 0 -387 136.5t-154 357.5zM442 471q0 -106 49.5 -170.5t141.5 -64.5q123 0 197.5 110.5t74.5 247.5q0 109 -48 173t-142 64q-125 0 -199 -109.5 t-74 -250.5z" />
<glyph unicode="p" d="M-27 -410l209 1477h342l-20 -135h4q61 68 170.5 111.5t220.5 43.5q164 0 259 -100t95 -252q0 -307 -254 -526t-593 -219l-58 -400h-375zM438 231q129 0 278.5 134.5t149.5 300.5q0 80 -35.5 110.5t-99.5 30.5q-129 0 -231 -145z" />
<glyph unicode="q" d="M41 332q0 307 255 527t595 220q219 0 369 -49l-205 -1440h-371l72 539h-4q-59 -66 -153.5 -107.5t-203.5 -41.5q-164 0 -259 100t-95 252zM430 406q0 -80 36 -111t97 -31q135 0 238 146l63 417q-131 0 -282.5 -127.5t-151.5 -293.5z" />
<glyph unicode="r" horiz-adv-x="909" d="M39 0l149 1067h340l-20 -156h10q143 180 338 181q49 0 115 -13l-45 -321q-61 20 -131 20q-174 0 -293 -137l-88 -641h-375z" />
<glyph unicode="s" horiz-adv-x="1019" d="M4 27l37 268q168 -78 346 -78q168 0 168 100q0 16 -6 29.5t-21.5 25t-27 19.5t-37 16.5t-33.5 11.5t-37 11l-28 6q-279 74 -279 277q0 131 81 220t192.5 124t242.5 35q207 0 356 -58l-36 -258q-125 74 -297 74q-182 0 -183 -88q0 -23 17.5 -41.5t52.5 -32.5t59.5 -22.5 t65.5 -18.5t45 -12q106 -29 179 -100.5t73 -188.5q0 -131 -81 -218t-195.5 -120t-258.5 -33q-237 1 -395 52z" />
<glyph unicode="t" horiz-adv-x="847" d="M41 797l37 270h170l33 236l391 114l-49 -350h295l-37 -270h-295l-54 -375q-4 -37 -4 -53q0 -141 144 -142q66 0 131 21l-35 -246q-115 -27 -252 -27q-199 0 -286 74t-87 221q0 55 9 105l59 422h-170z" />
<glyph unicode="u" horiz-adv-x="1306" d="M74 301q0 43 6 90l94 676h375l-76 -541q-6 -39 -6 -71q0 -172 139 -172q106 0 201 127l92 657h375l-150 -1067h-344l27 193h-4q-137 -217 -402 -218q-172 0 -249.5 89.5t-77.5 236.5z" />
<glyph unicode="v" horiz-adv-x="1228" d="M84 1067h379l106 -760h4l320 760h399l-534 -1067h-436z" />
<glyph unicode="w" horiz-adv-x="1878" d="M72 1067h370l60 -768h4l266 768h447l67 -768h4l269 768h378l-467 -1067h-436l-65 774h-4l-287 -774h-436z" />
<glyph unicode="x" horiz-adv-x="1228" d="M-70 0l437 545l-263 522h412l121 -332l209 332h426l-402 -514l279 -553h-418l-139 344l-230 -344h-432z" />
<glyph unicode="y" horiz-adv-x="1228" d="M82 1067h381l133 -604l307 604h391l-782 -1477h-403l251 435z" />
<glyph unicode="z" horiz-adv-x="1077" d="M-18 0l43 305l589 481l9 11h-519l37 270h942l-43 -303l-600 -494h17h524l-39 -270h-960z" />
<glyph unicode="{" horiz-adv-x="792" d="M63 541l25 180q174 6 193 139l57 410q18 135 113.5 206.5t212.5 71.5h208l-24 -180h-88q-39 0 -67.5 -12.5t-43 -35t-20.5 -41.5t-11 -46l-51 -375q-29 -207 -274 -223v-6q43 -2 72.5 -9.5t65.5 -24.5t55.5 -55t19.5 -96q0 -14 -4 -51l-51 -362q-2 -12 -2 -39 q0 -98 106 -98h86l-25 -181h-210q-104 0 -177 58.5t-73 171.5q0 31 4 47l55 397q0 6 1 14.5t1 12.5q0 121 -154 127z" />
<glyph unicode="|" horiz-adv-x="454" d="M125 -410v1946h266v-1946h-266z" />
<glyph unicode="}" horiz-adv-x="792" d="M-51 -287l24 181h84q53 0 86 24.5t41.5 49t14.5 61.5l53 374q29 209 272 226v6q-43 2 -71.5 9t-64.5 23.5t-55.5 54.5t-19.5 95q0 14 4 51l50 363q4 25 4 39q0 98 -109 98h-82l25 180h207q104 0 178 -59t74 -170q0 -14 -5 -47l-55 -398q-2 -10 -2 -26q0 -121 154 -127 l-25 -180q-174 -6 -192 -140l-58 -409q-18 -135 -113.5 -207t-213.5 -72h-205z" />
<glyph unicode="~" horiz-adv-x="1228" d="M98 471q39 59 59.5 89t61.5 74t88 63.5t105 19.5q86 0 231 -66.5t205 -66.5q84 0 164 116l147 -135q-39 -59 -59.5 -89t-61.5 -74t-88 -63.5t-104 -19.5q-86 0 -229.5 67t-206.5 67q-84 0 -164 -117z" />
<glyph unicode="&#xa3;" d="M41 0l37 266h190l58 406h-176l26 184h180l17 119q37 258 206 383t447 125q113 0 268 -37l-37 -266q-74 25 -178 24q-162 0 -237.5 -67.5t-93.5 -200.5l-11 -80h318l-27 -184h-317l-58 -406h471l-37 -266h-1046z" />
<glyph unicode="&#xa9;" horiz-adv-x="1638" d="M100 729q0 311 220.5 532.5t529.5 221.5t529 -221.5t220 -532.5t-220 -532.5t-529 -221.5t-529.5 221.5t-220.5 532.5zM330 729.5q0 -233.5 151.5 -391.5t368.5 -158t368.5 158t151.5 391.5t-151.5 391t-368.5 157.5t-368.5 -157.5t-151.5 -391zM502 725 q0 186 113.5 282.5t299.5 96.5q49 0 197 -37v-147q-94 47 -186 47q-104 0 -168 -68t-64 -174.5t70 -171t178 -64.5q86 0 186 37v-145q-23 -4 -66.5 -12.5t-77.5 -12.5t-66 -4q-104 0 -194.5 34t-156 122t-65.5 217z" />
<glyph unicode="&#xab;" horiz-adv-x="1251" d="M106 551l300 420h303l-277 -420l160 -420h-305zM600 551l301 420h301l-276 -420l159 -420h-303z" />
<glyph unicode="&#xad;" horiz-adv-x="690" d="M53 412l37 278h549l-37 -278h-549z" />
<glyph unicode="&#xae;" horiz-adv-x="819" d="M113 1112q0 154 108.5 262.5t259.5 108.5q154 0 262.5 -108.5t108.5 -262.5v2q0 -154 -108.5 -262.5t-260.5 -108.5q-154 0 -262 108.5t-108 260.5zM229 1114q0 -113 74 -189.5t178 -76.5q106 0 180 75.5t74 188.5t-73.5 189.5t-178.5 76.5q-106 0 -180 -75.5t-74 -188.5 zM342 934v358h170q49 0 82 -28.5t33 -81.5q0 -63 -56 -92l74 -156h-100l-66 141h-41v-141h-96zM436 1143h33q20 0 30.5 1t20.5 11t10 31h2q0 39 -61 39h-35v-82z" />
<glyph unicode="&#xb0;" horiz-adv-x="819" d="M201 1159q0 125 89 214t214 89t214 -89t89 -214q0 -127 -89 -216t-214 -89t-214 89t-89 216zM358 1159.5q0 -59.5 43 -102.5t102.5 -43t102.5 43t43 102.5t-43 102.5t-102.5 43t-102.5 -43t-43 -102.5z" />
<glyph unicode="&#xbb;" horiz-adv-x="1251" d="M53 131l277 420l-160 420h301l184 -420l-301 -420h-301zM547 131l276 420l-159 420h301l184 -420l-301 -420h-301z" />
<glyph unicode="&#x2c6;" horiz-adv-x="1228" d="M176 711l356 747h238l356 -747h-256l-219 458l-219 -458h-256z" />
<glyph unicode="&#x2da;" horiz-adv-x="647" d="M-211 428q0 125 89 214t214 89t214 -89t89 -214q0 -127 -89 -216t-214 -89t-214 89t-89 216zM-54 428.5q0 -59.5 43 -102.5t102.5 -43t102.5 43t43 102.5t-43 102.5t-102.5 43t-102.5 -43t-43 -102.5z" />
<glyph unicode="&#x2dc;" horiz-adv-x="647" d="M-461 274q39 59 59.5 89t61.5 74t88 63.5t105 19.5q86 0 231 -66.5t205 -66.5q84 0 164 116l147 -135q-39 -59 -59.5 -89t-61.5 -74t-88 -63.5t-104 -19.5q-86 0 -229.5 67t-206.5 67q-84 0 -164 -117z" />
<glyph unicode="&#x400;" horiz-adv-x="1187" d="M418 1903h381l102 -297h-256zM43 0l205 1458h985l-39 -274h-596l-43 -305h539l-37 -273h-539l-47 -332h619l-39 -274h-1008z" />
<glyph unicode="&#x401;" horiz-adv-x="1187" d="M43 0l205 1458h985l-39 -274h-596l-43 -305h539l-37 -273h-539l-47 -332h619l-39 -274h-1008zM375 1544l41 291h295l-41 -291h-295zM850 1544l41 291h293l-41 -291h-293z" />
<glyph unicode="&#x402;" horiz-adv-x="1769" d="M102 1165l41 293h1362l-41 -293h-569l-64 -444q74 82 177.5 127t210.5 45q211 0 329.5 -133t118.5 -342q0 -268 -170 -454.5t-438 -186.5q-117 0 -266 41l38 282q61 -31 152 -30q125 0 203 96t78 223q0 92 -54.5 153.5t-144.5 61.5q-139 0 -264 -115l-70 -489h-389 l164 1165h-404z" />
<glyph unicode="&#x403;" horiz-adv-x="1118" d="M43 0l205 1458h977l-39 -280h-588l-166 -1178h-389zM496 1544l182 291h381l-311 -291h-252z" />
<glyph unicode="&#x404;" horiz-adv-x="1366" d="M82 637q0 403 266 624.5t684 221.5q176 0 412 -72l-45 -315q-182 102 -377 102q-166 0 -294 -88t-189 -233h567l-37 -271h-575q12 -162 125.5 -253t295.5 -91q168 0 379 78l-43 -307q-219 -57 -430 -58q-139 0 -269 41t-236.5 120t-170 209t-63.5 292z" />
<glyph unicode="&#x405;" horiz-adv-x="1148" d="M12 37l43 311q172 -90 381 -90q104 0 166 36t62 132q0 41 -19.5 73.5t-58.5 58.5t-66.5 39t-70.5 30q-317 121 -318 395q0 127 53.5 219t147.5 143.5t203.5 75t240.5 23.5q190 0 350 -53l-41 -297q-143 68 -299 67q-246 0 -245 -156q0 -18 7 -35.5t14 -30.5t25.5 -27.5 t29 -21.5t36 -19.5t32.5 -15.5t36 -14.5t31 -11.5q324 -125 323 -385q0 -508 -631 -508q-242 1 -432 62z" />
<glyph unicode="&#x406;" horiz-adv-x="645" d="M51 0l205 1458h391l-205 -1458h-391z" />
<glyph unicode="&#x407;" horiz-adv-x="645" d="M51 0l205 1458h391l-205 -1458h-391zM80 1544l41 291h295l-41 -291h-295zM555 1544l41 291h293l-41 -291h-293z" />
<glyph unicode="&#x408;" horiz-adv-x="905" d="M-55 16l45 314q72 -31 160 -31q207 0 251 319l117 840h389l-135 -960q-72 -522 -590 -523q-81 0 -237 41z" />
<glyph unicode="&#x409;" horiz-adv-x="2201" d="M-68 23l43 303q55 -18 121 -19q51 0 88 33t61.5 97.5t38 126t25.5 149.5l105 745h1122l-74 -526h197q231 0 356 -116t125 -300q0 -133 -52 -234.5t-146.5 -162t-214 -90t-265.5 -29.5h-520l166 1178h-344l-74 -525q-92 -666 -520 -665q-115 0 -238 35zM1368 272h94 q285 0 285 228q0 160 -229 159h-97z" />
<glyph unicode="&#x40a;" horiz-adv-x="2201" d="M41 0l205 1458h389l-74 -524h520l74 524h389l-74 -526h197q231 0 356 -113.5t125 -298.5q0 -520 -678 -520h-520l92 653h-520l-92 -653h-389zM1376 270h94q285 0 285 230q0 160 -229 159h-96z" />
<glyph unicode="&#x40b;" horiz-adv-x="1769" d="M102 1165l41 293h1362l-41 -293h-569l-37 -260q184 31 287 31q268 0 401 -88t133 -305q0 -63 -8 -123l-59 -420h-391l51 356q10 72 10 121q0 92 -44 138.5t-155 46.5q-145 0 -264 -31l-88 -631h-389l164 1165h-404z" />
<glyph unicode="&#x40c;" horiz-adv-x="1517" d="M47 0l205 1458h389l-96 -684h6l573 684h482l-629 -698l469 -760h-471l-426 758h-6l-107 -758h-389zM647 1544l182 291h381l-311 -291h-252z" />
<glyph unicode="&#x40d;" horiz-adv-x="1638" d="M625 1903h381l102 -297h-256zM41 0l205 1458h385l-137 -973h4l716 973h435l-205 -1458h-385l131 930h-4l-684 -930h-461z" />
<glyph unicode="&#x40e;" horiz-adv-x="1478" d="M135 1458h414l215 -696h4l377 696h454l-946 -1458h-436l313 422zM524 1755l144 62q14 -66 71.5 -98.5t122.5 -32.5q63 0 129 31.5t99 99.5l129 -62q-119 -258 -365 -258q-133 0 -223.5 69.5t-106.5 188.5z" />
<glyph unicode="&#x40f;" horiz-adv-x="1638" d="M41 0l205 1458h389l-166 -1179h625l166 1179h389l-205 -1458h-512l-49 -352h-377l49 352h-514z" />
<glyph unicode="&#x410;" horiz-adv-x="1570" d="M-82 0l741 1458h496l346 -1458h-414l-55 315h-551l-147 -315h-416zM606 586h379l-102 581h-4z" />
<glyph unicode="&#x411;" horiz-adv-x="1339" d="M47 0l205 1458h1016l-39 -274h-629l-43 -307h266q193 0 309.5 -109t116.5 -289q0 -244 -157.5 -361.5t-417.5 -117.5h-627zM471 266h123q262 0 262 213q0 82 -55.5 114t-153.5 32h-125z" />
<glyph unicode="&#x412;" horiz-adv-x="1349" d="M45 0l205 1458h643q188 0 303 -89t115 -241q0 -147 -79 -236t-231 -136v-4q123 -27 187.5 -108t64.5 -191q0 -121 -50 -212t-136 -141.5t-188.5 -75t-221.5 -24.5h-612zM469 266h121q131 0 202.5 46t71.5 169q0 86 -58 115t-163 29h-123zM555 877h113q246 0 245 198 q0 74 -49 97.5t-147 23.5h-117z" />
<glyph unicode="&#x413;" horiz-adv-x="1118" d="M43 0l205 1458h977l-39 -280h-588l-166 -1178h-389z" />
<glyph unicode="&#x414;" horiz-adv-x="1601" d="M-102 -352l88 631h137q74 94 140.5 288.5t105.5 409.5l88 481h1108l-166 -1179h137l-88 -631h-377l49 352h-796l-50 -352h-376zM535 279h475l127 907h-346l-48 -238q-81 -407 -208 -669z" />
<glyph unicode="&#x415;" horiz-adv-x="1187" d="M43 0l205 1458h985l-39 -274h-596l-43 -305h539l-37 -273h-539l-47 -332h619l-39 -274h-1008z" />
<glyph unicode="&#x416;" horiz-adv-x="2299" d="M-80 0l633 801l-389 657h444l373 -686h6l96 686h390l-97 -686h6l525 686h485l-580 -698l420 -760h-473l-379 762h-6l-106 -762h-389l106 762h-6l-549 -762h-510z" />
<glyph unicode="&#x417;" horiz-adv-x="1228" d="M8 37l43 317q178 -98 387 -98q295 0 295 201q0 88 -67.5 127t-147.5 39h-166l33 239h168q119 0 190.5 51.5t71.5 145.5q0 82 -63.5 112.5t-176.5 30.5q-197 0 -356 -67l41 295q174 53 422 53q244 0 382 -98.5t138 -276.5q0 -121 -88 -215t-233 -131v-4q115 -23 182 -105 t67 -194q0 -135 -60 -234.5t-162.5 -150.5t-214 -75t-238.5 -24q-250 1 -447 62z" />
<glyph unicode="&#x418;" horiz-adv-x="1638" d="M41 0l205 1458h385l-137 -973h4l716 973h435l-205 -1458h-385l131 930h-4l-684 -930h-461z" />
<glyph unicode="&#x419;" horiz-adv-x="1638" d="M41 0l205 1458h385l-137 -973h4l716 973h435l-205 -1458h-385l131 930h-4l-684 -930h-461zM621 1759l141 60q16 -66 73.5 -98.5t122.5 -32.5q63 0 129 31.5t99 99.5l129 -60q-117 -262 -365 -262q-133 0 -223 70.5t-106 191.5z" />
<glyph unicode="&#x41a;" horiz-adv-x="1517" d="M47 0l205 1458h389l-96 -684h6l573 684h482l-629 -698l469 -760h-471l-426 758h-6l-107 -758h-389z" />
<glyph unicode="&#x41b;" horiz-adv-x="1554" d="M-63 23l43 303q55 -18 120 -19q51 0 88 33t61.5 97.5t38 126t25.5 149.5l105 745h1145l-205 -1458h-389l166 1178h-367l-74 -525q-41 -299 -171 -482t-349 -183q-114 0 -237 35z" />
<glyph unicode="&#x41c;" horiz-adv-x="1804" d="M43 0l205 1458h436l285 -368l387 368h459l-205 -1458h-387l151 1079h-4l-450 -422l-334 422h-4l-152 -1079h-387z" />
<glyph unicode="&#x41d;" horiz-adv-x="1638" d="M41 0l205 1458h389l-78 -559h625l78 559h389l-205 -1458h-389l88 623h-625l-88 -623h-389z" />
<glyph unicode="&#x41e;" horiz-adv-x="1761" d="M92 645q0 379 256 608.5t643 229.5q326 0 528.5 -187.5t202.5 -476.5q0 -381 -257 -612.5t-646 -231.5q-311 0 -519 189.5t-208 480.5zM498 649q0 -166 92 -277.5t250 -111.5q207 0 342 171t135 382q0 168 -92 276.5t-254 108.5q-211 0 -342 -167t-131 -382z" />
<glyph unicode="&#x41f;" horiz-adv-x="1638" d="M41 0l205 1458h1403l-205 -1458h-389l166 1178h-625l-166 -1178h-389z" />
<glyph unicode="&#x420;" horiz-adv-x="1277" d="M43 0l205 1458h530q250 0 384 -112.5t134 -311.5q0 -268 -176 -398t-465 -130h-151l-72 -506h-389zM539 778h92q123 0 197.5 61.5t74.5 182.5q0 164 -219 164h-88z" />
<glyph unicode="&#x421;" horiz-adv-x="1366" d="M82 637q0 403 266 624.5t684 221.5q176 0 412 -72l-45 -315q-182 102 -377 102q-229 0 -379.5 -162t-150.5 -391q0 -178 115.5 -280.5t307.5 -102.5q168 0 379 78l-43 -307q-219 -57 -430 -58q-139 0 -269 41t-236.5 120t-170 209t-63.5 292z" />
<glyph unicode="&#x422;" horiz-adv-x="1388" d="M100 1165l41 293h1362l-41 -293h-485l-164 -1165h-389l164 1165h-488z" />
<glyph unicode="&#x423;" horiz-adv-x="1478" d="M135 1458h414l215 -696h4l377 696h454l-946 -1458h-436l313 422z" />
<glyph unicode="&#x424;" horiz-adv-x="1900" d="M92 672q0 299 195.5 472t505.5 189q23 2 77 2l21 138h383l-21 -138q57 0 78 -2q248 -12 392.5 -146t144.5 -356q0 -301 -196.5 -478t-506.5 -195q-20 -2 -75 -2l-25 -170h-383l25 170q-55 0 -76 2q-242 16 -390.5 152.5t-148.5 361.5zM479 680q0 -131 72 -196.5 t192 -65.5l93 655q-174 0 -265.5 -109.5t-91.5 -283.5zM1126 418q170 0 263.5 114.5t93.5 286.5q0 129 -74 191.5t-192 62.5z" />
<glyph unicode="&#x425;" horiz-adv-x="1490" d="M-63 0l577 776l-319 682h426l176 -491l323 491h445l-525 -706l357 -752h-432l-209 549l-361 -549h-458z" />
<glyph unicode="&#x426;" horiz-adv-x="1658" d="M43 0l205 1458h389l-166 -1179h598l166 1179h389l-166 -1179h139l-88 -631h-376l49 352h-1139z" />
<glyph unicode="&#x427;" horiz-adv-x="1478" d="M154 942q0 49 10 125l55 391h391l-51 -356q-10 -72 -10 -121q0 -92 44 -138t155 -46q145 0 264 30l88 631h389l-205 -1458h-389l78 553q-184 -31 -287 -31q-264 0 -398 99.5t-134 320.5z" />
<glyph unicode="&#x428;" horiz-adv-x="2316" d="M43 0l205 1458h389l-166 -1179h455l166 1179h391l-166 -1179h455l165 1179h390l-205 -1458h-2079z" />
<glyph unicode="&#x429;" horiz-adv-x="2363" d="M43 0l205 1458h389l-166 -1179h455l166 1179h391l-166 -1179h455l165 1179h390l-166 -1179h137l-88 -631h-375l49 352h-1841z" />
<glyph unicode="&#x42a;" horiz-adv-x="1523" d="M115 1178l39 280h716l-71 -506h209q227 0 348 -121.5t121 -308.5q0 -522 -670 -522h-533l166 1178h-325zM702 270h107q125 0 198.5 61.5t73.5 182.5q0 166 -217 166h-104z" />
<glyph unicode="&#x42b;" horiz-adv-x="1873" d="M43 0l205 1458h389l-72 -506h189q227 0 348 -121.5t121 -308.5q0 -522 -670 -522h-510zM469 270h86q125 0 199.5 61.5t74.5 182.5q0 166 -217 166h-86zM1292 0l205 1458h389l-205 -1458h-389z" />
<glyph unicode="&#x42c;" d="M43 0l205 1458h389l-72 -506h209q227 0 348 -121.5t121 -308.5q0 -522 -670 -522h-530zM469 270h106q125 0 200 61.5t75 182.5q0 166 -217 166h-107z" />
<glyph unicode="&#x42d;" horiz-adv-x="1366" d="M-29 33l43 303q195 -76 359 -76q182 0 320 90t200 256h-576l37 271h570q-27 152 -130.5 237.5t-265.5 85.5q-195 0 -405 -102l45 313q254 72 434 72q328 0 531.5 -178.5t203.5 -485.5q0 -401 -259 -622.5t-670 -221.5q-224 1 -437 58z" />
<glyph unicode="&#x42e;" horiz-adv-x="2183" d="M43 0l205 1458h389l-78 -559h150q86 281 290.5 432.5t511.5 151.5q313 0 476 -154.5t163 -439.5q0 -401 -224 -657.5t-628 -256.5q-311 0 -473.5 158t-162.5 445q0 27 2 45h-144l-88 -623h-389zM1069 610q0 -156 65.5 -254t204.5 -98q104 0 186.5 58.5t127.5 150.5 t67.5 191.5t22.5 195.5q0 156 -65.5 251t-207.5 95q-104 0 -186 -57.5t-126 -148.5t-66.5 -189.5t-22.5 -194.5z" />
<glyph unicode="&#x42f;" horiz-adv-x="1366" d="M-43 0l430 592q-100 37 -164.5 136t-64.5 233q0 211 157.5 354t376.5 143h682l-205 -1458h-389l74 526h-94l-342 -526h-461zM547 965q0 -82 53 -127t131 -45h162l57 397h-166q-98 0 -167.5 -64.5t-69.5 -160.5z" />
<glyph unicode="&#x430;" d="M41 332q0 307 255 527t595 220q219 0 369 -49l-148 -1030h-342l14 135h-4q-61 -68 -167.5 -111.5t-217.5 -43.5q-164 0 -259 100t-95 252zM428 393q0 -82 36 -112.5t97 -30.5q127 0 234 145l61 432q-129 0 -278.5 -134t-149.5 -300z" />
<glyph unicode="&#x431;" horiz-adv-x="1349" d="M88 518q0 209 48 385t147.5 313.5t264.5 215t384 77.5q244 0 405 39l-51 -284q-164 -41 -440 -41q-395 0 -498 -363h4q59 86 192.5 144.5t280.5 58.5q190 0 331.5 -127t141.5 -330q0 -285 -200.5 -458t-489.5 -173q-231 0 -375.5 136.5t-144.5 406.5zM440 442 q0 -106 50.5 -170.5t144.5 -64.5q137 0 219 124t82 265q0 106 -49 170.5t-148 64.5q-139 0 -219 -122t-80 -267z" />
<glyph unicode="&#x432;" horiz-adv-x="1228" d="M31 0l149 1067h631q162 0 249 -69.5t87 -188.5q0 -84 -59.5 -154.5t-161.5 -87.5v-4q86 -10 142 -67.5t56 -147.5q0 -178 -123.5 -263t-312.5 -85h-657zM430 219h182q147 0 148 129q0 100 -121 101h-176zM492 649h135q147 0 147 119q0 80 -119 80h-137z" />
<glyph unicode="&#x433;" horiz-adv-x="890" d="M31 0l149 1067h774l-36 -270h-400l-112 -797h-375z" />
<glyph unicode="&#x434;" horiz-adv-x="1394" d="M-86 -307l82 577h113q43 47 96 194.5t78 276.5l59 326h969l-111 -797h117l-82 -577h-361l44 307h-603l-43 -307h-358zM494 270h333l74 533h-250l-20 -103q-61 -307 -137 -430z" />
<glyph unicode="&#x435;" horiz-adv-x="1228" d="M53 469q0 270 194.5 446.5t459.5 176.5q205 0 343 -129t138 -392l-760 -204q49 -150 260 -150q182 0 334 72l-37 -252q-166 -61 -383 -62q-244 0 -396.5 137.5t-152.5 356.5zM424 580l424 116q-4 68 -53.5 116t-120.5 48q-78 0 -151.5 -73.5t-98.5 -206.5z" />
<glyph unicode="&#x436;" horiz-adv-x="1867" d="M-78 0l465 580l-287 487h387l263 -504h6l69 504h365l-70 -504h6l367 504h422l-428 -528l309 -539h-420l-252 551h-6l-78 -551h-364l78 551h-6l-367 -551h-459z" />
<glyph unicode="&#x437;" horiz-adv-x="1036" d="M10 20l37 265q150 -66 322 -66q197 0 196 117q0 90 -188 90h-103l31 209h111q74 0 133 29.5t59 97.5q0 86 -157 86q-176 0 -318 -74l35 256q170 61 387 62q178 0 301 -68t123 -205q0 -104 -76 -171.5t-178 -92.5v-6q98 -12 156.5 -65.5t58.5 -139.5q0 -106 -52 -182 t-139 -115t-176.5 -55.5t-185.5 -16.5q-238 0 -377 45z" />
<glyph unicode="&#x438;" horiz-adv-x="1331" d="M31 0l149 1067h365l-86 -621h4l405 621h430l-149 -1067h-365l86 618h-4l-405 -618h-430z" />
<glyph unicode="&#x439;" horiz-adv-x="1331" d="M31 0l149 1067h365l-86 -621h4l405 621h430l-149 -1067h-365l86 618h-4l-405 -618h-430zM422 1411l149 62q23 -129 187 -130q162 0 221 130l133 -62q-113 -260 -360 -260q-133 0 -223.5 70.5t-106.5 189.5z" />
<glyph unicode="&#x43a;" horiz-adv-x="1251" d="M33 0l149 1067h375l-70 -500h7l376 500h433l-443 -528l324 -539h-432l-260 549h-7l-77 -549h-375z" />
<glyph unicode="&#x43b;" d="M-66 6l37 268q49 -12 72 -12q39 0 67.5 22.5t44 66.5t23.5 80t15 89l75 547h989l-149 -1067h-375l113 797h-244l-39 -277q-37 -260 -142.5 -398t-309.5 -138q-99 -1 -177 22z" />
<glyph unicode="&#x43c;" horiz-adv-x="1511" d="M35 0l149 1067h400l192 -295l275 295h424l-150 -1067h-367l103 735h-4l-320 -327l-229 327h-4l-103 -735h-366z" />
<glyph unicode="&#x43d;" horiz-adv-x="1304" d="M31 0l149 1067h375l-55 -387h344l53 387h375l-150 -1067h-374l57 410h-342l-57 -410h-375z" />
<glyph unicode="&#x43e;" horiz-adv-x="1349" d="M53 469q0 199 103.5 344t258 212t337.5 67q229 0 386.5 -134.5t157.5 -355.5q0 -195 -103 -341t-260 -216t-339 -70q-233 0 -387 136.5t-154 357.5zM442 471q0 -106 49.5 -170.5t141.5 -64.5q123 0 197.5 110.5t74.5 247.5q0 109 -48 173t-142 64q-125 0 -199 -109.5 t-74 -250.5z" />
<glyph unicode="&#x43f;" horiz-adv-x="1304" d="M31 0l149 1067h1092l-150 -1067h-374l112 797h-342l-112 -797h-375z" />
<glyph unicode="&#x440;" d="M-27 -410l209 1477h342l-20 -135h4q61 68 170.5 111.5t220.5 43.5q164 0 259 -100t95 -252q0 -307 -254 -526t-593 -219l-58 -400h-375zM438 231q129 0 278.5 134.5t149.5 300.5q0 80 -35.5 110.5t-99.5 30.5q-129 0 -231 -145z" />
<glyph unicode="&#x441;" horiz-adv-x="1024" d="M57 467q0 289 203 457t502 168q162 0 260 -45l-39 -269q-111 51 -219 51q-145 0 -231.5 -103t-86.5 -251q0 -115 69 -176t173 -61q96 0 238 51l-39 -275q-129 -39 -283 -39q-240 0 -393.5 135.5t-153.5 356.5z" />
<glyph unicode="&#x442;" horiz-adv-x="999" d="M51 797l37 270h971l-37 -270h-297l-113 -797h-376l112 797h-297z" />
<glyph unicode="&#x443;" horiz-adv-x="1228" d="M82 1067h381l133 -604l307 604h391l-782 -1477h-403l251 435z" />
<glyph unicode="&#x444;" horiz-adv-x="1732" d="M51 473q0 287 202 452t503 165l51 368h377l-51 -368q246 0 395 -137.5t149 -362.5q0 -283 -203.5 -448t-496.5 -165l-55 -387h-377l55 387q-233 0 -391 139.5t-158 356.5zM432 487q0 -100 56.5 -169.5t152.5 -69.5l80 569q-127 0 -208 -100.5t-81 -229.5zM1010 248 q125 0 206.5 104.5t81.5 231.5q0 104 -56 168.5t-152 64.5z" />
<glyph unicode="&#x445;" horiz-adv-x="1228" d="M-70 0l437 545l-263 522h412l121 -332l209 332h426l-402 -514l279 -553h-418l-139 344l-230 -344h-432z" />
<glyph unicode="&#x446;" horiz-adv-x="1343" d="M33 0l149 1067h375l-111 -797h349l110 797h375l-111 -797h117l-82 -577h-360l43 307h-854z" />
<glyph unicode="&#x447;" horiz-adv-x="1251" d="M96 694q0 39 6 82l41 291h375l-29 -203q-8 -51 -8 -96q0 -84 34 -117t108 -33q119 0 161 25l60 424h375l-150 -1067h-375l60 416q-47 -27 -141.5 -43.5t-170.5 -16.5q-170 0 -258 91t-88 247z" />
<glyph unicode="&#x448;" horiz-adv-x="1943" d="M33 0l149 1067h373l-111 -797h304l110 797h375l-111 -797h301l111 797h375l-150 -1067h-1726z" />
<glyph unicode="&#x449;" horiz-adv-x="1972" d="M31 0l149 1067h373l-111 -797h303l111 797h375l-111 -797h301l111 797h375l-111 -797h115l-82 -577h-359l43 307h-1482z" />
<glyph unicode="&#x44a;" horiz-adv-x="1349" d="M61 799l37 268h611l-50 -352h291q145 0 238.5 -87t93.5 -235q0 -199 -127 -296t-338 -97h-633l113 799h-236zM594 240h172q61 0 105 37.5t44 99.5q0 96 -120 96h-170z" />
<glyph unicode="&#x44b;" horiz-adv-x="1720" d="M31 0l149 1067h375l-49 -352h242q147 0 240 -88t93 -236q0 -199 -127 -295t-338 -96h-585zM440 240h125q61 0 104.5 38.5t43.5 98.5q0 96 -119 96h-123zM1163 0l150 1067h375l-150 -1067h-375z" />
<glyph unicode="&#x44c;" horiz-adv-x="1200" d="M35 0l149 1067h375l-49 -352h289q147 0 240.5 -88t93.5 -236q0 -199 -127 -295t-338 -96h-633zM444 240h172q61 0 104.5 38.5t43.5 98.5q0 96 -119 96h-170z" />
<glyph unicode="&#x44d;" horiz-adv-x="1024" d="M4 20l37 265q111 -51 219 -52q104 0 181 58.5t114 152.5h-350l26 195h347q-14 94 -82 144.5t-158 50.5q-98 0 -240 -52l39 271q129 39 283 39q242 0 395.5 -135.5t153.5 -356.5q0 -289 -204 -457t-503 -168q-164 0 -258 45z" />
<glyph unicode="&#x44e;" horiz-adv-x="1882" d="M31 0l149 1067h375l-55 -387h114q76 195 254.5 303.5t409.5 108.5q246 0 397.5 -132.5t151.5 -353.5q0 -291 -202 -461t-505 -170q-240 0 -387 116t-160 323h-110l-57 -414h-375zM965 461q0 -102 47 -166t145 -64q137 0 208 115t71 260q0 102 -47.5 166t-147.5 64 q-137 0 -206.5 -115t-69.5 -260z" />
<glyph unicode="&#x44f;" horiz-adv-x="1228" d="M-49 0l348 418q-68 18 -129 98t-61 184q0 174 131 270.5t311 96.5h647l-149 -1067h-375l51 369h-70l-260 -369h-444zM469 707q0 -53 36 -90t83 -37h170l37 262h-177q-61 0 -105 -38t-44 -97z" />
<glyph unicode="&#x450;" horiz-adv-x="1228" d="M377 1511h381l102 -297h-256zM53 469q0 270 194.5 446.5t459.5 176.5q205 0 343 -129t138 -392l-760 -204q49 -150 260 -150q182 0 334 72l-37 -252q-166 -61 -383 -62q-244 0 -396.5 137.5t-152.5 356.5zM424 580l424 116q-4 68 -53.5 116t-120.5 48q-78 0 -151.5 -73.5 t-98.5 -206.5z" />
<glyph unicode="&#x451;" horiz-adv-x="1228" d="M53 469q0 270 194.5 446.5t459.5 176.5q205 0 343 -129t138 -392l-760 -204q49 -150 260 -150q182 0 334 72l-37 -252q-166 -61 -383 -62q-244 0 -396.5 137.5t-152.5 356.5zM317 1196l37 262h295l-37 -262h-295zM424 580l424 116q-4 68 -53.5 116t-120.5 48 q-78 0 -151.5 -73.5t-98.5 -206.5zM811 1196l37 262h293l-37 -262h-293z" />
<glyph unicode="&#x452;" horiz-adv-x="1423" d="M61 0l117 834h-102l37 256h102l51 368h375l-51 -368h526l-37 -256h-526l-37 -259q150 168 383 168q195 0 311.5 -139t116.5 -346q0 -254 -164 -422t-424 -168q-127 0 -209 19l35 258q27 -6 82 -6q119 0 204 92t85 211q0 96 -58.5 159.5t-156.5 63.5q-133 0 -238 -133 l-47 -332h-375z" />
<glyph unicode="&#x453;" horiz-adv-x="890" d="M31 0l149 1067h774l-36 -270h-400l-112 -797h-375zM317 1206l183 291h381l-312 -291h-252z" />
<glyph unicode="&#x454;" horiz-adv-x="1024" d="M57 467q0 289 203 457t502 168q162 0 260 -45l-39 -269q-111 51 -219 51q-100 0 -177 -52t-118 -138h352l-28 -195h-359q12 -100 85 -153t169 -53t238 51l-39 -275q-129 -39 -283 -39q-240 0 -393.5 135.5t-153.5 356.5z" />
<glyph unicode="&#x455;" horiz-adv-x="1019" d="M4 27l37 268q168 -78 346 -78q168 0 168 100q0 16 -6 29.5t-21.5 25t-27 19.5t-37 16.5t-33.5 11.5t-37 11l-28 6q-279 74 -279 277q0 131 81 220t192.5 124t242.5 35q207 0 356 -58l-36 -258q-125 74 -297 74q-182 0 -183 -88q0 -23 17.5 -41.5t52.5 -32.5t59.5 -22.5 t65.5 -18.5t45 -12q106 -29 179 -100.5t73 -188.5q0 -131 -81 -218t-195.5 -120t-258.5 -33q-237 1 -395 52z" />
<glyph unicode="&#x456;" horiz-adv-x="606" d="M39 0l149 1067h377l-149 -1067h-377zM207 1196l37 262h377l-37 -262h-377z" />
<glyph unicode="&#x457;" horiz-adv-x="606" d="M39 0l149 1067h377l-149 -1067h-377zM43 1196l37 262h295l-37 -262h-295zM455 1196l37 262h292l-36 -262h-293z" />
<glyph unicode="&#x458;" horiz-adv-x="606" d="M-219 -410l33 238q27 -6 82 -6q78 0 108.5 55t44.5 150l146 1040h374l-147 -1057q-29 -213 -130.5 -325.5t-299.5 -112.5q-129 0 -211 18zM213 1196l37 262h375l-37 -262h-375z" />
<glyph unicode="&#x459;" horiz-adv-x="1894" d="M-70 6l37 268q49 -12 72 -12q39 0 67.5 22.5t44 66.5t23.5 80t14 89l76 547h989l-51 -365h289q150 0 242 -81.5t92 -227.5q0 -178 -131 -285.5t-332 -107.5h-633l113 797h-244l-39 -277q-37 -258 -142.5 -397t-310.5 -139q-98 -1 -176 22zM1139 240h172q61 0 104 34.5 t43 96.5q0 90 -121 90h-168z" />
<glyph unicode="&#x45a;" horiz-adv-x="1912" d="M31 0l149 1067h375l-51 -367h342l51 367h375l-51 -365h288q150 0 242 -81.5t92 -227.5q0 -190 -128 -291.5t-335 -101.5h-632l61 430h-344l-59 -430h-375zM1157 240h172q61 0 104.5 34.5t43.5 96.5q0 90 -121 90h-168z" />
<glyph unicode="&#x45b;" horiz-adv-x="1304" d="M61 0l117 834h-102l37 258h102l51 366h375l-51 -366h526l-37 -258h-526l-31 -228h4q137 158 361 158q172 0 249.5 -89t77.5 -235q0 -47 -6 -92l-49 -348h-375l29 195q6 49 6 88q0 174 -137 174q-63 0 -108.5 -34t-90.5 -91l-47 -332h-375z" />
<glyph unicode="&#x45c;" horiz-adv-x="1251" d="M33 0l149 1067h375l-70 -500h7l376 500h433l-443 -528l324 -539h-432l-260 549h-7l-77 -549h-375zM481 1206l183 291h380l-311 -291h-252z" />
<glyph unicode="&#x45d;" horiz-adv-x="1331" d="M416 1511h381l102 -297h-256zM31 0l149 1067h365l-86 -621h4l405 621h430l-149 -1067h-365l86 618h-4l-405 -618h-430z" />
<glyph unicode="&#x45e;" horiz-adv-x="1228" d="M82 1067h381l133 -604l307 604h391l-782 -1477h-403l251 435zM371 1411l149 62q23 -129 187 -130q162 0 221 130l133 -62q-113 -260 -361 -260q-133 0 -223 70.5t-106 189.5z" />
<glyph unicode="&#x45f;" horiz-adv-x="1304" d="M31 0l149 1067h375l-111 -797h342l111 797h375l-150 -1067h-364l-43 -307h-361l43 307h-366z" />
<glyph unicode="&#x490;" horiz-adv-x="1118" d="M43 0l205 1454h604l49 354h373l-88 -630h-588l-166 -1178h-389z" />
<glyph unicode="&#x491;" horiz-adv-x="890" d="M31 0l149 1065h455l43 309h319l-79 -579h-400l-112 -795h-375z" />
<glyph unicode="&#x4ae;" horiz-adv-x="1456" d="M129 1458h436l197 -598h4l367 598h450l-659 -919l-76 -539h-389l76 539z" />
<glyph unicode="&#x4c0;" horiz-adv-x="645" d="M51 0l205 1458h391l-205 -1458h-391z" />
<glyph unicode="&#x2000;" horiz-adv-x="950" />
<glyph unicode="&#x2001;" horiz-adv-x="1902" />
<glyph unicode="&#x2002;" horiz-adv-x="950" />
<glyph unicode="&#x2003;" horiz-adv-x="1902" />
<glyph unicode="&#x2004;" horiz-adv-x="632" />
<glyph unicode="&#x2005;" horiz-adv-x="475" />
<glyph unicode="&#x2006;" horiz-adv-x="315" />
<glyph unicode="&#x2007;" horiz-adv-x="315" />
<glyph unicode="&#x2008;" horiz-adv-x="237" />
<glyph unicode="&#x2009;" horiz-adv-x="378" />
<glyph unicode="&#x200a;" horiz-adv-x="104" />
<glyph unicode="&#x2010;" horiz-adv-x="690" d="M53 412l37 278h549l-37 -278h-549z" />
<glyph unicode="&#x2011;" horiz-adv-x="690" d="M53 412l37 278h549l-37 -278h-549z" />
<glyph unicode="&#x2012;" horiz-adv-x="690" d="M53 412l37 278h549l-37 -278h-549z" />
<glyph unicode="&#x2013;" horiz-adv-x="1024" d="M-12 420l37 262h1013l-34 -262h-1016z" />
<glyph unicode="&#x2014;" horiz-adv-x="2048" d="M-12 420l37 262h2037l-34 -262h-2040z" />
<glyph unicode="&#x2018;" horiz-adv-x="681" d="M150 868l278 562h277l-211 -562h-344z" />
<glyph unicode="&#x2019;" horiz-adv-x="681" d="M147 868l213 562h345l-281 -562h-277z" />
<glyph unicode="&#x201a;" horiz-adv-x="681" d="M-6 -225l213 561h346l-281 -561h-278z" />
<glyph unicode="&#x201c;" horiz-adv-x="1251" d="M197 868l278 562h277l-211 -562h-344zM674 868l276 562h277l-211 -562h-342z" />
<glyph unicode="&#x201d;" horiz-adv-x="1251" d="M195 868l213 562h344l-281 -562h-276zM672 868l211 562h344l-279 -562h-276z" />
<glyph unicode="&#x201e;" horiz-adv-x="1251" d="M41 -225l213 561h346l-281 -561h-278zM516 -225l211 561h346l-278 -561h-279z" />
<glyph unicode="&#x2026;" horiz-adv-x="2048" d="M94 0l47 338h344l-47 -338h-344zM776 0l47 338h344l-47 -338h-344zM1458 0l47 338h344l-47 -338h-344z" />
<glyph unicode="&#x202f;" horiz-adv-x="378" />
<glyph unicode="&#x2039;" horiz-adv-x="757" d="M106 551l300 420h303l-277 -420l160 -420h-305z" />
<glyph unicode="&#x203a;" horiz-adv-x="757" d="M53 131l277 420l-160 420h301l184 -420l-301 -420h-301z" />
<glyph unicode="&#x205f;" horiz-adv-x="475" />
<glyph unicode="&#x2122;" horiz-adv-x="2048" d="M276 1317v141h625v-141h-217v-574h-190v574h-218zM971 743v715h239l131 -147h2l138 147h227v-715h-186v539h-2l-183 -180h-4l-174 180h-2v-539h-186z" />
<glyph unicode="&#xe000;" horiz-adv-x="1065" d="M0 1065h1065v-1065h-1065v1065z" />
</font>
</defs>
</svg>
