<?xml version="1.0" standalone="no"?>
<!DOCTYPE svg PUBLIC "-//W3C//DTD SVG 1.1//EN" "http://www.w3.org/Graphics/SVG/1.1/DTD/svg11.dtd" >
<svg xmlns="http://www.w3.org/2000/svg">
<metadata>
This is a custom SVG webfont generated by Font Squirrel.
Copyright   : Copyright 1998 DoubleAlex Font Studio  Tornado is a trademark of DoubleAlex Font Studio
Foundry     : DoubleAlex Font Studio Tornado is a trademark of DoubleAlex Font Studio
</metadata>
<defs>
<font id="TornadoCyrBold" horiz-adv-x="1228" >
<font-face units-per-em="2048" ascent="1638" descent="-410" />
<missing-glyph horiz-adv-x="647" />
<glyph unicode=" "  horiz-adv-x="647" />
<glyph unicode="&#x09;" horiz-adv-x="647" />
<glyph unicode="&#xa0;" horiz-adv-x="647" />
<glyph unicode="!" horiz-adv-x="909" d="M256 1042v416h395v-416l-55 -540h-285zM279 0v336h352v-336h-352z" />
<glyph unicode="&#x22;" horiz-adv-x="1251" d="M287 1458h274l-20 -561h-234zM690 1458h275l-21 -561h-233z" />
<glyph unicode="#" horiz-adv-x="1290" d="M127 391v223h205l33 234h-175v223h203l56 387h219l-54 -387h185l53 387h217l-53 -387h145v-223h-174l-33 -234h146v-223h-176l-54 -391h-219l56 391h-187l-53 -391h-219l53 391h-174zM551 614h186l33 234h-186z" />
<glyph unicode="$" horiz-adv-x="1290" d="M88 1047q0 211 139.5 318.5t364.5 117.5v178h117v-178q242 0 374 -64v-274q-72 35 -178 58.5t-196 23.5v-326q92 -20 155.5 -39.5t132 -56.5t109.5 -85t67.5 -123t26.5 -173q0 -213 -152.5 -328.5t-365.5 -120.5v-180h-119v180q-270 0 -409 54v288q186 -74 409 -73v362 q-125 20 -228.5 70.5t-175 147t-71.5 223.5zM418 1079q0 -131 174 -153v301q-76 -4 -125 -45.5t-49 -102.5zM682 244q188 20 188 184q0 127 -188 162v-346z" />
<glyph unicode="%" horiz-adv-x="2048" d="M82 1053q0 430 364 430q193 0 281 -117t88 -313q0 -430 -369 -430q-364 0 -364 430zM344 991q0 -10 1 -34.5t4 -38t7 -34t12.5 -31.5t18.5 -23.5t25.5 -17.5t33.5 -5q37 0 60.5 21.5t33 64.5t11.5 74.5t2 85.5q0 51 -2 83.5t-11.5 75.5t-33 64.5t-60 21.5t-59 -21.5 t-32 -64.5t-10.5 -68.5t-1 -72.5v-18v-28v-34zM504 -47l809 1552h223l-807 -1552h-225zM1231 405.5q0 430.5 364 430.5q193 0 281 -117t88 -313q0 -430 -369 -431q-364 0 -364 430.5zM1493 406q0 -147 25 -195q25 -51 77 -51q37 0 60.5 21.5t33 64.5t11.5 75.5t2 84t-2 84 t-11.5 75.5t-33 64.5t-60 21.5t-59.5 -21.5t-32 -64.5t-10 -68.5t-1 -72.5v-18z" />
<glyph unicode="&#x26;" horiz-adv-x="1662" d="M92 414q0 143 73 236t218 161q-182 139 -182 322q0 94 43 163.5t115.5 109.5t157.5 58.5t179 18.5q102 0 189.5 -18.5t163 -57.5t118.5 -109.5t43 -167.5q0 -66 -25.5 -121t-78.5 -101t-98 -75.5t-121 -70.5l252 -232q90 98 100 258h348q-16 -283 -229 -493l272 -295 h-432q-70 90 -88 111q-160 -135 -461 -136q-227 0 -392 113t-165 326zM453 422q0 -88 71.5 -143.5t163.5 -55.5q117 0 223 84q-125 133 -325 318q-68 -37 -100.5 -83t-32.5 -120zM541 1118q0 -90 143 -198q45 27 62.5 38t52.5 38.5t50 57t15 64.5q0 63 -46 97t-118 34 q-70 0 -114.5 -37t-44.5 -94z" />
<glyph unicode="'" horiz-adv-x="681" d="M203 1458h274l-20 -561h-234z" />
<glyph unicode="(" horiz-adv-x="792" d="M135 631q0 451 320 917h309q-289 -457 -289 -917q0 -451 277 -918h-299q-318 433 -318 918z" />
<glyph unicode=")" horiz-adv-x="792" d="M29 -287q289 459 288 918q0 463 -288 917h309q319 -424 319 -917q0 -455 -319 -918h-309z" />
<glyph unicode="*" horiz-adv-x="1251" d="M193 1051l79 243l273 -135l-43 299h256l-43 -297l268 133l76 -245l-293 -52l209 -213l-213 -151l-137 266l-148 -264l-205 149l213 211z" />
<glyph unicode="+" d="M96 385v266h385v385h267v-385h385v-266h-385v-385h-267v385h-385z" />
<glyph unicode="," horiz-adv-x="638" d="M51 -223l135 561h355l-205 -561h-285z" />
<glyph unicode="-" horiz-adv-x="690" d="M66 412v278h557v-278h-557z" />
<glyph unicode="." horiz-adv-x="638" d="M143 0v338h355v-338h-355z" />
<glyph unicode="/" horiz-adv-x="587" d="M-51 -25l422 1508h268l-422 -1508h-268z" />
<glyph unicode="0" horiz-adv-x="1290" d="M66 729q0 125 13 227.5t52 204t101.5 170t167 110.5t243.5 42q137 0 241.5 -42t168 -110.5t102.5 -169t53.5 -204t14.5 -228.5t-14.5 -227.5t-52.5 -203.5t-101.5 -170t-168 -111t-243.5 -42t-243.5 42t-167 111t-101.5 170t-52 203.5t-13 227.5zM451 729.5 q0 -106.5 5 -177.5t22.5 -150.5t59.5 -120.5t105.5 -41t105.5 41t59 120.5t22.5 150.5t5.5 177.5t-5.5 177t-22.5 150.5t-59 121t-105.5 41t-105.5 -41t-59.5 -121t-22.5 -150.5t-5 -177z" />
<glyph unicode="1" horiz-adv-x="1290" d="M135 1133l498 325h346v-1458h-395v1067l-283 -205z" />
<glyph unicode="2" horiz-adv-x="1290" d="M117 0v287q334 281 426 372q211 207 211 345q0 94 -60.5 142t-156.5 48q-90 0 -202 -27.5t-183 -66.5v303q233 80 430 80q256 0 411.5 -108.5t155.5 -321.5q0 -313 -449 -682l-114 -95h585v-276h-1054z" />
<glyph unicode="3" horiz-adv-x="1290" d="M115 25v303q121 -68 370 -68q68 0 128.5 14.5t111.5 59.5t51 115q0 170 -264 169h-162v248h158q86 0 166 39t80 123q0 170 -250 170q-217 0 -350 -57v282q207 59 421 60q111 0 206.5 -18.5t182.5 -61.5t137 -124t50 -194q0 -123 -71.5 -203.5t-198.5 -115.5v-6 q135 -29 214 -116t79 -220q0 -125 -57.5 -217t-155 -140.5t-202 -70t-220.5 -21.5q-283 1 -424 50z" />
<glyph unicode="4" horiz-adv-x="1290" d="M35 279v325l588 854h432v-911h213v-268h-213v-279h-369v279h-651zM305 545h406v608h-6z" />
<glyph unicode="5" horiz-adv-x="1290" d="M143 27v309q164 -74 353 -74q125 0 211 53.5t86 180.5q0 78 -52.5 128t-122 68.5t-153.5 18.5q-172 0 -305 -35v782h958v-264h-610v-250q115 8 125 8q233 0 388 -113.5t155 -336.5q0 -145 -53.5 -251t-146.5 -164t-201.5 -85t-237.5 -27q-179 1 -394 52z" />
<glyph unicode="6" horiz-adv-x="1290" d="M82 668q0 178 36 321.5t110.5 256t202.5 175t302 62.5q207 0 375 -64v-282q-131 74 -324 73q-180 0 -261 -109.5t-83 -316.5h6q104 141 320 142q197 0 318.5 -128t121.5 -329q0 -209 -158.5 -351.5t-396.5 -142.5q-150 0 -262.5 55.5t-178 153t-97 219.5t-31.5 265z M455 450.5q0 -94.5 51 -160t143 -65.5q88 0 138.5 60.5t50.5 150.5q0 100 -46.5 167t-142.5 67q-94 0 -144 -62.5t-50 -157z" />
<glyph unicode="7" horiz-adv-x="1290" d="M125 1176v282h1055v-321l-521 -1137h-430l549 1176h-653z" />
<glyph unicode="8" horiz-adv-x="1290" d="M68 389q0 274 286 361v6q-111 37 -181.5 121t-70.5 190q0 147 81 243.5t201 134.5t273 38q231 0 371.5 -93.5t140.5 -279.5q0 -244 -241 -334v-6q295 -94 295 -362q0 -113 -47.5 -199t-129 -135t-183 -74t-220.5 -25q-256 0 -415.5 101.5t-159.5 312.5zM449 422 q0 -80 55 -133t135 -53q86 0 143.5 52t57.5 140q0 154 -217 215q-174 -71 -174 -221zM461 1061q0 -76 47 -118t135 -79q86 45 128 93.5t42 117.5q0 76 -53 119t-125 43q-74 0 -124 -50t-50 -126z" />
<glyph unicode="9" horiz-adv-x="1290" d="M84 989q0 209 156.5 351.5t394.5 142.5q150 0 263.5 -55.5t179 -152.5t98 -219t32.5 -265q0 -369 -158.5 -592.5t-496.5 -223.5q-207 0 -375 64v283q129 -74 324 -74q182 0 262 109.5t82 316.5h-6q-102 -141 -318 -142q-197 0 -317.5 128t-120.5 329zM449 1022 q0 -100 47 -167t143 -67q92 0 142 62.5t50 157t-51 160t-141 65.5t-140 -60.5t-50 -150.5z" />
<glyph unicode=":" horiz-adv-x="638" d="M143 0v338h355v-338h-355zM143 729v338h355v-338h-355z" />
<glyph unicode=";" horiz-adv-x="638" d="M10 -223l135 561h355l-205 -561h-285zM143 729v338h355v-338h-355z" />
<glyph unicode="&#x3c;" d="M96 406v225l1037 424v-254l-693 -283l693 -282v-254z" />
<glyph unicode="=" d="M96 147v267h1037v-267h-1037zM96 623v264h1037v-264h-1037z" />
<glyph unicode="&#x3e;" d="M96 -18v254l692 282l-692 283v254l1037 -424v-225z" />
<glyph unicode="?" horiz-adv-x="1165" d="M135 1130v291q205 61 434 62q92 0 177 -18.5t162 -56.5t123 -108.5t46 -164.5q0 -68 -26.5 -129.5t-55 -98.5t-82.5 -92q-61 -63 -87.5 -95t-58.5 -93.5t-36 -124.5h-307q2 147 135 309q8 10 35 42t39 48.5t30.5 45t25.5 55t7 55.5q0 74 -72.5 111.5t-160.5 37.5 q-176 0 -328 -76zM401 0v336h353v-336h-353z" />
<glyph unicode="@" horiz-adv-x="1638" d="M63 731q0 326 224.5 539t568.5 213q301 0 510 -170t209 -439q0 -129 -44 -234t-107.5 -167.5t-140.5 -104.5t-137.5 -57.5t-101.5 -15.5q-45 0 -73.5 25.5t-30.5 76.5h-10q-88 -102 -209 -102q-131 0 -225.5 113.5t-94.5 285.5q0 170 113 296t285 126q162 0 252 -127 l20 103h189l-72 -437q-2 -10 -12.5 -53t-10.5 -57q0 -45 35 -45q70 0 124 81t56 232q4 229 -132 352t-408 123q-244 0 -395.5 -158.5t-151.5 -406.5q0 -260 155.5 -406.5t413.5 -146.5q242 0 402 111l104 -117q-205 -188 -502 -189q-344 0 -573.5 214t-229.5 542zM623 694 q0 -88 47 -144t131 -56q90 0 143 64.5t53 162.5q0 86 -48 140t-128 54q-88 0 -143 -66.5t-55 -154.5z" />
<glyph unicode="A" horiz-adv-x="1570" d="M-12 0l540 1458h502l553 -1458h-434l-107 313h-542l-111 -313h-401zM588 590h366l-172 571h-10z" />
<glyph unicode="B" horiz-adv-x="1349" d="M117 0v1458h647q211 0 340 -95t129 -273q0 -256 -258 -338v-7q295 -61 295 -327q0 -119 -47 -205t-131 -130t-176.5 -63.5t-202.5 -19.5h-596zM512 272h115q119 0 181 35t62 135q0 109 -61 144t-178 35h-119v-349zM512 881h109q102 0 158.5 34.5t56.5 122.5 q0 92 -51.5 122t-159.5 30h-113v-309z" />
<glyph unicode="C" horiz-adv-x="1366" d="M61 725q0 367 232.5 562.5t605.5 195.5q178 0 426 -72v-324q-203 104 -395 105q-205 0 -330 -131t-125 -336q0 -211 132 -334t347 -123q166 0 373 80v-315q-109 -29 -182 -39q-125 -18 -244 -19q-158 0 -301 42t-267 127t-198 234.5t-74 346.5z" />
<glyph unicode="D" horiz-adv-x="1593" d="M113 0v1458h555q197 0 346 -34.5t268 -114.5t181.5 -224.5t62.5 -349.5q0 -199 -64.5 -344t-183.5 -229t-270.5 -123t-341.5 -39h-553zM510 295h156q215 0 330.5 109.5t115.5 324.5q0 217 -115.5 327.5t-328.5 110.5h-158v-872z" />
<glyph unicode="E" horiz-adv-x="1187" d="M115 0v1458h993v-280h-596v-295h539v-281h-539v-321h618v-281h-1015z" />
<glyph unicode="F" horiz-adv-x="1075" d="M115 0v1458h942v-280h-545v-316h498v-280h-498v-582h-397z" />
<glyph unicode="G" horiz-adv-x="1583" d="M68 725q0 199 67.5 346.5t192.5 236.5t287.5 132t365.5 43q281 0 449 -64v-317q-158 90 -383 90q-254 0 -410 -114.5t-156 -354.5q0 -211 129 -334t342 -123q88 0 140 25v282l-205 11v254h583v-795q-262 -68 -563 -68q-158 0 -301 42t-267 127t-197.5 234.5t-73.5 346.5z " />
<glyph unicode="H" horiz-adv-x="1638" d="M113 0v1458h397v-555h616v555h398v-1458h-398v618h-616v-618h-397z" />
<glyph unicode="I" horiz-adv-x="645" d="M123 0v1458h399v-1458h-399z" />
<glyph unicode="J" horiz-adv-x="905" d="M14 16v322q76 -33 168 -33q203 0 203 316v837h397v-960q0 -248 -120.5 -385.5t-399.5 -137.5q-88 0 -248 41z" />
<glyph unicode="K" horiz-adv-x="1517" d="M119 0v1458h397v-680h6l492 680h473l-531 -678l574 -780h-502l-506 754h-6v-754h-397z" />
<glyph unicode="L" horiz-adv-x="1138" d="M115 0v1458h397v-1159h606v-299h-1003z" />
<glyph unicode="M" horiz-adv-x="1804" d="M115 0v1458h454l334 -364l334 364h453v-1458h-396v1073h-6l-385 -422l-387 422h-6v-1073h-395z" />
<glyph unicode="N" horiz-adv-x="1683" d="M115 0v1458h520l569 -995h13l-9 995h361v-1458h-506l-586 1004h-12l12 -1004h-362z" />
<glyph unicode="O" horiz-adv-x="1761" d="M70 729q0 340 226 547t583 207q362 0 587.5 -208t225.5 -546q0 -336 -226.5 -545t-586.5 -209q-348 0 -578.5 208t-230.5 546zM481 729q0 -188 110.5 -325.5t287.5 -137.5q180 0 290.5 137.5t110.5 325.5q0 195 -109.5 329t-291.5 134q-184 0 -291 -132t-107 -331z" />
<glyph unicode="P" horiz-adv-x="1277" d="M115 0v1458h534q582 0 582 -479q0 -223 -151.5 -349t-420.5 -126h-147v-504h-397zM510 782h86q238 0 238 201q0 197 -240 197h-84v-398z" />
<glyph unicode="Q" horiz-adv-x="1761" d="M70 729q0 340 226 547t583 207q362 0 587.5 -208t225.5 -546q0 -238 -118 -416t-327 -268l326 -324h-443l-243 254h-8q-348 0 -578.5 208t-230.5 546zM481 729q0 -188 110.5 -324.5t287.5 -136.5q180 0 290.5 137.5t110.5 323.5q0 195 -109.5 329t-291.5 134 q-184 0 -291 -132t-107 -331z" />
<glyph unicode="R" horiz-adv-x="1388" d="M137 0v1458h668q203 0 337 -114.5t134 -299.5q0 -141 -79 -257.5t-198 -155.5l344 -631h-436l-266 561h-106v-561h-398zM532 846h144q203 0 203 174q0 76 -57.5 121t-145.5 45h-144v-340z" />
<glyph unicode="S" horiz-adv-x="1148" d="M63 1036q0 127 51.5 218.5t140.5 138.5t189.5 68.5t219.5 21.5q172 0 342 -53v-306q-158 70 -312 70q-47 0 -76.5 -3t-67.5 -15.5t-57.5 -42t-19.5 -74.5q0 -23 7 -43.5t24.5 -36.5t31 -27.5t43 -25t41 -18.5t46 -16t39.5 -13q88 -33 137 -56.5t114.5 -72t97 -122 t31.5 -173.5q0 -479 -602 -480q-203 0 -405 62v328q190 -100 397 -101q100 0 150.5 30t50.5 112q0 23 -7 44t-15.5 35.5t-29 29.5t-30.5 23.5t-39 20.5t-38 16.5t-42 15.5t-37 13q-70 25 -107.5 41.5t-97 53t-90 77.5t-55.5 108.5t-25 151.5z" />
<glyph unicode="T" horiz-adv-x="1388" d="M8 1159v299h1370v-299h-485v-1159h-397v1159h-488z" />
<glyph unicode="U" horiz-adv-x="1638" d="M115 594v864h397v-803q0 -176 82 -282.5t227 -106.5q143 0 225 106.5t82 282.5v803h398v-862q0 -291 -202 -456t-505 -165q-299 0 -501.5 165t-202.5 454z" />
<glyph unicode="V" horiz-adv-x="1478" d="M0 1458h424l319 -1124h5l319 1124h408l-500 -1458h-486z" />
<glyph unicode="W" horiz-adv-x="2123" d="M0 1458h412l200 -1108h4l201 1108h504l207 -1108h4l201 1108h393l-340 -1458h-516l-211 1110h-4l-197 -1110h-520z" />
<glyph unicode="X" horiz-adv-x="1490" d="M4 0l473 764l-424 694h463l244 -483l252 483h432l-428 -694l471 -764h-473l-285 541l-280 -541h-445z" />
<glyph unicode="Y" horiz-adv-x="1456" d="M-6 1458h455l280 -594h4l279 594h450l-534 -919v-539h-398v539z" />
<glyph unicode="Z" d="M41 0v317l696 850h-676v291h1119v-317l-709 -848h715v-293h-1145z" />
<glyph unicode="[" horiz-adv-x="796" d="M170 -287v1835h551v-239h-236v-1356h236v-240h-551z" />
<glyph unicode="\" horiz-adv-x="587" d="M-51 1483h268l422 -1508h-268z" />
<glyph unicode="]" horiz-adv-x="796" d="M74 -47h237v1356h-237v239h553v-1835h-553v240z" />
<glyph unicode="^" d="M139 711l357 747h237l357 -747h-256l-220 458l-219 -458h-256z" />
<glyph unicode="_" horiz-adv-x="1024" d="M0 -154h1024v-102h-1024v102z" />
<glyph unicode="`" horiz-adv-x="671" d="M-33 1497h393l146 -297h-262z" />
<glyph unicode="a" d="M49 309q0 115 55.5 194t147.5 114.5t175 50t173 14.5q59 0 176 -20q-2 182 -246 182q-203 0 -348 -82v256q193 74 428 74q229 0 376 -105.5t147 -337.5v-649h-340v164h-5q-123 -188 -339 -189q-170 0 -285 86t-115 248zM408 338q0 -53 40.5 -84t106.5 -31q55 0 124 38 t97 77v137q-14 0 -65.5 5t-79.5 5q-98 0 -160.5 -36.5t-62.5 -110.5z" />
<glyph unicode="b" horiz-adv-x="1402" d="M102 0v1458h385v-526h5q113 160 339 160q238 0 378.5 -157t140.5 -382q0 -248 -144.5 -413t-398.5 -165q-117 0 -207 52.5t-141 122.5h-4v-150h-353zM487 375q113 -109 230 -109q104 0 170.5 78t66.5 203q0 106 -66.5 182t-170.5 76q-123 0 -230 -111v-319z" />
<glyph unicode="c" horiz-adv-x="1052" d="M59 535q0 260 175.5 408.5t449.5 148.5q174 0 301 -58v-280q-121 70 -260 69q-117 0 -192.5 -75.5t-75.5 -219.5q0 -137 79.5 -210.5t192.5 -73.5q63 0 140 20.5t124 46.5v-288q-145 -47 -309 -48q-270 0 -447.5 151t-177.5 409z" />
<glyph unicode="d" horiz-adv-x="1402" d="M53 553q0 225 140.5 382t377.5 157q227 0 340 -160h4v526h385v-1458h-352v150h-4q-51 -70 -141 -122.5t-207 -52.5q-254 0 -398.5 165t-144.5 413zM449 547q0 -125 66.5 -203t170.5 -78q117 0 229 109v319q-106 111 -229 111q-104 0 -170.5 -76t-66.5 -182z" />
<glyph unicode="e" d="M55 537q0 250 162 402.5t418 152.5q279 0 410 -168t131 -432v-68h-736q29 -201 312 -201q176 0 327 80v-260q-174 -68 -399 -68q-272 0 -448.5 154t-176.5 408zM436 635h398q0 98 -48.5 158.5t-150.5 60.5q-92 0 -142.5 -61.5t-56.5 -157.5z" />
<glyph unicode="f" horiz-adv-x="858" d="M0 791v276h193q0 209 118.5 312.5t333.5 103.5q100 0 213 -23v-256q-61 20 -147 21q-57 0 -94 -48.5t-37 -109.5h278v-276h-278v-791h-387v791h-193z" />
<glyph unicode="g" horiz-adv-x="1390" d="M53 537q0 240 139.5 397.5t362.5 157.5q264 0 379 -197h4v172h350v-917q0 -309 -162.5 -443.5t-502.5 -134.5q-227 0 -406 63v299q180 -90 365 -90q328 0 327 306v32h-4q-127 -180 -354 -180q-221 0 -359.5 149.5t-138.5 385.5zM449 545q0 -115 76.5 -185.5t168.5 -70.5 q61 0 124 38t91 93v256q-84 129 -215 129q-106 0 -175.5 -75.5t-69.5 -184.5z" />
<glyph unicode="h" horiz-adv-x="1304" d="M102 0v1458h383v-524h4q117 158 334 158q201 0 293 -118t92 -300v-674h-383v522q0 256 -161 256q-43 0 -80 -20.5t-55.5 -43t-43.5 -59.5v-655h-383z" />
<glyph unicode="i" horiz-adv-x="606" d="M111 0v1067h385v-1067h-385zM111 1190v268h385v-268h-385z" />
<glyph unicode="j" horiz-adv-x="606" d="M-90 -164q27 -8 86 -8q74 0 97.5 53t23.5 148v1038h383v-1055q0 -213 -86 -326.5t-287 -113.5q-131 0 -217 18v246zM117 1190v268h383v-268h-383z" />
<glyph unicode="k" horiz-adv-x="1251" d="M106 0v1458h383v-866h5l323 475h422l-371 -487l400 -580h-461l-313 565h-5v-565h-383z" />
<glyph unicode="l" horiz-adv-x="606" d="M111 0v1458h385v-1458h-385z" />
<glyph unicode="m" horiz-adv-x="1990" d="M102 0v1067h351v-193h4q115 217 368 218q117 0 205 -52.5t129 -152.5h4q123 205 353 205q113 0 189.5 -34t116.5 -96.5t55 -132t15 -159.5v-670h-383v573q0 205 -141 205q-109 0 -180 -123v-655h-383v573q0 205 -141 205q-47 0 -84 -20.5t-54.5 -43t-40.5 -59.5v-655 h-383z" />
<glyph unicode="n" horiz-adv-x="1304" d="M102 0v1067h383v-133h4q117 158 334 158q201 0 293 -118t92 -300v-674h-383v522q0 256 -161 256q-43 0 -80 -20.5t-55.5 -43t-43.5 -59.5v-655h-383z" />
<glyph unicode="o" horiz-adv-x="1402" d="M55 535q0 270 181.5 413.5t463.5 143.5q281 0 464.5 -147.5t183.5 -409.5q0 -258 -184.5 -409t-463 -151t-462 151t-183.5 409zM453 535q0 -131 64.5 -212t182.5 -81q117 0 183.5 85t66.5 208q0 129 -65.5 209.5t-184.5 80.5q-117 0 -182 -80.5t-65 -209.5z" />
<glyph unicode="p" horiz-adv-x="1402" d="M102 -410v1477h385v-135h5q113 160 339 160q238 0 378.5 -157t140.5 -382q0 -248 -144.5 -413t-398.5 -165q-117 0 -207 52.5t-141 122.5h-4v-560h-353zM487 375q113 -109 230 -109q104 0 170.5 78t66.5 203q0 106 -66.5 182t-170.5 76q-123 0 -230 -111v-319z" />
<glyph unicode="q" horiz-adv-x="1402" d="M53 553q0 225 140.5 382t377.5 157q227 0 340 -160h4l13 135h372v-1477h-352v560h-4q-51 -70 -141 -122.5t-207 -52.5q-254 0 -398.5 165t-144.5 413zM449 547q0 -125 66.5 -203t170.5 -78q117 0 229 109v319q-106 111 -229 111q-104 0 -170.5 -76t-66.5 -182z" />
<glyph unicode="r" horiz-adv-x="909" d="M106 0v1067h351v-154h4q121 178 315 179q51 0 121 -13v-327q-66 20 -139 20q-90 0 -160 -40t-109 -93v-639h-383z" />
<glyph unicode="s" horiz-adv-x="1019" d="M57 743q0 119 74 201t175.5 115t217.5 33q213 0 369 -60v-264q-59 33 -149.5 54.5t-161.5 21.5q-168 0 -168 -74q0 -23 11 -39t42 -28.5t52.5 -18.5t73.5 -17.5t75 -17.5q135 -35 215 -103.5t80 -211.5q0 -102 -43 -175t-119 -112t-160 -55.5t-182 -16.5q-221 0 -387 52 v276q180 -80 360 -80q152 0 152 84q0 33 -28 56.5t-59.5 34t-93.5 26.5l-24 6q-72 18 -115 34.5t-98 51.5t-82 91t-27 136z" />
<glyph unicode="t" horiz-adv-x="847" d="M0 791v276h170v236l383 116v-352h295v-276h-295v-369q0 -188 162 -189q66 0 133 23v-254q-111 -27 -252 -27q-233 0 -329.5 99.5t-96.5 302.5v414h-170z" />
<glyph unicode="u" horiz-adv-x="1306" d="M96 393v674h383v-541q0 -238 162 -237q104 0 180 123v655h383v-1067h-352v190h-4q-106 -215 -367 -215q-201 0 -293 118t-92 300z" />
<glyph unicode="v" d="M4 1067h410l211 -754h4l215 754h381l-389 -1067h-443z" />
<glyph unicode="w" horiz-adv-x="1878" d="M6 1067h397l156 -762h4l158 762h461l155 -762h4l162 762h369l-320 -1067h-450l-156 768h-4l-186 -768h-439z" />
<glyph unicode="x" d="M-2 0l360 545l-333 522h448l156 -319l164 319h413l-329 -516l354 -551h-455l-176 334l-176 -334h-426z" />
<glyph unicode="y" d="M2 1067h410l221 -684h4l209 684h381l-580 -1477h-391l184 406z" />
<glyph unicode="z" horiz-adv-x="1077" d="M53 0v309l525 477l2 5h-517v276h951v-307l-525 -484h5h528v-276h-969z" />
<glyph unicode="{" horiz-adv-x="792" d="M59 537v188q25 0 48.5 4t54.5 16.5t50 42t19 72.5v408q0 137 86 208.5t205 71.5h213v-188h-90q-119 0 -119 -131v-373q0 -207 -241 -223v-4q47 -4 78.5 -11.5t74.5 -29t65.5 -70.5t22.5 -125v-360q0 -131 119 -131h90v-189h-213q-119 0 -205 72t-86 209v395 q0 61 -35.5 97t-68.5 43.5t-68 7.5z" />
<glyph unicode="|" horiz-adv-x="454" d="M94 -410v1946h266v-1946h-266z" />
<glyph unicode="}" horiz-adv-x="792" d="M59 -98h88q119 0 119 131v373q0 207 242 223v4q-47 4 -79 11t-75 28.5t-65.5 71t-22.5 124.5v361q0 131 -119 131h-88v188h211q119 0 205 -71.5t86 -208.5v-396q0 -61 36 -97t69.5 -43t68.5 -7v-188q-25 0 -49 -4.5t-55 -16.5t-50.5 -42t-19.5 -73v-407q0 -137 -86 -209 t-205 -72h-211v189z" />
<glyph unicode="~" d="M84 471q39 59 59.5 89t61.5 74t88 63.5t104 19.5q86 0 231.5 -66.5t205.5 -66.5q84 0 163 116l148 -135q-39 -59 -59.5 -89t-61.5 -74t-88 -63.5t-105 -19.5q-86 0 -229 67t-207 67q-84 0 -164 -117z" />
<glyph unicode="&#xa3;" horiz-adv-x="1290" d="M113 0v272h190v396h-176v192h180v115q0 258 153.5 383t432.5 125q115 0 278 -37v-275q-74 27 -184 27q-160 0 -225.5 -65.5t-65.5 -198.5v-74h318v-192h-318v-396h471v-272h-1054z" />
<glyph unicode="&#xa9;" horiz-adv-x="1638" d="M70 729q0 311 220 532.5t529 221.5t529.5 -221.5t220.5 -532.5t-220.5 -532.5t-529.5 -221.5t-529 221.5t-220 532.5zM299 729.5q0 -233.5 151.5 -391.5t368.5 -158t368.5 158t151.5 391.5t-151.5 391t-368.5 157.5t-368.5 -157.5t-151.5 -391zM471 725 q0 186 113.5 282.5t300.5 96.5q49 0 196 -37v-147q-94 47 -186 47q-104 0 -167.5 -68t-63.5 -174.5t69.5 -171t177.5 -64.5q86 0 187 37v-145q-23 -4 -67 -12.5t-77.5 -12.5t-66.5 -4q-104 0 -194.5 34t-156 122t-65.5 217z" />
<glyph unicode="&#xab;" horiz-adv-x="1251" d="M100 551l242 420h313l-221 -420l221 -420h-313zM594 551l244 420h311l-221 -420l221 -420h-311z" />
<glyph unicode="&#xad;" horiz-adv-x="690" d="M66 412v278h557v-278h-557z" />
<glyph unicode="&#xae;" horiz-adv-x="819" d="M35 1112q0 154 108.5 262.5t259.5 108.5q154 0 262.5 -108.5t108.5 -260.5q0 -154 -108.5 -262.5t-259.5 -108.5q-154 0 -262.5 108.5t-108.5 260.5zM152 1114q0 -113 73.5 -189.5t177.5 -76.5q106 0 180 75.5t74 190.5v-2q0 113 -73.5 189.5t-177.5 76.5 q-106 0 -180 -75.5t-74 -188.5zM264 934v358h170q49 0 82 -28.5t33 -81.5q0 -63 -55 -92l73 -156h-100l-66 141h-41v-141h-96zM358 1143h33q20 0 30.5 1t21 11t10.5 31h2q0 39 -62 39h-35v-82z" />
<glyph unicode="&#xb0;" horiz-adv-x="819" d="M106 1159q0 125 89.5 214t214.5 89t214 -89t89 -214q0 -127 -89 -216t-214 -89t-214.5 89t-89.5 216zM264 1159.5q0 -59.5 43 -102.5t102.5 -43t102.5 43t43 102.5t-43 102.5t-102.5 43t-102.5 -43t-43 -102.5z" />
<glyph unicode="&#xbb;" horiz-adv-x="1251" d="M102 131l222 420l-222 420h312l243 -420l-243 -420h-312zM596 131l221 420l-221 420h311l244 -420l-244 -420h-311z" />
<glyph unicode="&#x2c6;" d="M139 711l357 747h237l357 -747h-256l-220 458l-219 -458h-256z" />
<glyph unicode="&#x2da;" horiz-adv-x="647" d="M-304 428q0 125 89.5 214t214.5 89t214 -89t89 -214q0 -127 -89 -216t-214 -89t-214.5 89t-89.5 216zM-146 428.5q0 -59.5 43 -102.5t102.5 -43t102.5 43t43 102.5t-43 102.5t-102.5 43t-102.5 -43t-43 -102.5z" />
<glyph unicode="&#x2dc;" horiz-adv-x="647" d="M-530 274q39 59 59.5 89t61.5 74t88 63.5t104 19.5q86 0 231.5 -66.5t205.5 -66.5q84 0 163 116l148 -135q-39 -59 -59.5 -89t-61.5 -74t-88 -63.5t-105 -19.5q-86 0 -229 67t-207 67q-84 0 -164 -117z" />
<glyph unicode="&#x400;" horiz-adv-x="1187" d="M205 1903h393l146 -297h-262zM115 0v1458h993v-280h-596v-295h539v-281h-539v-321h618v-281h-1015z" />
<glyph unicode="&#x401;" horiz-adv-x="1187" d="M115 0v1458h993v-280h-596v-295h539v-281h-539v-321h618v-281h-1015zM229 1538v297h303v-297h-303zM705 1538v297h301v-297h-301z" />
<glyph unicode="&#x402;" horiz-adv-x="1769" d="M10 1159v299h1370v-299h-569v-426q57 76 154.5 119t203.5 43q236 0 379.5 -158.5t143.5 -382.5q0 -246 -147.5 -411.5t-399.5 -165.5q-100 0 -256 41v291q72 -33 160 -33q113 0 174 78.5t61 195.5q0 104 -64.5 177t-162.5 73q-137 0 -246 -113v-487h-397v1159h-404z" />
<glyph unicode="&#x403;" horiz-adv-x="1118" d="M115 0v1458h985v-287h-588v-1171h-397zM348 1538l146 297h393l-279 -297h-260z" />
<glyph unicode="&#x404;" horiz-adv-x="1366" d="M61 725q0 367 232.5 562.5t605.5 195.5q178 0 426 -72v-321q-203 104 -395 104q-160 0 -274.5 -84t-159.5 -229h567v-279h-576q39 -160 164 -248t303 -88q160 0 373 78v-311q-109 -29 -182 -39q-125 -18 -244 -19q-158 0 -301 42t-267 127t-198 234.5t-74 346.5z" />
<glyph unicode="&#x405;" horiz-adv-x="1148" d="M63 1036q0 127 51.5 218.5t140.5 138.5t189.5 68.5t219.5 21.5q172 0 342 -53v-306q-158 70 -312 70q-47 0 -76.5 -3t-67.5 -15.5t-57.5 -42t-19.5 -74.5q0 -23 7 -43.5t24.5 -36.5t31 -27.5t43 -25t41 -18.5t46 -16t39.5 -13q88 -33 137 -56.5t114.5 -72t97 -122 t31.5 -173.5q0 -479 -602 -480q-203 0 -405 62v328q190 -100 397 -101q100 0 150.5 30t50.5 112q0 23 -7 44t-15.5 35.5t-29 29.5t-30.5 23.5t-39 20.5t-38 16.5t-42 15.5t-37 13q-70 25 -107.5 41.5t-97 53t-90 77.5t-55.5 108.5t-25 151.5z" />
<glyph unicode="&#x406;" horiz-adv-x="645" d="M123 0v1458h399v-1458h-399z" />
<glyph unicode="&#x407;" horiz-adv-x="645" d="M-66 1538v297h304v-297h-304zM123 0v1458h399v-1458h-399zM410 1538v297h301v-297h-301z" />
<glyph unicode="&#x408;" horiz-adv-x="905" d="M14 16v322q76 -33 168 -33q203 0 203 316v837h397v-960q0 -248 -120.5 -385.5t-399.5 -137.5q-88 0 -248 41z" />
<glyph unicode="&#x409;" horiz-adv-x="2201" d="M0 23v311q66 -20 127 -21q49 0 82 32t47 94.5t19.5 124t5.5 149.5v745h1130v-524h193q262 0 403 -124t141 -341q0 -242 -146.5 -355.5t-463.5 -113.5h-524v1171h-336v-518q0 -299 -104.5 -482t-325.5 -183q-117 0 -248 35zM1409 279h90q252 0 252 186q0 190 -250 190h-92 v-376z" />
<glyph unicode="&#x40a;" horiz-adv-x="2201" d="M113 0v1458h397v-522h512v522h397v-524h193q262 0 403.5 -124t141.5 -341q0 -242 -146.5 -355.5t-464.5 -113.5h-524v649h-512v-649h-397zM1417 276h90q252 0 252 189q0 190 -250 190h-92v-379z" />
<glyph unicode="&#x40b;" horiz-adv-x="1769" d="M10 1159v299h1370v-299h-569v-250q188 29 279 29q303 0 452.5 -114.5t149.5 -401.5v-422h-400v358q0 158 -44 228.5t-181 70.5q-141 0 -256 -28v-629h-397v1159h-404z" />
<glyph unicode="&#x40c;" horiz-adv-x="1517" d="M119 0v1458h397v-680h6l492 680h473l-531 -678l574 -780h-502l-506 754h-6v-754h-397zM500 1538l145 297h393l-278 -297h-260z" />
<glyph unicode="&#x40d;" horiz-adv-x="1638" d="M409 1903h393l146 -297h-262zM113 0v1458h393v-966h8l569 966h441v-1458h-394v924h-8l-542 -924h-467z" />
<glyph unicode="&#x40e;" horiz-adv-x="1478" d="M0 1458h442l301 -684h7l290 684h439l-748 -1458h-426l244 408zM389 1755l143 64q20 -66 82 -99.5t127.5 -33.5t125 31.5t81.5 101.5l146 -64q-37 -123 -129.5 -194.5t-223.5 -71.5q-133 0 -224 70.5t-128 195.5z" />
<glyph unicode="&#x40f;" horiz-adv-x="1638" d="M113 0v1458h397v-1171h616v1171h398v-1458h-512v-352h-385v352h-514z" />
<glyph unicode="&#x410;" horiz-adv-x="1570" d="M-12 0l540 1458h502l553 -1458h-434l-107 313h-542l-111 -313h-401zM588 590h366l-172 571h-10z" />
<glyph unicode="&#x411;" horiz-adv-x="1339" d="M119 0v1458h1024v-280h-629v-297h262q221 0 353.5 -113t132.5 -328q0 -154 -76 -256t-186.5 -143t-249.5 -41h-631zM514 272h117q113 0 172 38t59 132q0 102 -59.5 140.5t-167.5 38.5h-121v-349z" />
<glyph unicode="&#x412;" horiz-adv-x="1349" d="M117 0v1458h647q211 0 340 -95t129 -273q0 -256 -258 -338v-7q295 -61 295 -327q0 -119 -47 -205t-131 -130t-176.5 -63.5t-202.5 -19.5h-596zM512 272h115q119 0 181 35t62 135q0 109 -61 144t-178 35h-119v-349zM512 881h109q102 0 158.5 34.5t56.5 122.5 q0 92 -51.5 122t-159.5 30h-113v-309z" />
<glyph unicode="&#x413;" horiz-adv-x="1118" d="M115 0v1458h985v-287h-588v-1171h-397z" />
<glyph unicode="&#x414;" horiz-adv-x="1601" d="M18 287h138q61 92 99 282.5t48 405.5l21 483h1116v-1171h137v-639h-385v354h-789v-354h-385v639zM578 287h464v893h-337l-15 -234q-24 -407 -112 -659z" />
<glyph unicode="&#x415;" horiz-adv-x="1187" d="M115 0v1458h993v-280h-596v-295h539v-281h-539v-321h618v-281h-1015z" />
<glyph unicode="&#x416;" horiz-adv-x="2299" d="M-18 0l528 780l-487 678h475l448 -682h4v682h398v-682h4l448 682h475l-487 -678l530 -780h-501l-465 758h-4v-758h-398v758h-4l-463 -758h-501z" />
<glyph unicode="&#x417;" d="M74 37v325q193 -100 403 -100q63 0 120.5 14.5t105 59.5t47.5 115q0 168 -242 167h-172v248h172q84 0 152.5 40t68.5 124q0 166 -246 166q-197 0 -352 -70v304q166 53 418 53q113 0 209 -18.5t182 -61.5t135 -124t49 -194q0 -123 -71.5 -204.5t-198.5 -114.5v-6 q135 -27 214 -114t79 -222q0 -125 -57.5 -217t-153.5 -140.5t-200.5 -70t-221.5 -21.5q-233 1 -440 62z" />
<glyph unicode="&#x418;" horiz-adv-x="1638" d="M113 0v1458h393v-966h8l569 966h441v-1458h-394v924h-8l-542 -924h-467z" />
<glyph unicode="&#x419;" horiz-adv-x="1638" d="M113 0v1458h393v-966h8l569 966h441v-1458h-394v924h-8l-542 -924h-467zM444 1757l142 64q23 -66 84 -99.5t127 -33.5q63 0 123.5 32.5t83.5 100.5l145 -64q-37 -123 -129 -194.5t-223 -71.5q-135 0 -226.5 70.5t-126.5 195.5z" />
<glyph unicode="&#x41a;" horiz-adv-x="1517" d="M119 0v1458h397v-680h6l492 680h473l-531 -678l574 -780h-502l-506 754h-6v-754h-397z" />
<glyph unicode="&#x41b;" horiz-adv-x="1554" d="M4 23v311q66 -20 127 -21q49 0 82 32t47 94.5t19.5 124t5.5 149.5v745h1153v-1458h-398v1171h-358v-518q0 -299 -104.5 -482t-325.5 -183q-117 0 -248 35z" />
<glyph unicode="&#x41c;" horiz-adv-x="1804" d="M115 0v1458h454l334 -364l334 364h453v-1458h-396v1073h-6l-385 -422l-387 422h-6v-1073h-395z" />
<glyph unicode="&#x41d;" horiz-adv-x="1638" d="M113 0v1458h397v-555h616v555h398v-1458h-398v618h-616v-618h-397z" />
<glyph unicode="&#x41e;" horiz-adv-x="1761" d="M70 729q0 340 226 547t583 207q362 0 587.5 -208t225.5 -546q0 -336 -226.5 -545t-586.5 -209q-348 0 -578.5 208t-230.5 546zM481 729q0 -188 110.5 -325.5t287.5 -137.5q180 0 290.5 137.5t110.5 325.5q0 195 -109.5 329t-291.5 134q-184 0 -291 -132t-107 -331z" />
<glyph unicode="&#x41f;" horiz-adv-x="1638" d="M113 0v1458h1411v-1458h-398v1171h-616v-1171h-397z" />
<glyph unicode="&#x420;" horiz-adv-x="1277" d="M115 0v1458h534q582 0 582 -479q0 -223 -151.5 -349t-420.5 -126h-147v-504h-397zM510 782h86q238 0 238 201q0 197 -240 197h-84v-398z" />
<glyph unicode="&#x421;" horiz-adv-x="1366" d="M61 725q0 367 232.5 562.5t605.5 195.5q178 0 426 -72v-324q-203 104 -395 105q-205 0 -330 -131t-125 -336q0 -211 132 -334t347 -123q166 0 373 80v-315q-109 -29 -182 -39q-125 -18 -244 -19q-158 0 -301 42t-267 127t-198 234.5t-74 346.5z" />
<glyph unicode="&#x422;" horiz-adv-x="1388" d="M8 1159v299h1370v-299h-485v-1159h-397v1159h-488z" />
<glyph unicode="&#x423;" horiz-adv-x="1478" d="M0 1458h442l301 -684h7l290 684h439l-748 -1458h-426l244 408z" />
<glyph unicode="&#x424;" horiz-adv-x="1900" d="M66 752q0 264 167.5 415.5t446.5 165.5q23 2 76 2v138h391v-138q53 0 74 -2q281 -14 447.5 -165.5t166.5 -415.5q0 -270 -170 -423t-446 -171q-20 -2 -72 -2v-170h-391v170q-51 0 -72 2q-276 18 -447 171t-171 423zM459 752q0 -164 82 -246t215 -82v643 q-137 0 -217 -76.5t-80 -238.5zM1147 424q135 0 216 82t81 246q0 160 -84 237.5t-213 77.5v-643z" />
<glyph unicode="&#x425;" horiz-adv-x="1490" d="M4 0l473 764l-424 694h463l244 -483l252 483h432l-428 -694l471 -764h-473l-285 541l-280 -541h-445z" />
<glyph unicode="&#x426;" horiz-adv-x="1658" d="M115 0v1458h397v-1171h590v1171h397v-1171h139v-639h-385v352h-1138z" />
<glyph unicode="&#x427;" horiz-adv-x="1478" d="M86 1036v422h399v-358q0 -158 44 -228.5t182 -70.5q141 0 256 28v629h397v-1458h-397v549q-188 -29 -279 -29q-303 0 -452.5 114.5t-149.5 401.5z" />
<glyph unicode="&#x428;" horiz-adv-x="2316" d="M115 0v1458h397v-1173h446v1173h400v-1173h446v1173h398v-1458h-2087z" />
<glyph unicode="&#x429;" horiz-adv-x="2363" d="M115 0v1458h397v-1171h446v1171h400v-1171h446v1171h398v-1171h137v-639h-383v352h-1841z" />
<glyph unicode="&#x42a;" horiz-adv-x="1523" d="M20 1171v287h725v-504h205q260 0 396.5 -128t136.5 -347q0 -246 -142.5 -362.5t-457.5 -116.5h-537v1171h-326zM743 276h103q238 0 237 199q0 201 -237 201h-103v-400z" />
<glyph unicode="&#x42b;" horiz-adv-x="1873" d="M113 0v1458h397v-504h186q260 0 396.5 -128t136.5 -347q0 -246 -142.5 -362.5t-457.5 -116.5h-516zM508 276h84q240 0 239 199q0 201 -237 201h-86v-400zM1364 0v1458h397v-1458h-397z" />
<glyph unicode="&#x42c;" horiz-adv-x="1290" d="M115 0v1458h397v-504h205q260 0 396 -128t136 -347q0 -246 -142 -362.5t-458 -116.5h-534zM510 276h102q240 0 240 199q0 201 -238 201h-104v-400z" />
<glyph unicode="&#x42d;" horiz-adv-x="1366" d="M39 33v311q213 -78 373 -78q178 0 303 88t164 248h-576v279h567q-45 145 -159.5 229t-274.5 84q-193 0 -395 -104v321q248 72 428 72q373 0 604.5 -195.5t231.5 -562.5q0 -197 -74 -346.5t-198 -234.5t-267 -127t-299 -42q-121 0 -246 19q-73 10 -182 39z" />
<glyph unicode="&#x42e;" horiz-adv-x="2183" d="M115 0v1458h397v-555h143q45 279 229.5 429.5t493.5 150.5q358 0 548 -198t190 -556q0 -356 -190.5 -555t-547.5 -199q-324 0 -512 169t-219 474h-135v-618h-397zM1055 729q0 -197 79.5 -331t243.5 -134q166 0 245 134t79 331q0 201 -79 333t-245 132t-244.5 -132 t-78.5 -333z" />
<glyph unicode="&#x42f;" horiz-adv-x="1366" d="M25 0l348 590q-123 43 -201 150.5t-78 267.5q0 186 136.5 318t332.5 132h686v-1458h-397v524h-113l-268 -524h-446zM489 991q0 -96 59.5 -145t145.5 -49h160v387h-160q-86 0 -145.5 -56.5t-59.5 -136.5z" />
<glyph unicode="&#x430;" d="M49 309q0 115 55.5 194t147.5 114.5t175 50t173 14.5q59 0 176 -20q-2 182 -246 182q-203 0 -348 -82v256q193 74 428 74q229 0 376 -105.5t147 -337.5v-649h-340v164h-5q-123 -188 -339 -189q-170 0 -285 86t-115 248zM408 338q0 -53 40.5 -84t106.5 -31q55 0 124 38 t97 77v137q-14 0 -65.5 5t-79.5 5q-98 0 -160.5 -36.5t-62.5 -110.5z" />
<glyph unicode="&#x431;" horiz-adv-x="1402" d="M70 637q0 252 43 392t116 241q72 98 215.5 168.5t362.5 70.5q238 0 385 41v-293q-158 -41 -418 -40q-184 0 -307 -85t-145 -268h6q47 80 162.5 144.5t261.5 64.5q260 0 424.5 -146.5t164.5 -400.5t-180 -402.5t-456 -148.5q-299 0 -467 180.5t-168 481.5zM465 526 q0 -129 63.5 -206.5t176 -77.5t177 82t64.5 202q0 125 -63.5 203t-177.5 78q-113 0 -176.5 -78t-63.5 -203z" />
<glyph unicode="&#x432;" d="M102 0v1067h635q373 0 373 -268q0 -104 -55.5 -164t-128.5 -72v-4q100 -10 165.5 -69.5t65.5 -167.5q0 -162 -102.5 -242t-290.5 -80h-662zM479 225h178q125 0 125 109q0 70 -32.5 90t-96.5 20h-174v-219zM479 653h131q129 0 129 94.5t-127 94.5h-133v-189z" />
<glyph unicode="&#x433;" horiz-adv-x="890" d="M102 0v1067h783v-276h-400v-791h-383z" />
<glyph unicode="&#x434;" horiz-adv-x="1394" d="M29 276h114q37 47 70 192.5t37 270.5l14 328h977v-791h117v-583h-369v307h-594v-307h-366v583zM524 276h336v521h-256l-6 -99q-21 -309 -74 -422z" />
<glyph unicode="&#x435;" d="M55 537q0 250 162 402.5t418 152.5q279 0 410 -168t131 -432v-68h-736q29 -201 312 -201q176 0 327 80v-260q-174 -68 -399 -68q-272 0 -448.5 154t-176.5 408zM436 635h398q0 98 -48.5 158.5t-150.5 60.5q-92 0 -142.5 -61.5t-56.5 -157.5z" />
<glyph unicode="&#x436;" horiz-adv-x="1867" d="M-10 0l385 559l-357 508h418l307 -500h5v500h372v-500h4l308 500h417l-356 -508l385 -559h-459l-295 547h-4v-547h-372v547h-5l-297 -547h-456z" />
<glyph unicode="&#x437;" horiz-adv-x="1036" d="M57 27v274q182 -76 357 -76q176 0 176 101q0 96 -197 96h-106v217h114q82 0 127 28.5t45 80.5q0 94 -165 94q-74 0 -164 -21.5t-148 -54.5v264q162 61 381 62q92 0 170 -14.5t147.5 -46.5t109.5 -92t40 -144q0 -92 -57.5 -152.5t-159.5 -85.5v-4q111 -14 179.5 -77.5 t68.5 -168.5q0 -94 -47 -162.5t-128 -103.5t-168 -50.5t-186 -15.5q-219 1 -389 52z" />
<glyph unicode="&#x438;" horiz-adv-x="1331" d="M102 0v1067h373v-616h2l316 616h436v-1067h-373v614h-2l-315 -614h-437z" />
<glyph unicode="&#x439;" horiz-adv-x="1331" d="M102 0v1067h373v-616h2l316 616h436v-1067h-373v614h-2l-315 -614h-437zM315 1409l148 66q39 -131 203 -132q162 0 200 132l150 -66q-37 -123 -128 -193.5t-222 -70.5q-133 0 -224.5 70.5t-126.5 193.5z" />
<glyph unicode="&#x43a;" horiz-adv-x="1251" d="M104 0v1067h383v-496h5l323 496h422l-371 -508l400 -559h-461l-313 545h-5v-545h-383z" />
<glyph unicode="&#x43b;" horiz-adv-x="1290" d="M4 6v275q55 -12 78 -13q49 0 74.5 44t29.5 89t4 119v547h998v-1067h-383v791h-236v-271q0 -102 -19.5 -192t-61.5 -170t-118.5 -127t-181 -47.5t-184.5 22.5z" />
<glyph unicode="&#x43c;" horiz-adv-x="1511" d="M102 0v1067h422l232 -291l231 291h422v-1067h-375v729h-2l-276 -328l-277 328h-2v-729h-375z" />
<glyph unicode="&#x43d;" horiz-adv-x="1304" d="M102 0v1067h383v-385h334v385h383v-1067h-383v406h-334v-406h-383z" />
<glyph unicode="&#x43e;" horiz-adv-x="1402" d="M55 535q0 270 181.5 413.5t463.5 143.5q281 0 464.5 -147.5t183.5 -409.5q0 -258 -184.5 -409t-463 -151t-462 151t-183.5 409zM453 535q0 -131 64.5 -212t182.5 -81q117 0 183.5 85t66.5 208q0 129 -65.5 209.5t-184.5 80.5q-117 0 -182 -80.5t-65 -209.5z" />
<glyph unicode="&#x43f;" horiz-adv-x="1304" d="M102 0v1067h1100v-1067h-383v791h-334v-791h-383z" />
<glyph unicode="&#x440;" horiz-adv-x="1402" d="M102 -410v1477h385v-135h5q113 160 339 160q238 0 378.5 -157t140.5 -382q0 -248 -144.5 -413t-398.5 -165q-117 0 -207 52.5t-141 122.5h-4v-560h-353zM487 375q113 -109 230 -109q104 0 170.5 78t66.5 203q0 106 -66.5 182t-170.5 76q-123 0 -230 -111v-319z" />
<glyph unicode="&#x441;" horiz-adv-x="1052" d="M59 535q0 260 175.5 408.5t449.5 148.5q174 0 301 -58v-280q-121 70 -260 69q-117 0 -192.5 -75.5t-75.5 -219.5q0 -137 79.5 -210.5t192.5 -73.5q63 0 140 20.5t124 46.5v-288q-145 -47 -309 -48q-270 0 -447.5 151t-177.5 409z" />
<glyph unicode="&#x442;" horiz-adv-x="999" d="M10 791v276h979v-276h-297v-791h-385v791h-297z" />
<glyph unicode="&#x443;" d="M2 1067h410l221 -684h4l209 684h381l-580 -1477h-391l184 406z" />
<glyph unicode="&#x444;" horiz-adv-x="1732" d="M55 522q0 266 171 418t448 152v366h385v-366q276 0 447 -152t171 -418q0 -248 -180 -397.5t-438 -149.5v-385h-385v385q-258 0 -438.5 149.5t-180.5 397.5zM440 530q0 -111 67.5 -193.5t170.5 -82.5v557q-104 0 -171 -79t-67 -202zM1055 254q102 0 169.5 83t67.5 193 q0 123 -66.5 202t-170.5 79v-557z" />
<glyph unicode="&#x445;" d="M-2 0l360 545l-333 522h448l156 -319l164 319h413l-329 -516l354 -551h-455l-176 334l-176 -334h-426z" />
<glyph unicode="&#x446;" horiz-adv-x="1343" d="M104 0v1067h383v-791h340v791h383v-791h117v-583h-369v307h-854z" />
<glyph unicode="&#x447;" horiz-adv-x="1251" d="M66 752v315h383v-207q0 -137 36.5 -187t124.5 -50q117 0 156 22v422h383v-1067h-383v410q-39 -23 -131 -39.5t-166 -16.5q-205 0 -304 111t-99 287z" />
<glyph unicode="&#x448;" horiz-adv-x="1943" d="M104 0v1067h381v-791h295v791h383v-791h293v791h383v-1067h-1735z" />
<glyph unicode="&#x449;" horiz-adv-x="1972" d="M102 0v1067h381v-791h295v791h383v-791h293v791h383v-791h115v-583h-367v307h-1483z" />
<glyph unicode="&#x44a;" horiz-adv-x="1349" d="M20 793v274h619v-350h287q168 0 274.5 -93.5t106.5 -269.5q0 -182 -118 -268t-296 -86h-637v793h-236zM639 246h168q51 0 90 30.5t39 79.5q0 113 -131 113h-166v-223z" />
<glyph unicode="&#x44b;" horiz-adv-x="1720" d="M102 0v1067h383v-350h238q168 0 274.5 -93.5t106.5 -269.5q0 -184 -117 -269t-295 -85h-590zM483 246h123q51 0 89 30.5t38 79.5q0 113 -129 113h-121v-223zM1235 0v1067h383v-1067h-383z" />
<glyph unicode="&#x44c;" horiz-adv-x="1200" d="M106 0v1067h383v-350h285q170 0 276.5 -93.5t106.5 -269.5q0 -182 -117.5 -268t-296.5 -86h-637zM489 246h168q51 0 89 30.5t38 79.5q0 113 -129 113h-166v-223z" />
<glyph unicode="&#x44d;" horiz-adv-x="1052" d="M59 23v286q47 -27 124 -47t139 -20q94 0 166.5 51t95.5 147h-342v203h338q-29 90 -96.5 136t-155.5 46q-143 0 -260 -69v278q127 57 301 58q276 0 450 -148.5t174 -408.5q0 -258 -177 -409t-447 -151q-165 1 -310 48z" />
<glyph unicode="&#x44e;" horiz-adv-x="1882" d="M102 0v1067h383v-385h107q49 195 212 302.5t396 107.5q276 0 450.5 -148.5t174.5 -409t-174 -410t-451 -149.5q-240 0 -405.5 115t-206.5 320h-103v-410h-383zM975 535q0 -129 55 -213t170 -84t171 84t56 213q0 127 -56 210.5t-171 83.5t-170 -83.5t-55 -210.5z" />
<glyph unicode="&#x44f;" d="M18 0l291 416q-78 18 -153.5 105t-75.5 210q0 162 115.5 249t281.5 87h651v-1067h-383v367h-94l-209 -367h-424zM451 711q0 -57 38.5 -92t92.5 -35h166v252h-170q-49 0 -88 -35t-39 -90z" />
<glyph unicode="&#x450;" d="M227 1511h393l146 -297h-262zM55 537q0 250 162 402.5t418 152.5q279 0 410 -168t131 -432v-68h-736q29 -201 312 -201q176 0 327 80v-260q-174 -68 -399 -68q-272 0 -448.5 154t-176.5 408zM436 635h398q0 98 -48.5 158.5t-150.5 60.5q-92 0 -142.5 -61.5t-56.5 -157.5z " />
<glyph unicode="&#x451;" d="M55 537q0 250 162 402.5t418 152.5q279 0 410 -168t131 -432v-68h-736q29 -201 312 -201q176 0 327 80v-260q-174 -68 -399 -68q-272 0 -448.5 154t-176.5 408zM221 1190v268h303v-268h-303zM436 635h398q0 98 -48.5 158.5t-150.5 60.5q-92 0 -142.5 -61.5t-56.5 -157.5z M715 1190v268h301v-268h-301z" />
<glyph unicode="&#x452;" horiz-adv-x="1423" d="M31 827v265h102v366h383v-366h526v-265h-526v-239q119 160 354 160q223 0 362.5 -158t139.5 -397q0 -233 -143.5 -379t-366.5 -146q-131 0 -217 19v266q27 -8 86 -8q92 0 169 70.5t77 185.5q0 109 -69.5 184.5t-176.5 75.5q-131 0 -215 -129v-332h-383v827h-102z" />
<glyph unicode="&#x453;" horiz-adv-x="890" d="M102 0v1067h783v-276h-400v-791h-383zM217 1200l145 297h394l-279 -297h-260z" />
<glyph unicode="&#x454;" horiz-adv-x="1052" d="M59 535q0 260 174.5 408.5t450.5 148.5q174 0 301 -58v-278q-117 70 -260 69q-88 0 -155.5 -46t-96.5 -136h338v-203h-342q23 -96 95.5 -147t166.5 -51q61 0 138 20.5t124 46.5v-286q-145 -47 -309 -48q-270 0 -447.5 151t-177.5 409z" />
<glyph unicode="&#x455;" horiz-adv-x="1019" d="M57 743q0 119 74 201t175.5 115t217.5 33q213 0 369 -60v-264q-59 33 -149.5 54.5t-161.5 21.5q-168 0 -168 -74q0 -23 11 -39t42 -28.5t52.5 -18.5t73.5 -17.5t75 -17.5q135 -35 215 -103.5t80 -211.5q0 -102 -43 -175t-119 -112t-160 -55.5t-182 -16.5q-221 0 -387 52 v276q180 -80 360 -80q152 0 152 84q0 33 -28 56.5t-59.5 34t-93.5 26.5l-24 6q-72 18 -115 34.5t-98 51.5t-82 91t-27 136z" />
<glyph unicode="&#x456;" horiz-adv-x="606" d="M111 0v1067h385v-1067h-385zM111 1190v268h385v-268h-385z" />
<glyph unicode="&#x457;" horiz-adv-x="606" d="M-53 1190v268h303v-268h-303zM111 0v1067h383v-1067h-383zM358 1190v268h301v-268h-301z" />
<glyph unicode="&#x458;" horiz-adv-x="606" d="M-90 -164q27 -8 86 -8q74 0 97.5 53t23.5 148v1038h383v-1055q0 -213 -86 -326.5t-287 -113.5q-131 0 -217 18v246zM117 1190v268h383v-268h-383z" />
<glyph unicode="&#x459;" horiz-adv-x="1894" d="M0 6v275q55 -12 78 -13q49 0 74.5 44t29.5 89t4 119v547h998v-362h284q170 0 276.5 -90.5t106.5 -266.5q0 -182 -116.5 -265t-296.5 -83h-637v791h-236v-271q0 -102 -19.5 -192t-61.5 -170t-118.5 -127t-181 -47.5t-184.5 22.5zM1184 246h168q53 0 90 27.5t37 76.5 q0 106 -129 107h-166v-211z" />
<glyph unicode="&#x45a;" horiz-adv-x="1912" d="M102 0v1067h383v-365h334v365h383v-362h285q170 0 276.5 -90.5t106.5 -266.5q0 -182 -117 -265t-297 -83h-637v426h-334v-426h-383zM1202 246h168q53 0 90 27.5t37 76.5q0 106 -129 107h-166v-211z" />
<glyph unicode="&#x45b;" horiz-adv-x="1304" d="M31 827v265h102v366h383v-366h526v-265h-526v-217h4q117 158 334 158q201 0 293 -118t92 -300v-350h-383v199q0 256 -162 256q-43 0 -79.5 -20.5t-55 -43t-43.5 -59.5v-332h-383v827h-102z" />
<glyph unicode="&#x45c;" horiz-adv-x="1251" d="M104 0v1067h383v-496h5l323 496h422l-371 -508l400 -559h-461l-313 545h-5v-545h-383zM381 1200l145 297h394l-279 -297h-260z" />
<glyph unicode="&#x45d;" horiz-adv-x="1331" d="M258 1511h393l146 -297h-262zM102 0v1067h373v-616h2l316 616h436v-1067h-373v614h-2l-315 -614h-437z" />
<glyph unicode="&#x45e;" d="M2 1067h410l221 -684h4l209 684h381l-580 -1477h-391l184 406zM264 1409l148 66q39 -131 202 -132q162 0 201 132l150 -66q-37 -123 -128.5 -193.5t-222.5 -70.5q-133 0 -224 70.5t-126 193.5z" />
<glyph unicode="&#x45f;" horiz-adv-x="1304" d="M102 0v1067h383v-791h334v791h383v-1067h-364v-307h-369v307h-367z" />
<glyph unicode="&#x490;" horiz-adv-x="1118" d="M115 0v1456h604v352h381v-637h-588v-1171h-397z" />
<glyph unicode="&#x491;" horiz-adv-x="890" d="M102 0v1067h455v307h328v-583h-400v-791h-383z" />
<glyph unicode="&#x4ae;" horiz-adv-x="1456" d="M-6 1458h455l280 -594h4l279 594h450l-534 -919v-539h-398v539z" />
<glyph unicode="&#x4c0;" horiz-adv-x="645" d="M123 0v1458h399v-1458h-399z" />
<glyph unicode="&#x2000;" horiz-adv-x="950" />
<glyph unicode="&#x2001;" horiz-adv-x="1902" />
<glyph unicode="&#x2002;" horiz-adv-x="950" />
<glyph unicode="&#x2003;" horiz-adv-x="1902" />
<glyph unicode="&#x2004;" horiz-adv-x="632" />
<glyph unicode="&#x2005;" horiz-adv-x="475" />
<glyph unicode="&#x2006;" horiz-adv-x="315" />
<glyph unicode="&#x2007;" horiz-adv-x="315" />
<glyph unicode="&#x2008;" horiz-adv-x="237" />
<glyph unicode="&#x2009;" horiz-adv-x="378" />
<glyph unicode="&#x200a;" horiz-adv-x="104" />
<glyph unicode="&#x2010;" horiz-adv-x="690" d="M66 412v278h557v-278h-557z" />
<glyph unicode="&#x2011;" horiz-adv-x="690" d="M66 412v278h557v-278h-557z" />
<glyph unicode="&#x2012;" horiz-adv-x="690" d="M66 412v278h557v-278h-557z" />
<glyph unicode="&#x2013;" horiz-adv-x="1024" d="M0 420v262h1024v-262h-1024z" />
<glyph unicode="&#x2014;" horiz-adv-x="2048" d="M0 420v262h2048v-262h-2048z" />
<glyph unicode="&#x2018;" horiz-adv-x="681" d="M96 868l205 562h285l-135 -562h-355z" />
<glyph unicode="&#x2019;" horiz-adv-x="681" d="M96 868l137 562h353l-205 -562h-285z" />
<glyph unicode="&#x201a;" horiz-adv-x="681" d="M96 -225l137 561h355l-205 -561h-287z" />
<glyph unicode="&#x201c;" horiz-adv-x="1251" d="M143 868l205 562h285l-135 -562h-355zM621 868l202 562h285l-135 -562h-352z" />
<glyph unicode="&#x201d;" horiz-adv-x="1251" d="M143 868l138 562h352l-205 -562h-285zM621 868l135 562h352l-203 -562h-284z" />
<glyph unicode="&#x201e;" horiz-adv-x="1251" d="M143 -225l138 561h354l-205 -561h-287zM618 -225l136 561h354l-203 -561h-287z" />
<glyph unicode="&#x2026;" horiz-adv-x="2048" d="M166 0v338h352v-338h-352zM848 0v338h352v-338h-352zM1530 0v338h352v-338h-352z" />
<glyph unicode="&#x202f;" horiz-adv-x="378" />
<glyph unicode="&#x2039;" horiz-adv-x="757" d="M100 551l242 420h313l-221 -420l221 -420h-313z" />
<glyph unicode="&#x203a;" horiz-adv-x="757" d="M102 131l222 420l-222 420h312l243 -420l-243 -420h-312z" />
<glyph unicode="&#x205f;" horiz-adv-x="475" />
<glyph unicode="&#x2122;" horiz-adv-x="2048" d="M231 1317v141h625v-141h-217v-574h-190v574h-218zM926 743v715h239l131 -147h2l138 147h227v-715h-186v539h-2l-183 -180h-4l-174 180h-2v-539h-186z" />
<glyph unicode="&#xe000;" horiz-adv-x="1065" d="M0 1065h1065v-1065h-1065v1065z" />
</font>
</defs>
</svg>
